SplineFontDB: 3.0
FontName: Alttp
FullName: ALTTP
FamilyName: Alttp
Weight: Book
Copyright: Copyright David Fens 2013
Version: 1.0
ItalicAngle: 0
UnderlinePosition: 77
UnderlineWidth: 51
Ascent: 819
Descent: 205
InvalidEm: 0
sfntRevision: 0x00010000
LayerCount: 2
Layer: 0 1 "Arri+AOgA-re" 1
Layer: 1 1 "Avant" 0
XUID: [1021 317 39143339 9443]
StyleMap: 0x0040
FSType: 4
OS2Version: 2
OS2_WeightWidthSlopeOnly: 0
OS2_UseTypoMetrics: 0
CreationTime: 1379761758
ModificationTime: 1541893827
PfmFamily: 81
TTFWeight: 400
TTFWidth: 5
LineGap: 0
VLineGap: 0
Panose: 0 0 4 0 0 0 0 0 0 0
OS2TypoAscent: 1408
OS2TypoAOffset: 0
OS2TypoDescent: -128
OS2TypoDOffset: 0
OS2TypoLinegap: 0
OS2WinAscent: 1792
OS2WinAOffset: 0
OS2WinDescent: 256
OS2WinDOffset: 0
HheadAscent: 1792
HheadAOffset: 0
HheadDescent: -256
HheadDOffset: 0
OS2SubXSize: 512
OS2SubYSize: 512
OS2SubXOff: 0
OS2SubYOff: -64
OS2SupXSize: 512
OS2SupYSize: 512
OS2SupXOff: 0
OS2SupYOff: 512
OS2StrikeYSize: 51
OS2StrikeYPos: 204
OS2CapHeight: 1408
OS2XHeight: 896
OS2Vendor: 'FSTR'
OS2CodePages: 00000011.00000000
OS2UnicodeRanges: 80000007.00000000.00000000.00000000
MarkAttachClasses: 1
DEI: 91125
ShortTable: maxp 16
  1
  0
  127
  60
  15
  0
  0
  2
  0
  0
  0
  0
  0
  0
  0
  0
EndShort
LangName: 1033 "" "" "Regular" "" "" "Version 1.0" "" "FontStruct is a trademark of FSI FontShop International GmbH" "http://fontstruct.com" "David Fens" "+IBoAxAD6-TLOZ Minish Cap/A Link to the Past/Four Sword+IBoAxAD5 was built with FontStruct+AAoA" "http://www.fontshop.com" "http://fontstruct.com/fontstructions/show/875429" "FontStruct Non-Commercial License" "" "" "" "" "" "Five big quacking zephyrs jolt my wax bed"
Encoding: UnicodeBmp
UnicodeInterp: none
NameList: AGL For New Fonts
DisplaySize: -48
AntiAlias: 1
FitToEm: 0
WinInfo: 0 16 10
BeginPrivate: 0
EndPrivate
Grid
-1024 1408 m 0
 2048 1408 l 1024
  Named: "top"
-1024 1778 m 0
 2048 1778 l 1024
EndSplineSet
BeginChars: 65539 195

StartChar: .notdef
Encoding: 65536 -1 0
Width: 128
Flags: W
LayerCount: 2
Fore
SplineSet
704 199 m 1,0,-1
 704 423 l 1,1,-1
 480 423 l 1,2,-1
 480 199 l 1,3,-1
 704 199 l 1,0,-1
927 461 m 1,4,-1
 927 685 l 1,5,-1
 480 685 l 1,6,-1
 480 461 l 1,7,-1
 927 461 l 1,4,-1
704 722 m 1,8,-1
 704 946 l 1,9,-1
 480 946 l 1,10,-1
 480 722 l 1,11,-1
 704 722 l 1,8,-1
927 984 m 1,12,-1
 927 1206 l 1,13,-1
 704 1206 l 2,14,15
 611 1206 611 1206 546 1141 c 0,16,17
 480 1075 480 1075 480 984 c 1,18,-1
 927 984 l 1,12,-1
0 0 m 1,19,-1
 0 1408 l 1,20,-1
 1408 1408 l 1,21,-1
 1408 0 l 1,22,-1
 0 0 l 1,19,-1
EndSplineSet
Validated: 1
EndChar

StartChar: exclam
Encoding: 33 33 4
Width: 256
Flags: W
LayerCount: 2
Fore
SplineSet
0 0 m 1,0,-1
 0 256 l 1,1,-1
 128 256 l 1,2,-1
 128 0 l 1,3,-1
 0 0 l 1,0,-1
0 512 m 1,4,-1
 0 1408 l 1,5,-1
 128 1408 l 1,6,-1
 128 512 l 1,7,-1
 0 512 l 1,4,-1
EndSplineSet
Validated: 1
EndChar

StartChar: quotedbl
Encoding: 34 34 5
Width: 768
Flags: W
LayerCount: 2
Fore
SplineSet
0 1024 m 5,0,-1
 0 1152 l 5,1,-1
 128 1152 l 5,2,-1
 128 1024 l 5,3,-1
 0 1024 l 5,0,-1
384 1024 m 1,4,-1
 384 1152 l 1,5,-1
 512 1152 l 1,6,-1
 512 1024 l 1,7,-1
 384 1024 l 1,4,-1
128 1152 m 5,8,-1
 128 1280 l 5,9,-1
 0 1280 l 5,10,-1
 0 1536 l 5,11,-1
 256 1536 l 5,12,-1
 256 1152 l 5,13,-1
 128 1152 l 5,8,-1
512 1152 m 1,14,-1
 512 1280 l 1,15,-1
 384 1280 l 1,16,-1
 384 1536 l 1,17,-1
 640 1536 l 1,18,-1
 640 1152 l 1,19,-1
 512 1152 l 1,14,-1
EndSplineSet
Validated: 5
EndChar

StartChar: quotesingle
Encoding: 39 39 6
Width: 384
Flags: W
LayerCount: 2
Fore
SplineSet
0 1024 m 1,0,-1
 0 1152 l 1,1,-1
 128 1152 l 1,2,-1
 128 1024 l 1,3,-1
 0 1024 l 1,0,-1
128 1152 m 1,4,-1
 128 1280 l 1,5,-1
 0 1280 l 1,6,-1
 0 1536 l 1,7,-1
 256 1536 l 1,8,-1
 256 1152 l 1,9,-1
 128 1152 l 1,4,-1
EndSplineSet
Validated: 5
EndChar

StartChar: comma
Encoding: 44 44 7
Width: 384
Flags: W
LayerCount: 2
Fore
SplineSet
0 -128 m 1,0,-1
 0 0 l 1,1,-1
 128 0 l 1,2,-1
 128 -128 l 1,3,-1
 0 -128 l 1,0,-1
128 0 m 1,4,-1
 128 128 l 1,5,-1
 0 128 l 1,6,-1
 0 384 l 1,7,-1
 256 384 l 1,8,-1
 256 0 l 1,9,-1
 128 0 l 1,4,-1
EndSplineSet
Validated: 5
EndChar

StartChar: hyphen
Encoding: 45 45 8
Width: 768
Flags: W
LayerCount: 2
Fore
SplineSet
0 640 m 1,0,-1
 0 768 l 1,1,-1
 640 768 l 1,2,-1
 640 640 l 1,3,-1
 0 640 l 1,0,-1
EndSplineSet
Validated: 1
EndChar

StartChar: period
Encoding: 46 46 9
Width: 384
Flags: W
LayerCount: 2
Fore
SplineSet
0 0 m 1,0,-1
 0 256 l 1,1,-1
 256 256 l 1,2,-1
 256 0 l 1,3,-1
 0 0 l 1,0,-1
EndSplineSet
Validated: 1
EndChar

StartChar: zero
Encoding: 48 48 10
Width: 768
Flags: W
LayerCount: 2
Fore
SplineSet
128 0 m 5,0,-1
 128 128 l 5,1,-1
 512 128 l 5,2,-1
 512 0 l 5,3,-1
 128 0 l 5,0,-1
0 128 m 5,4,-1
 0 1280 l 5,5,-1
 128 1280 l 5,6,-1
 128 128 l 5,7,-1
 0 128 l 5,4,-1
512 128 m 5,8,-1
 512 1280 l 5,9,-1
 640 1280 l 5,10,-1
 640 128 l 5,11,-1
 512 128 l 5,8,-1
128 1280 m 5,12,-1
 128 1408 l 5,13,-1
 512 1408 l 5,14,-1
 512 1280 l 5,15,-1
 128 1280 l 5,12,-1
EndSplineSet
Validated: 5
EndChar

StartChar: one
Encoding: 49 49 11
Width: 512
Flags: W
LayerCount: 2
Fore
SplineSet
0 0 m 1,0,-1
 0 128 l 1,1,-1
 128 128 l 1,2,-1
 128 1024 l 1,3,-1
 0 1024 l 1,4,-1
 0 1152 l 1,5,-1
 128 1152 l 1,6,-1
 128 1408 l 1,7,-1
 256 1408 l 1,8,-1
 256 128 l 1,9,-1
 384 128 l 1,10,-1
 384 0 l 1,11,-1
 0 0 l 1,0,-1
EndSplineSet
Validated: 1
EndChar

StartChar: two
Encoding: 50 50 12
Width: 768
Flags: W
LayerCount: 2
Fore
SplineSet
0 0 m 1,0,-1
 0 256 l 1,1,-1
 128 256 l 1,2,-1
 128 128 l 1,3,-1
 640 128 l 1,4,-1
 640 0 l 1,5,-1
 0 0 l 1,0,-1
128 256 m 1,6,-1
 128 512 l 1,7,-1
 256 512 l 1,8,-1
 256 256 l 1,9,-1
 128 256 l 1,6,-1
256 512 m 1,10,-1
 256 640 l 1,11,-1
 384 640 l 1,12,-1
 384 512 l 1,13,-1
 256 512 l 1,10,-1
384 640 m 1,14,-1
 384 896 l 1,15,-1
 512 896 l 1,16,-1
 512 640 l 1,17,-1
 384 640 l 1,14,-1
0 896 m 1,18,-1
 0 1280 l 1,19,-1
 128 1280 l 1,20,-1
 128 896 l 1,21,-1
 0 896 l 1,18,-1
512 896 m 1,22,-1
 512 1280 l 1,23,-1
 640 1280 l 1,24,-1
 640 896 l 1,25,-1
 512 896 l 1,22,-1
128 1280 m 1,26,-1
 128 1408 l 1,27,-1
 512 1408 l 1,28,-1
 512 1280 l 1,29,-1
 128 1280 l 1,26,-1
EndSplineSet
Validated: 5
EndChar

StartChar: three
Encoding: 51 51 13
Width: 768
Flags: W
LayerCount: 2
Fore
SplineSet
128 0 m 1,0,-1
 128 128 l 1,1,-1
 512 128 l 1,2,-1
 512 0 l 1,3,-1
 128 0 l 1,0,-1
0 128 m 1,4,-1
 0 384 l 1,5,-1
 128 384 l 1,6,-1
 128 128 l 1,7,-1
 0 128 l 1,4,-1
512 128 m 1,8,-1
 512 640 l 1,9,-1
 640 640 l 1,10,-1
 640 128 l 1,11,-1
 512 128 l 1,8,-1
256 640 m 1,12,-1
 256 768 l 1,13,-1
 512 768 l 1,14,-1
 512 640 l 1,15,-1
 256 640 l 1,12,-1
0 1024 m 1,16,-1
 0 1280 l 1,17,-1
 128 1280 l 1,18,-1
 128 1024 l 1,19,-1
 0 1024 l 1,16,-1
512 768 m 1,20,-1
 512 1280 l 1,21,-1
 640 1280 l 1,22,-1
 640 768 l 1,23,-1
 512 768 l 1,20,-1
128 1280 m 1,24,-1
 128 1408 l 1,25,-1
 512 1408 l 1,26,-1
 512 1280 l 1,27,-1
 128 1280 l 1,24,-1
EndSplineSet
Validated: 5
EndChar

StartChar: four
Encoding: 52 52 14
Width: 896
Flags: W
LayerCount: 2
Fore
SplineSet
128 640 m 1,0,-1
 128 896 l 1,1,-1
 256 896 l 1,2,-1
 256 640 l 1,3,-1
 128 640 l 1,0,-1
256 896 m 1,4,-1
 256 1024 l 1,5,-1
 384 1024 l 1,6,-1
 384 896 l 1,7,-1
 256 896 l 1,4,-1
512 0 m 1,8,-1
 512 384 l 1,9,-1
 0 384 l 1,10,-1
 0 640 l 1,11,-1
 128 640 l 1,12,-1
 128 512 l 1,13,-1
 512 512 l 1,14,-1
 512 1024 l 1,15,-1
 384 1024 l 1,16,-1
 384 1280 l 1,17,-1
 512 1280 l 1,18,-1
 512 1408 l 1,19,-1
 640 1408 l 1,20,-1
 640 512 l 1,21,-1
 768 512 l 1,22,-1
 768 384 l 1,23,-1
 640 384 l 1,24,-1
 640 0 l 1,25,-1
 512 0 l 1,8,-1
EndSplineSet
Validated: 5
EndChar

StartChar: five
Encoding: 53 53 15
Width: 768
Flags: W
LayerCount: 2
Fore
SplineSet
128 0 m 1,0,-1
 128 128 l 1,1,-1
 512 128 l 1,2,-1
 512 0 l 1,3,-1
 128 0 l 1,0,-1
0 128 m 1,4,-1
 0 256 l 1,5,-1
 128 256 l 1,6,-1
 128 128 l 1,7,-1
 0 128 l 1,4,-1
512 128 m 1,8,-1
 512 768 l 1,9,-1
 640 768 l 1,10,-1
 640 128 l 1,11,-1
 512 128 l 1,8,-1
256 768 m 1,12,-1
 256 896 l 1,13,-1
 512 896 l 1,14,-1
 512 768 l 1,15,-1
 256 768 l 1,12,-1
0 512 m 1,16,-1
 0 1408 l 1,17,-1
 512 1408 l 1,18,-1
 512 1280 l 1,19,-1
 128 1280 l 1,20,-1
 128 768 l 1,21,-1
 256 768 l 1,22,-1
 256 640 l 1,23,-1
 128 640 l 1,24,-1
 128 512 l 1,25,-1
 0 512 l 1,16,-1
EndSplineSet
Validated: 5
EndChar

StartChar: six
Encoding: 54 54 16
Width: 768
Flags: W
LayerCount: 2
Fore
SplineSet
128 0 m 1,0,-1
 128 128 l 1,1,-1
 512 128 l 1,2,-1
 512 0 l 1,3,-1
 128 0 l 1,0,-1
512 128 m 1,4,-1
 512 640 l 1,5,-1
 640 640 l 1,6,-1
 640 128 l 1,7,-1
 512 128 l 1,4,-1
0 128 m 1,8,-1
 0 1280 l 1,9,-1
 128 1280 l 1,10,-1
 128 768 l 1,11,-1
 512 768 l 1,12,-1
 512 640 l 1,13,-1
 128 640 l 1,14,-1
 128 128 l 1,15,-1
 0 128 l 1,8,-1
512 1152 m 1,16,-1
 512 1280 l 1,17,-1
 640 1280 l 1,18,-1
 640 1152 l 1,19,-1
 512 1152 l 1,16,-1
128 1280 m 1,20,-1
 128 1408 l 1,21,-1
 512 1408 l 1,22,-1
 512 1280 l 1,23,-1
 128 1280 l 1,20,-1
EndSplineSet
Validated: 5
EndChar

StartChar: seven
Encoding: 55 55 17
Width: 768
Flags: W
LayerCount: 2
Fore
SplineSet
128 0 m 1,0,-1
 128 384 l 1,1,-1
 256 384 l 1,2,-1
 256 768 l 1,3,-1
 384 768 l 1,4,-1
 384 1024 l 1,5,-1
 512 1024 l 1,6,-1
 512 1280 l 1,7,-1
 0 1280 l 1,8,-1
 0 1408 l 1,9,-1
 640 1408 l 1,10,-1
 640 1024 l 1,11,-1
 512 1024 l 1,12,-1
 512 768 l 1,13,-1
 384 768 l 1,14,-1
 384 384 l 1,15,-1
 256 384 l 1,16,-1
 256 0 l 1,17,-1
 128 0 l 1,0,-1
EndSplineSet
Validated: 5
EndChar

StartChar: eight
Encoding: 56 56 18
Width: 896
Flags: W
LayerCount: 2
Fore
SplineSet
256 0 m 1,0,-1
 256 128 l 1,1,-1
 512 128 l 1,2,-1
 512 0 l 1,3,-1
 256 0 l 1,0,-1
128 128 m 1,4,-1
 128 256 l 1,5,-1
 256 256 l 1,6,-1
 256 128 l 1,7,-1
 128 128 l 1,4,-1
512 128 m 1,8,-1
 512 256 l 1,9,-1
 640 256 l 1,10,-1
 640 128 l 1,11,-1
 512 128 l 1,8,-1
0 256 m 1,12,-1
 0 512 l 1,13,-1
 128 512 l 1,14,-1
 128 256 l 1,15,-1
 0 256 l 1,12,-1
640 256 m 1,16,-1
 640 512 l 1,17,-1
 768 512 l 1,18,-1
 768 256 l 1,19,-1
 640 256 l 1,16,-1
128 512 m 1,20,-1
 128 640 l 1,21,-1
 256 640 l 1,22,-1
 256 512 l 1,23,-1
 128 512 l 1,20,-1
512 512 m 1,24,-1
 512 640 l 1,25,-1
 640 640 l 1,26,-1
 640 512 l 1,27,-1
 512 512 l 1,24,-1
256 640 m 1,28,-1
 256 768 l 1,29,-1
 512 768 l 1,30,-1
 512 640 l 1,31,-1
 256 640 l 1,28,-1
128 768 m 1,32,-1
 128 896 l 1,33,-1
 256 896 l 1,34,-1
 256 768 l 1,35,-1
 128 768 l 1,32,-1
512 768 m 1,36,-1
 512 896 l 1,37,-1
 640 896 l 1,38,-1
 640 768 l 1,39,-1
 512 768 l 1,36,-1
0 896 m 1,40,-1
 0 1152 l 1,41,-1
 128 1152 l 1,42,-1
 128 896 l 1,43,-1
 0 896 l 1,40,-1
640 896 m 1,44,-1
 640 1152 l 1,45,-1
 768 1152 l 1,46,-1
 768 896 l 1,47,-1
 640 896 l 1,44,-1
128 1152 m 1,48,-1
 128 1280 l 1,49,-1
 256 1280 l 1,50,-1
 256 1152 l 1,51,-1
 128 1152 l 1,48,-1
512 1152 m 1,52,-1
 512 1280 l 1,53,-1
 640 1280 l 1,54,-1
 640 1152 l 1,55,-1
 512 1152 l 1,52,-1
256 1280 m 1,56,-1
 256 1408 l 1,57,-1
 512 1408 l 1,58,-1
 512 1280 l 1,59,-1
 256 1280 l 1,56,-1
EndSplineSet
Validated: 5
EndChar

StartChar: nine
Encoding: 57 57 19
Width: 768
Flags: W
LayerCount: 2
Fore
SplineSet
128 0 m 1,0,-1
 128 128 l 1,1,-1
 512 128 l 1,2,-1
 512 0 l 1,3,-1
 128 0 l 1,0,-1
0 128 m 1,4,-1
 0 256 l 1,5,-1
 128 256 l 1,6,-1
 128 128 l 1,7,-1
 0 128 l 1,4,-1
128 512 m 1,8,-1
 128 640 l 1,9,-1
 384 640 l 1,10,-1
 384 512 l 1,11,-1
 128 512 l 1,8,-1
0 640 m 1,12,-1
 0 1280 l 1,13,-1
 128 1280 l 1,14,-1
 128 640 l 1,15,-1
 0 640 l 1,12,-1
512 128 m 1,16,-1
 512 640 l 1,17,-1
 384 640 l 1,18,-1
 384 768 l 1,19,-1
 512 768 l 1,20,-1
 512 1280 l 1,21,-1
 640 1280 l 1,22,-1
 640 128 l 1,23,-1
 512 128 l 1,16,-1
128 1280 m 1,24,-1
 128 1408 l 1,25,-1
 512 1408 l 1,26,-1
 512 1280 l 1,27,-1
 128 1280 l 1,24,-1
EndSplineSet
Validated: 5
EndChar

StartChar: A
Encoding: 65 65 20
Width: 768
Flags: W
LayerCount: 2
Fore
SplineSet
0 0 m 1,0,-1
 0 640 l 1,1,-1
 128 640 l 1,2,-1
 128 512 l 1,3,-1
 512 512 l 1,4,-1
 512 640 l 1,5,-1
 640 640 l 1,6,-1
 640 0 l 1,7,-1
 512 0 l 1,8,-1
 512 384 l 1,9,-1
 128 384 l 1,10,-1
 128 0 l 1,11,-1
 0 0 l 1,0,-1
128 640 m 1,12,-1
 128 1152 l 1,13,-1
 256 1152 l 1,14,-1
 256 640 l 1,15,-1
 128 640 l 1,12,-1
384 640 m 1,16,-1
 384 1152 l 1,17,-1
 512 1152 l 1,18,-1
 512 640 l 1,19,-1
 384 640 l 1,16,-1
256 1152 m 1,20,-1
 256 1408 l 1,21,-1
 384 1408 l 1,22,-1
 384 1152 l 1,23,-1
 256 1152 l 1,20,-1
EndSplineSet
Validated: 5
EndChar

StartChar: B
Encoding: 66 66 21
Width: 768
Flags: W
LayerCount: 2
Fore
SplineSet
512 128 m 1,0,-1
 512 640 l 1,1,-1
 640 640 l 1,2,-1
 640 128 l 1,3,-1
 512 128 l 1,0,-1
512 768 m 1,4,-1
 512 1280 l 1,5,-1
 640 1280 l 1,6,-1
 640 768 l 1,7,-1
 512 768 l 1,4,-1
0 0 m 1,8,-1
 0 1408 l 1,9,-1
 512 1408 l 1,10,-1
 512 1280 l 1,11,-1
 128 1280 l 1,12,-1
 128 768 l 1,13,-1
 512 768 l 1,14,-1
 512 640 l 1,15,-1
 128 640 l 1,16,-1
 128 128 l 1,17,-1
 512 128 l 1,18,-1
 512 0 l 1,19,-1
 0 0 l 1,8,-1
EndSplineSet
Validated: 5
EndChar

StartChar: C
Encoding: 67 67 22
Width: 896
Flags: W
LayerCount: 2
Fore
SplineSet
256 0 m 5,0,-1
 256 128 l 5,1,-1
 512 128 l 5,2,-1
 512 0 l 5,3,-1
 256 0 l 5,0,-1
128 128 m 5,4,-1
 128 256 l 5,5,-1
 256 256 l 5,6,-1
 256 128 l 5,7,-1
 128 128 l 5,4,-1
512 128 m 5,8,-1
 512 256 l 5,9,-1
 640 256 l 5,10,-1
 640 128 l 5,11,-1
 512 128 l 5,8,-1
640 256 m 5,12,-1
 640 512 l 5,13,-1
 768 512 l 5,14,-1
 768 256 l 5,15,-1
 640 256 l 5,12,-1
0 256 m 5,16,-1
 0 1152 l 5,17,-1
 128 1152 l 5,18,-1
 128 256 l 5,19,-1
 0 256 l 5,16,-1
640 896 m 5,20,-1
 640 1152 l 5,21,-1
 768 1152 l 5,22,-1
 768 896 l 5,23,-1
 640 896 l 5,20,-1
128 1152 m 5,24,-1
 128 1280 l 5,25,-1
 256 1280 l 5,26,-1
 256 1152 l 5,27,-1
 128 1152 l 5,24,-1
512 1152 m 5,28,-1
 512 1280 l 5,29,-1
 640 1280 l 5,30,-1
 640 1152 l 5,31,-1
 512 1152 l 5,28,-1
256 1280 m 5,32,-1
 256 1408 l 5,33,-1
 512 1408 l 5,34,-1
 512 1280 l 5,35,-1
 256 1280 l 5,32,-1
EndSplineSet
Validated: 5
EndChar

StartChar: D
Encoding: 68 68 23
Width: 768
Flags: W
LayerCount: 2
Fore
SplineSet
384 128 m 1,0,-1
 384 256 l 1,1,-1
 512 256 l 1,2,-1
 512 128 l 1,3,-1
 384 128 l 1,0,-1
512 256 m 1,4,-1
 512 1152 l 1,5,-1
 640 1152 l 1,6,-1
 640 256 l 1,7,-1
 512 256 l 1,4,-1
384 1152 m 1,8,-1
 384 1280 l 1,9,-1
 512 1280 l 1,10,-1
 512 1152 l 1,11,-1
 384 1152 l 1,8,-1
0 0 m 1,12,-1
 0 1408 l 1,13,-1
 384 1408 l 1,14,-1
 384 1280 l 1,15,-1
 128 1280 l 1,16,-1
 128 128 l 1,17,-1
 384 128 l 1,18,-1
 384 0 l 1,19,-1
 0 0 l 1,12,-1
EndSplineSet
Validated: 5
EndChar

StartChar: E
Encoding: 69 69 24
Width: 768
Flags: W
LayerCount: 2
Fore
SplineSet
0 0 m 1,0,-1
 0 1408 l 1,1,-1
 640 1408 l 1,2,-1
 640 1280 l 1,3,-1
 128 1280 l 1,4,-1
 128 768 l 1,5,-1
 512 768 l 1,6,-1
 512 640 l 1,7,-1
 128 640 l 1,8,-1
 128 128 l 1,9,-1
 640 128 l 1,10,-1
 640 0 l 1,11,-1
 0 0 l 1,0,-1
EndSplineSet
Validated: 1
EndChar

StartChar: F
Encoding: 70 70 25
Width: 768
Flags: W
LayerCount: 2
Fore
SplineSet
0 0 m 1,0,-1
 0 1408 l 1,1,-1
 640 1408 l 1,2,-1
 640 1280 l 1,3,-1
 128 1280 l 1,4,-1
 128 768 l 1,5,-1
 512 768 l 1,6,-1
 512 640 l 1,7,-1
 128 640 l 1,8,-1
 128 0 l 1,9,-1
 0 0 l 1,0,-1
EndSplineSet
Validated: 1
EndChar

StartChar: G
Encoding: 71 71 26
Width: 896
Flags: W
LayerCount: 2
Fore
SplineSet
256 0 m 1,0,-1
 256 128 l 1,1,-1
 512 128 l 1,2,-1
 512 0 l 1,3,-1
 256 0 l 1,0,-1
128 128 m 1,4,-1
 128 256 l 1,5,-1
 256 256 l 1,6,-1
 256 128 l 1,7,-1
 128 128 l 1,4,-1
640 0 m 1,8,-1
 640 128 l 1,9,-1
 512 128 l 1,10,-1
 512 256 l 1,11,-1
 640 256 l 1,12,-1
 640 640 l 1,13,-1
 384 640 l 1,14,-1
 384 768 l 1,15,-1
 768 768 l 1,16,-1
 768 0 l 1,17,-1
 640 0 l 1,8,-1
0 256 m 1,18,-1
 0 1152 l 1,19,-1
 128 1152 l 1,20,-1
 128 256 l 1,21,-1
 0 256 l 1,18,-1
640 1024 m 1,22,-1
 640 1152 l 1,23,-1
 768 1152 l 1,24,-1
 768 1024 l 1,25,-1
 640 1024 l 1,22,-1
128 1152 m 1,26,-1
 128 1280 l 1,27,-1
 256 1280 l 1,28,-1
 256 1152 l 1,29,-1
 128 1152 l 1,26,-1
512 1152 m 1,30,-1
 512 1280 l 1,31,-1
 640 1280 l 1,32,-1
 640 1152 l 1,33,-1
 512 1152 l 1,30,-1
256 1280 m 1,34,-1
 256 1408 l 1,35,-1
 512 1408 l 1,36,-1
 512 1280 l 1,37,-1
 256 1280 l 1,34,-1
EndSplineSet
Validated: 5
EndChar

StartChar: H
Encoding: 72 72 27
Width: 896
Flags: W
LayerCount: 2
Fore
SplineSet
0 0 m 1,0,-1
 0 1408 l 1,1,-1
 128 1408 l 1,2,-1
 128 768 l 1,3,-1
 640 768 l 1,4,-1
 640 1408 l 1,5,-1
 768 1408 l 1,6,-1
 768 0 l 1,7,-1
 640 0 l 1,8,-1
 640 640 l 1,9,-1
 128 640 l 1,10,-1
 128 0 l 1,11,-1
 0 0 l 1,0,-1
EndSplineSet
Validated: 1
EndChar

StartChar: I
Encoding: 73 73 28
Width: 512
Flags: W
LayerCount: 2
Fore
SplineSet
0 0 m 1,0,-1
 0 128 l 1,1,-1
 128 128 l 1,2,-1
 128 1280 l 1,3,-1
 0 1280 l 1,4,-1
 0 1408 l 1,5,-1
 384 1408 l 1,6,-1
 384 1280 l 1,7,-1
 256 1280 l 1,8,-1
 256 128 l 1,9,-1
 384 128 l 1,10,-1
 384 0 l 1,11,-1
 0 0 l 1,0,-1
EndSplineSet
Validated: 1
EndChar

StartChar: J
Encoding: 74 74 29
Width: 768
Flags: W
LayerCount: 2
Fore
SplineSet
128 0 m 1,0,-1
 128 128 l 1,1,-1
 512 128 l 1,2,-1
 512 0 l 1,3,-1
 128 0 l 1,0,-1
0 128 m 1,4,-1
 0 512 l 1,5,-1
 128 512 l 1,6,-1
 128 128 l 1,7,-1
 0 128 l 1,4,-1
512 128 m 1,8,-1
 512 1408 l 1,9,-1
 640 1408 l 1,10,-1
 640 128 l 1,11,-1
 512 128 l 1,8,-1
EndSplineSet
Validated: 5
EndChar

StartChar: K
Encoding: 75 75 30
Width: 896
Flags: W
LayerCount: 2
Fore
SplineSet
640 0 m 1,0,-1
 640 256 l 1,1,-1
 768 256 l 1,2,-1
 768 0 l 1,3,-1
 640 0 l 1,0,-1
512 256 m 1,4,-1
 512 512 l 1,5,-1
 640 512 l 1,6,-1
 640 256 l 1,7,-1
 512 256 l 1,4,-1
384 512 m 1,8,-1
 384 640 l 1,9,-1
 512 640 l 1,10,-1
 512 512 l 1,11,-1
 384 512 l 1,8,-1
256 640 m 1,12,-1
 256 896 l 1,13,-1
 384 896 l 1,14,-1
 384 640 l 1,15,-1
 256 640 l 1,12,-1
384 896 m 1,16,-1
 384 1152 l 1,17,-1
 512 1152 l 1,18,-1
 512 896 l 1,19,-1
 384 896 l 1,16,-1
0 0 m 1,20,-1
 0 1408 l 1,21,-1
 128 1408 l 1,22,-1
 128 640 l 1,23,-1
 256 640 l 1,24,-1
 256 512 l 1,25,-1
 128 512 l 1,26,-1
 128 0 l 1,27,-1
 0 0 l 1,20,-1
512 1152 m 1,28,-1
 512 1408 l 1,29,-1
 640 1408 l 1,30,-1
 640 1152 l 1,31,-1
 512 1152 l 1,28,-1
EndSplineSet
Validated: 5
EndChar

StartChar: L
Encoding: 76 76 31
Width: 896
Flags: W
LayerCount: 2
Fore
SplineSet
0 0 m 1,0,-1
 0 1408 l 1,1,-1
 128 1408 l 1,2,-1
 128 128 l 1,3,-1
 768 128 l 1,4,-1
 768 0 l 1,5,-1
 0 0 l 1,0,-1
EndSplineSet
Validated: 1
EndChar

StartChar: M
Encoding: 77 77 32
Width: 768
Flags: W
LayerCount: 2
Fore
SplineSet
256 0 m 1,0,-1
 256 640 l 1,1,-1
 384 640 l 1,2,-1
 384 0 l 1,3,-1
 256 0 l 1,0,-1
0 0 m 1,4,-1
 0 1408 l 1,5,-1
 128 1408 l 1,6,-1
 128 1024 l 1,7,-1
 256 1024 l 1,8,-1
 256 640 l 1,9,-1
 128 640 l 1,10,-1
 128 0 l 1,11,-1
 0 0 l 1,4,-1
512 0 m 1,12,-1
 512 640 l 1,13,-1
 384 640 l 1,14,-1
 384 1024 l 1,15,-1
 512 1024 l 1,16,-1
 512 1408 l 1,17,-1
 640 1408 l 1,18,-1
 640 0 l 1,19,-1
 512 0 l 1,12,-1
EndSplineSet
Validated: 5
EndChar

StartChar: N
Encoding: 78 78 33
Width: 768
Flags: W
LayerCount: 2
Fore
SplineSet
256 512 m 1,0,-1
 256 768 l 1,1,-1
 384 768 l 1,2,-1
 384 512 l 1,3,-1
 256 512 l 1,0,-1
0 0 m 1,4,-1
 0 1408 l 1,5,-1
 128 1408 l 1,6,-1
 128 1024 l 1,7,-1
 256 1024 l 1,8,-1
 256 768 l 1,9,-1
 128 768 l 1,10,-1
 128 0 l 1,11,-1
 0 0 l 1,4,-1
512 0 m 1,12,-1
 512 256 l 1,13,-1
 384 256 l 1,14,-1
 384 512 l 1,15,-1
 512 512 l 1,16,-1
 512 1408 l 1,17,-1
 640 1408 l 1,18,-1
 640 0 l 1,19,-1
 512 0 l 1,12,-1
EndSplineSet
Validated: 5
EndChar

StartChar: O
Encoding: 79 79 34
Width: 896
Flags: W
LayerCount: 2
Fore
SplineSet
256 0 m 1,0,-1
 256 128 l 1,1,-1
 512 128 l 1,2,-1
 512 0 l 1,3,-1
 256 0 l 1,0,-1
128 128 m 1,4,-1
 128 256 l 1,5,-1
 256 256 l 1,6,-1
 256 128 l 1,7,-1
 128 128 l 1,4,-1
512 128 m 1,8,-1
 512 256 l 1,9,-1
 640 256 l 1,10,-1
 640 128 l 1,11,-1
 512 128 l 1,8,-1
0 256 m 1,12,-1
 0 1152 l 1,13,-1
 128 1152 l 1,14,-1
 128 256 l 1,15,-1
 0 256 l 1,12,-1
640 256 m 1,16,-1
 640 1152 l 1,17,-1
 768 1152 l 1,18,-1
 768 256 l 1,19,-1
 640 256 l 1,16,-1
128 1152 m 1,20,-1
 128 1280 l 1,21,-1
 256 1280 l 1,22,-1
 256 1152 l 1,23,-1
 128 1152 l 1,20,-1
512 1152 m 1,24,-1
 512 1280 l 1,25,-1
 640 1280 l 1,26,-1
 640 1152 l 1,27,-1
 512 1152 l 1,24,-1
256 1280 m 1,28,-1
 256 1408 l 1,29,-1
 512 1408 l 1,30,-1
 512 1280 l 1,31,-1
 256 1280 l 1,28,-1
EndSplineSet
Validated: 5
EndChar

StartChar: P
Encoding: 80 80 35
Width: 768
Flags: W
LayerCount: 2
Fore
SplineSet
512 768 m 1,0,-1
 512 1280 l 1,1,-1
 640 1280 l 1,2,-1
 640 768 l 1,3,-1
 512 768 l 1,0,-1
0 0 m 1,4,-1
 0 1408 l 1,5,-1
 512 1408 l 1,6,-1
 512 1280 l 1,7,-1
 128 1280 l 1,8,-1
 128 768 l 1,9,-1
 512 768 l 1,10,-1
 512 640 l 1,11,-1
 128 640 l 1,12,-1
 128 0 l 1,13,-1
 0 0 l 1,4,-1
EndSplineSet
Validated: 5
EndChar

StartChar: Q
Encoding: 81 81 36
Width: 896
Flags: W
LayerCount: 2
Fore
SplineSet
256 0 m 1,0,-1
 256 128 l 1,1,-1
 512 128 l 1,2,-1
 512 0 l 1,3,-1
 256 0 l 1,0,-1
640 0 m 1,4,-1
 640 128 l 1,5,-1
 768 128 l 1,6,-1
 768 0 l 1,7,-1
 640 0 l 1,4,-1
128 128 m 1,8,-1
 128 256 l 1,9,-1
 256 256 l 1,10,-1
 256 128 l 1,11,-1
 128 128 l 1,8,-1
384 384 m 1,12,-1
 384 512 l 1,13,-1
 512 512 l 1,14,-1
 512 384 l 1,15,-1
 384 384 l 1,12,-1
0 256 m 1,16,-1
 0 1152 l 1,17,-1
 128 1152 l 1,18,-1
 128 256 l 1,19,-1
 0 256 l 1,16,-1
512 128 m 1,20,-1
 512 384 l 1,21,-1
 640 384 l 1,22,-1
 640 1152 l 1,23,-1
 768 1152 l 1,24,-1
 768 256 l 1,25,-1
 640 256 l 1,26,-1
 640 128 l 1,27,-1
 512 128 l 1,20,-1
128 1152 m 1,28,-1
 128 1280 l 1,29,-1
 256 1280 l 1,30,-1
 256 1152 l 1,31,-1
 128 1152 l 1,28,-1
512 1152 m 1,32,-1
 512 1280 l 1,33,-1
 640 1280 l 1,34,-1
 640 1152 l 1,35,-1
 512 1152 l 1,32,-1
256 1280 m 1,36,-1
 256 1408 l 1,37,-1
 512 1408 l 1,38,-1
 512 1280 l 1,39,-1
 256 1280 l 1,36,-1
EndSplineSet
Validated: 5
EndChar

StartChar: R
Encoding: 82 82 37
Width: 768
Flags: W
LayerCount: 2
Fore
SplineSet
512 0 m 1,0,-1
 512 384 l 1,1,-1
 640 384 l 1,2,-1
 640 0 l 1,3,-1
 512 0 l 1,0,-1
512 768 m 1,4,-1
 512 1280 l 1,5,-1
 640 1280 l 1,6,-1
 640 768 l 1,7,-1
 512 768 l 1,4,-1
0 0 m 1,8,-1
 0 1408 l 1,9,-1
 512 1408 l 1,10,-1
 512 1280 l 1,11,-1
 128 1280 l 1,12,-1
 128 768 l 1,13,-1
 512 768 l 1,14,-1
 512 384 l 1,15,-1
 384 384 l 1,16,-1
 384 640 l 1,17,-1
 128 640 l 1,18,-1
 128 0 l 1,19,-1
 0 0 l 1,8,-1
EndSplineSet
Validated: 5
EndChar

StartChar: S
Encoding: 83 83 38
Width: 768
Flags: W
LayerCount: 2
Fore
SplineSet
128 0 m 1,0,-1
 128 128 l 1,1,-1
 512 128 l 1,2,-1
 512 0 l 1,3,-1
 128 0 l 1,0,-1
0 128 m 1,4,-1
 0 512 l 1,5,-1
 128 512 l 1,6,-1
 128 128 l 1,7,-1
 0 128 l 1,4,-1
512 128 m 1,8,-1
 512 512 l 1,9,-1
 640 512 l 1,10,-1
 640 128 l 1,11,-1
 512 128 l 1,8,-1
384 512 m 1,12,-1
 384 640 l 1,13,-1
 512 640 l 1,14,-1
 512 512 l 1,15,-1
 384 512 l 1,12,-1
256 640 m 1,16,-1
 256 768 l 1,17,-1
 384 768 l 1,18,-1
 384 640 l 1,19,-1
 256 640 l 1,16,-1
128 768 m 1,20,-1
 128 896 l 1,21,-1
 256 896 l 1,22,-1
 256 768 l 1,23,-1
 128 768 l 1,20,-1
0 896 m 1,24,-1
 0 1280 l 1,25,-1
 128 1280 l 1,26,-1
 128 896 l 1,27,-1
 0 896 l 1,24,-1
512 896 m 1,28,-1
 512 1280 l 1,29,-1
 640 1280 l 1,30,-1
 640 896 l 1,31,-1
 512 896 l 1,28,-1
128 1280 m 1,32,-1
 128 1408 l 1,33,-1
 512 1408 l 1,34,-1
 512 1280 l 1,35,-1
 128 1280 l 1,32,-1
EndSplineSet
Validated: 5
EndChar

StartChar: T
Encoding: 84 84 39
Width: 768
Flags: W
LayerCount: 2
Fore
SplineSet
256 0 m 1,0,-1
 256 1280 l 1,1,-1
 0 1280 l 1,2,-1
 0 1408 l 1,3,-1
 640 1408 l 1,4,-1
 640 1280 l 1,5,-1
 384 1280 l 1,6,-1
 384 0 l 1,7,-1
 256 0 l 1,0,-1
EndSplineSet
Validated: 1
EndChar

StartChar: U
Encoding: 85 85 40
Width: 768
Flags: W
LayerCount: 2
Fore
SplineSet
128 0 m 1,0,-1
 128 128 l 1,1,-1
 512 128 l 1,2,-1
 512 0 l 1,3,-1
 128 0 l 1,0,-1
0 128 m 1,4,-1
 0 1408 l 1,5,-1
 128 1408 l 1,6,-1
 128 128 l 1,7,-1
 0 128 l 1,4,-1
512 128 m 1,8,-1
 512 1408 l 1,9,-1
 640 1408 l 1,10,-1
 640 128 l 1,11,-1
 512 128 l 1,8,-1
EndSplineSet
Validated: 5
EndChar

StartChar: V
Encoding: 86 86 41
Width: 768
Flags: W
LayerCount: 2
Fore
SplineSet
256 0 m 1,0,-1
 256 384 l 1,1,-1
 384 384 l 1,2,-1
 384 0 l 1,3,-1
 256 0 l 1,0,-1
128 384 m 1,4,-1
 128 896 l 1,5,-1
 256 896 l 1,6,-1
 256 384 l 1,7,-1
 128 384 l 1,4,-1
384 384 m 1,8,-1
 384 896 l 1,9,-1
 512 896 l 1,10,-1
 512 384 l 1,11,-1
 384 384 l 1,8,-1
0 896 m 1,12,-1
 0 1408 l 1,13,-1
 128 1408 l 1,14,-1
 128 896 l 1,15,-1
 0 896 l 1,12,-1
512 896 m 1,16,-1
 512 1408 l 1,17,-1
 640 1408 l 1,18,-1
 640 896 l 1,19,-1
 512 896 l 1,16,-1
EndSplineSet
Validated: 5
EndChar

StartChar: W
Encoding: 87 87 42
Width: 768
Flags: W
LayerCount: 2
Fore
SplineSet
128 0 m 1,0,-1
 128 512 l 1,1,-1
 256 512 l 1,2,-1
 256 0 l 1,3,-1
 128 0 l 1,0,-1
384 0 m 1,4,-1
 384 512 l 1,5,-1
 512 512 l 1,6,-1
 512 0 l 1,7,-1
 384 0 l 1,4,-1
0 512 m 1,8,-1
 0 1408 l 1,9,-1
 128 1408 l 1,10,-1
 128 512 l 1,11,-1
 0 512 l 1,8,-1
256 512 m 1,12,-1
 256 1408 l 1,13,-1
 384 1408 l 1,14,-1
 384 512 l 1,15,-1
 256 512 l 1,12,-1
512 512 m 1,16,-1
 512 1408 l 1,17,-1
 640 1408 l 1,18,-1
 640 512 l 1,19,-1
 512 512 l 1,16,-1
EndSplineSet
Validated: 5
EndChar

StartChar: X
Encoding: 88 88 43
Width: 768
Flags: W
LayerCount: 2
Fore
SplineSet
0 0 m 1,0,-1
 0 384 l 1,1,-1
 128 384 l 1,2,-1
 128 0 l 1,3,-1
 0 0 l 1,0,-1
512 0 m 1,4,-1
 512 384 l 1,5,-1
 640 384 l 1,6,-1
 640 0 l 1,7,-1
 512 0 l 1,4,-1
128 384 m 1,8,-1
 128 640 l 1,9,-1
 256 640 l 1,10,-1
 256 384 l 1,11,-1
 128 384 l 1,8,-1
384 384 m 1,12,-1
 384 640 l 1,13,-1
 512 640 l 1,14,-1
 512 384 l 1,15,-1
 384 384 l 1,12,-1
256 640 m 1,16,-1
 256 896 l 1,17,-1
 384 896 l 1,18,-1
 384 640 l 1,19,-1
 256 640 l 1,16,-1
128 896 m 1,20,-1
 128 1152 l 1,21,-1
 256 1152 l 1,22,-1
 256 896 l 1,23,-1
 128 896 l 1,20,-1
384 896 m 1,24,-1
 384 1152 l 1,25,-1
 512 1152 l 1,26,-1
 512 896 l 1,27,-1
 384 896 l 1,24,-1
0 1152 m 1,28,-1
 0 1408 l 1,29,-1
 128 1408 l 1,30,-1
 128 1152 l 1,31,-1
 0 1152 l 1,28,-1
512 1152 m 1,32,-1
 512 1408 l 1,33,-1
 640 1408 l 1,34,-1
 640 1152 l 1,35,-1
 512 1152 l 1,32,-1
EndSplineSet
Validated: 5
EndChar

StartChar: Y
Encoding: 89 89 44
Width: 768
Flags: W
LayerCount: 2
Fore
SplineSet
256 0 m 1,0,-1
 256 768 l 1,1,-1
 384 768 l 1,2,-1
 384 0 l 1,3,-1
 256 0 l 1,0,-1
128 768 m 1,4,-1
 128 1024 l 1,5,-1
 256 1024 l 1,6,-1
 256 768 l 1,7,-1
 128 768 l 1,4,-1
384 768 m 1,8,-1
 384 1024 l 1,9,-1
 512 1024 l 1,10,-1
 512 768 l 1,11,-1
 384 768 l 1,8,-1
0 1024 m 1,12,-1
 0 1408 l 1,13,-1
 128 1408 l 1,14,-1
 128 1024 l 1,15,-1
 0 1024 l 1,12,-1
512 1024 m 1,16,-1
 512 1408 l 1,17,-1
 640 1408 l 1,18,-1
 640 1024 l 1,19,-1
 512 1024 l 1,16,-1
EndSplineSet
Validated: 5
EndChar

StartChar: Z
Encoding: 90 90 45
Width: 768
Flags: W
LayerCount: 2
Fore
SplineSet
0 0 m 1,0,-1
 0 256 l 1,1,-1
 128 256 l 1,2,-1
 128 128 l 1,3,-1
 640 128 l 1,4,-1
 640 0 l 1,5,-1
 0 0 l 1,0,-1
128 256 m 1,6,-1
 128 512 l 1,7,-1
 256 512 l 1,8,-1
 256 256 l 1,9,-1
 128 256 l 1,6,-1
256 512 m 1,10,-1
 256 896 l 1,11,-1
 384 896 l 1,12,-1
 384 512 l 1,13,-1
 256 512 l 1,10,-1
384 896 m 1,14,-1
 384 1152 l 1,15,-1
 512 1152 l 1,16,-1
 512 896 l 1,17,-1
 384 896 l 1,14,-1
512 1152 m 1,18,-1
 512 1280 l 1,19,-1
 0 1280 l 1,20,-1
 0 1408 l 1,21,-1
 640 1408 l 1,22,-1
 640 1152 l 1,23,-1
 512 1152 l 1,18,-1
EndSplineSet
Validated: 5
EndChar

StartChar: a
Encoding: 97 97 46
Width: 896
Flags: W
LayerCount: 2
Fore
SplineSet
128 0 m 5,0,-1
 128 128 l 5,1,-1
 512 128 l 5,2,-1
 512 0 l 5,3,-1
 128 0 l 5,0,-1
640 0 m 5,4,-1
 640 128 l 5,5,-1
 768 128 l 5,6,-1
 768 0 l 5,7,-1
 640 0 l 5,4,-1
0 128 m 5,8,-1
 0 384 l 5,9,-1
 128 384 l 5,10,-1
 128 128 l 5,11,-1
 0 128 l 5,8,-1
0 640 m 5,12,-1
 0 768 l 5,13,-1
 128 768 l 5,14,-1
 128 640 l 5,15,-1
 0 640 l 5,12,-1
512 128 m 5,16,-1
 512 384 l 5,17,-1
 128 384 l 5,18,-1
 128 512 l 5,19,-1
 512 512 l 5,20,-1
 512 768 l 5,21,-1
 640 768 l 5,22,-1
 640 128 l 5,23,-1
 512 128 l 5,16,-1
128 768 m 5,24,-1
 128 896 l 5,25,-1
 512 896 l 5,26,-1
 512 768 l 5,27,-1
 128 768 l 5,24,-1
EndSplineSet
Validated: 5
EndChar

StartChar: b
Encoding: 98 98 47
Width: 768
Flags: W
LayerCount: 2
Fore
SplineSet
256 0 m 1,0,-1
 256 128 l 1,1,-1
 512 128 l 1,2,-1
 512 0 l 1,3,-1
 256 0 l 1,0,-1
512 128 m 1,4,-1
 512 768 l 1,5,-1
 640 768 l 1,6,-1
 640 128 l 1,7,-1
 512 128 l 1,4,-1
256 768 m 1,8,-1
 256 896 l 1,9,-1
 512 896 l 1,10,-1
 512 768 l 1,11,-1
 256 768 l 1,8,-1
0 0 m 1,12,-1
 0 1408 l 1,13,-1
 128 1408 l 1,14,-1
 128 768 l 1,15,-1
 256 768 l 1,16,-1
 256 640 l 1,17,-1
 128 640 l 1,18,-1
 128 256 l 1,19,-1
 256 256 l 1,20,-1
 256 128 l 1,21,-1
 128 128 l 1,22,-1
 128 0 l 1,23,-1
 0 0 l 1,12,-1
EndSplineSet
Validated: 5
EndChar

StartChar: c
Encoding: 99 99 48
Width: 768
Flags: W
LayerCount: 2
Fore
SplineSet
128 0 m 1,0,-1
 128 128 l 1,1,-1
 512 128 l 1,2,-1
 512 0 l 1,3,-1
 128 0 l 1,0,-1
512 128 m 1,4,-1
 512 256 l 1,5,-1
 640 256 l 1,6,-1
 640 128 l 1,7,-1
 512 128 l 1,4,-1
0 128 m 1,8,-1
 0 768 l 1,9,-1
 128 768 l 1,10,-1
 128 128 l 1,11,-1
 0 128 l 1,8,-1
512 640 m 1,12,-1
 512 768 l 1,13,-1
 640 768 l 1,14,-1
 640 640 l 1,15,-1
 512 640 l 1,12,-1
128 768 m 1,16,-1
 128 896 l 1,17,-1
 512 896 l 1,18,-1
 512 768 l 1,19,-1
 128 768 l 1,16,-1
EndSplineSet
Validated: 5
EndChar

StartChar: d
Encoding: 100 100 49
Width: 768
Flags: W
LayerCount: 2
Fore
SplineSet
128 0 m 1,0,-1
 128 128 l 1,1,-1
 384 128 l 1,2,-1
 384 0 l 1,3,-1
 128 0 l 1,0,-1
0 128 m 1,4,-1
 0 768 l 1,5,-1
 128 768 l 1,6,-1
 128 128 l 1,7,-1
 0 128 l 1,4,-1
128 768 m 1,8,-1
 128 896 l 1,9,-1
 384 896 l 1,10,-1
 384 768 l 1,11,-1
 128 768 l 1,8,-1
512 0 m 1,12,-1
 512 128 l 1,13,-1
 384 128 l 1,14,-1
 384 256 l 1,15,-1
 512 256 l 1,16,-1
 512 640 l 1,17,-1
 384 640 l 1,18,-1
 384 768 l 1,19,-1
 512 768 l 1,20,-1
 512 1408 l 1,21,-1
 640 1408 l 1,22,-1
 640 0 l 1,23,-1
 512 0 l 1,12,-1
EndSplineSet
Validated: 5
EndChar

StartChar: e
Encoding: 101 101 50
Width: 768
Flags: W
LayerCount: 2
Fore
SplineSet
128 0 m 1,0,-1
 128 128 l 1,1,-1
 512 128 l 1,2,-1
 512 0 l 1,3,-1
 128 0 l 1,0,-1
512 128 m 1,4,-1
 512 256 l 1,5,-1
 640 256 l 1,6,-1
 640 128 l 1,7,-1
 512 128 l 1,4,-1
0 128 m 1,8,-1
 0 768 l 1,9,-1
 128 768 l 1,10,-1
 128 512 l 1,11,-1
 512 512 l 1,12,-1
 512 768 l 1,13,-1
 640 768 l 1,14,-1
 640 384 l 1,15,-1
 128 384 l 1,16,-1
 128 128 l 1,17,-1
 0 128 l 1,8,-1
128 768 m 1,18,-1
 128 896 l 1,19,-1
 512 896 l 1,20,-1
 512 768 l 1,21,-1
 128 768 l 1,18,-1
EndSplineSet
Validated: 5
EndChar

StartChar: f
Encoding: 102 102 51
Width: 640
Flags: W
LayerCount: 2
Fore
SplineSet
128 0 m 1,0,-1
 128 768 l 1,1,-1
 0 768 l 1,2,-1
 0 896 l 1,3,-1
 128 896 l 1,4,-1
 128 1280 l 1,5,-1
 256 1280 l 1,6,-1
 256 896 l 1,7,-1
 512 896 l 1,8,-1
 512 768 l 1,9,-1
 256 768 l 1,10,-1
 256 0 l 1,11,-1
 128 0 l 1,0,-1
256 1280 m 1,12,-1
 256 1408 l 1,13,-1
 512 1408 l 1,14,-1
 512 1280 l 1,15,-1
 256 1280 l 1,12,-1
EndSplineSet
Validated: 5
EndChar

StartChar: g
Encoding: 103 103 52
Width: 896
Flags: W
LayerCount: 2
Fore
SplineSet
128 -128 m 1,0,-1
 128 0 l 1,1,-1
 640 0 l 1,2,-1
 640 -128 l 1,3,-1
 128 -128 l 1,0,-1
0 0 m 1,4,-1
 0 128 l 1,5,-1
 128 128 l 1,6,-1
 128 0 l 1,7,-1
 0 0 l 1,4,-1
640 0 m 1,8,-1
 640 128 l 1,9,-1
 768 128 l 1,10,-1
 768 0 l 1,11,-1
 640 0 l 1,8,-1
128 128 m 1,12,-1
 128 384 l 1,13,-1
 256 384 l 1,14,-1
 256 256 l 1,15,-1
 640 256 l 1,16,-1
 640 128 l 1,17,-1
 128 128 l 1,12,-1
256 384 m 1,18,-1
 256 512 l 1,19,-1
 512 512 l 1,20,-1
 512 384 l 1,21,-1
 256 384 l 1,18,-1
128 512 m 1,22,-1
 128 768 l 1,23,-1
 256 768 l 1,24,-1
 256 512 l 1,25,-1
 128 512 l 1,22,-1
512 512 m 1,26,-1
 512 768 l 1,27,-1
 640 768 l 1,28,-1
 640 512 l 1,29,-1
 512 512 l 1,26,-1
256 768 m 1,30,-1
 256 896 l 1,31,-1
 512 896 l 1,32,-1
 512 768 l 1,33,-1
 256 768 l 1,30,-1
640 768 m 1,34,-1
 640 896 l 1,35,-1
 768 896 l 1,36,-1
 768 768 l 1,37,-1
 640 768 l 1,34,-1
EndSplineSet
Validated: 5
EndChar

StartChar: h
Encoding: 104 104 53
Width: 768
Flags: W
LayerCount: 2
Fore
SplineSet
512 0 m 1,0,-1
 512 768 l 1,1,-1
 640 768 l 1,2,-1
 640 0 l 1,3,-1
 512 0 l 1,0,-1
256 768 m 1,4,-1
 256 896 l 1,5,-1
 512 896 l 1,6,-1
 512 768 l 1,7,-1
 256 768 l 1,4,-1
0 0 m 1,8,-1
 0 1408 l 1,9,-1
 128 1408 l 1,10,-1
 128 768 l 1,11,-1
 256 768 l 1,12,-1
 256 640 l 1,13,-1
 128 640 l 1,14,-1
 128 0 l 1,15,-1
 0 0 l 1,8,-1
EndSplineSet
Validated: 5
EndChar

StartChar: i
Encoding: 105 105 54
Width: 256
Flags: W
LayerCount: 2
Fore
SplineSet
0 0 m 1,0,-1
 0 896 l 1,1,-1
 128 896 l 1,2,-1
 128 0 l 1,3,-1
 0 0 l 1,0,-1
0 1024 m 1,4,-1
 0 1280 l 1,5,-1
 128 1280 l 1,6,-1
 128 1024 l 1,7,-1
 0 1024 l 1,4,-1
EndSplineSet
Validated: 1
EndChar

StartChar: j
Encoding: 106 106 55
Width: 512
Flags: W
LayerCount: 2
Fore
SplineSet
0 -128 m 1,0,-1
 0 0 l 1,1,-1
 256 0 l 1,2,-1
 256 -128 l 1,3,-1
 0 -128 l 1,0,-1
256 0 m 1,4,-1
 256 896 l 1,5,-1
 384 896 l 1,6,-1
 384 0 l 1,7,-1
 256 0 l 1,4,-1
256 1024 m 1,8,-1
 256 1280 l 1,9,-1
 384 1280 l 1,10,-1
 384 1024 l 1,11,-1
 256 1024 l 1,8,-1
EndSplineSet
Validated: 5
EndChar

StartChar: k
Encoding: 107 107 56
Width: 768
Flags: W
LayerCount: 2
Fore
SplineSet
512 0 m 1,0,-1
 512 128 l 1,1,-1
 640 128 l 1,2,-1
 640 0 l 1,3,-1
 512 0 l 1,0,-1
384 128 m 1,4,-1
 384 256 l 1,5,-1
 512 256 l 1,6,-1
 512 128 l 1,7,-1
 384 128 l 1,4,-1
256 256 m 1,8,-1
 256 384 l 1,9,-1
 384 384 l 1,10,-1
 384 256 l 1,11,-1
 256 256 l 1,8,-1
256 512 m 1,12,-1
 256 640 l 1,13,-1
 384 640 l 1,14,-1
 384 512 l 1,15,-1
 256 512 l 1,12,-1
384 640 m 1,16,-1
 384 768 l 1,17,-1
 512 768 l 1,18,-1
 512 640 l 1,19,-1
 384 640 l 1,16,-1
512 768 m 1,20,-1
 512 896 l 1,21,-1
 640 896 l 1,22,-1
 640 768 l 1,23,-1
 512 768 l 1,20,-1
0 0 m 1,24,-1
 0 1408 l 1,25,-1
 128 1408 l 1,26,-1
 128 512 l 1,27,-1
 256 512 l 1,28,-1
 256 384 l 1,29,-1
 128 384 l 1,30,-1
 128 0 l 1,31,-1
 0 0 l 1,24,-1
EndSplineSet
Validated: 5
EndChar

StartChar: l
Encoding: 108 108 57
Width: 256
Flags: W
LayerCount: 2
Fore
SplineSet
0 0 m 1,0,-1
 0 1408 l 1,1,-1
 128 1408 l 1,2,-1
 128 0 l 1,3,-1
 0 0 l 1,0,-1
EndSplineSet
Validated: 1
EndChar

StartChar: m
Encoding: 109 109 58
Width: 768
Flags: W
LayerCount: 2
Fore
SplineSet
256 0 m 1,0,-1
 256 768 l 1,1,-1
 384 768 l 1,2,-1
 384 0 l 1,3,-1
 256 0 l 1,0,-1
512 0 m 1,4,-1
 512 768 l 1,5,-1
 640 768 l 1,6,-1
 640 0 l 1,7,-1
 512 0 l 1,4,-1
0 0 m 1,8,-1
 0 896 l 1,9,-1
 256 896 l 1,10,-1
 256 768 l 1,11,-1
 128 768 l 1,12,-1
 128 0 l 1,13,-1
 0 0 l 1,8,-1
384 768 m 1,14,-1
 384 896 l 1,15,-1
 512 896 l 1,16,-1
 512 768 l 1,17,-1
 384 768 l 1,14,-1
EndSplineSet
Validated: 5
EndChar

StartChar: n
Encoding: 110 110 59
Width: 768
Flags: W
LayerCount: 2
Fore
SplineSet
512 0 m 1,0,-1
 512 768 l 1,1,-1
 640 768 l 1,2,-1
 640 0 l 1,3,-1
 512 0 l 1,0,-1
0 0 m 1,4,-1
 0 896 l 1,5,-1
 128 896 l 1,6,-1
 128 768 l 1,7,-1
 256 768 l 1,8,-1
 256 640 l 1,9,-1
 128 640 l 1,10,-1
 128 0 l 1,11,-1
 0 0 l 1,4,-1
256 768 m 1,12,-1
 256 896 l 1,13,-1
 512 896 l 1,14,-1
 512 768 l 1,15,-1
 256 768 l 1,12,-1
EndSplineSet
Validated: 5
EndChar

StartChar: o
Encoding: 111 111 60
Width: 768
Flags: W
LayerCount: 2
Fore
SplineSet
128 0 m 1,0,-1
 128 128 l 1,1,-1
 512 128 l 1,2,-1
 512 0 l 1,3,-1
 128 0 l 1,0,-1
0 128 m 1,4,-1
 0 768 l 1,5,-1
 128 768 l 1,6,-1
 128 128 l 1,7,-1
 0 128 l 1,4,-1
512 128 m 1,8,-1
 512 768 l 1,9,-1
 640 768 l 1,10,-1
 640 128 l 1,11,-1
 512 128 l 1,8,-1
128 768 m 1,12,-1
 128 896 l 1,13,-1
 512 896 l 1,14,-1
 512 768 l 1,15,-1
 128 768 l 1,12,-1
EndSplineSet
Validated: 5
EndChar

StartChar: p
Encoding: 112 112 61
Width: 768
Flags: W
LayerCount: 2
Fore
SplineSet
256 128 m 1,0,-1
 256 256 l 1,1,-1
 512 256 l 1,2,-1
 512 128 l 1,3,-1
 256 128 l 1,0,-1
512 256 m 1,4,-1
 512 768 l 1,5,-1
 640 768 l 1,6,-1
 640 256 l 1,7,-1
 512 256 l 1,4,-1
0 -128 m 1,8,-1
 0 896 l 1,9,-1
 128 896 l 1,10,-1
 128 768 l 1,11,-1
 256 768 l 1,12,-1
 256 640 l 1,13,-1
 128 640 l 1,14,-1
 128 384 l 1,15,-1
 256 384 l 1,16,-1
 256 256 l 1,17,-1
 128 256 l 1,18,-1
 128 -128 l 1,19,-1
 0 -128 l 1,8,-1
256 768 m 1,20,-1
 256 896 l 1,21,-1
 512 896 l 1,22,-1
 512 768 l 1,23,-1
 256 768 l 1,20,-1
EndSplineSet
Validated: 5
EndChar

StartChar: q
Encoding: 113 113 62
Width: 768
Flags: W
LayerCount: 2
Fore
SplineSet
128 128 m 1,0,-1
 128 256 l 1,1,-1
 384 256 l 1,2,-1
 384 128 l 1,3,-1
 128 128 l 1,0,-1
0 256 m 1,4,-1
 0 768 l 1,5,-1
 128 768 l 1,6,-1
 128 256 l 1,7,-1
 0 256 l 1,4,-1
128 768 m 1,8,-1
 128 896 l 1,9,-1
 384 896 l 1,10,-1
 384 768 l 1,11,-1
 128 768 l 1,8,-1
512 -128 m 1,12,-1
 512 256 l 1,13,-1
 384 256 l 1,14,-1
 384 384 l 1,15,-1
 512 384 l 1,16,-1
 512 640 l 1,17,-1
 384 640 l 1,18,-1
 384 768 l 1,19,-1
 512 768 l 1,20,-1
 512 896 l 1,21,-1
 640 896 l 1,22,-1
 640 -128 l 1,23,-1
 512 -128 l 1,12,-1
EndSplineSet
Validated: 5
EndChar

StartChar: r
Encoding: 114 114 63
Width: 640
Flags: W
LayerCount: 2
Fore
SplineSet
0 0 m 1,0,-1
 0 896 l 1,1,-1
 128 896 l 1,2,-1
 128 768 l 1,3,-1
 256 768 l 1,4,-1
 256 640 l 1,5,-1
 128 640 l 1,6,-1
 128 0 l 1,7,-1
 0 0 l 1,0,-1
256 768 m 1,8,-1
 256 896 l 1,9,-1
 512 896 l 1,10,-1
 512 768 l 1,11,-1
 256 768 l 1,8,-1
EndSplineSet
Validated: 5
EndChar

StartChar: s
Encoding: 115 115 64
Width: 768
Flags: W
LayerCount: 2
Fore
SplineSet
128 0 m 1,0,-1
 128 128 l 1,1,-1
 512 128 l 1,2,-1
 512 0 l 1,3,-1
 128 0 l 1,0,-1
0 128 m 1,4,-1
 0 256 l 1,5,-1
 128 256 l 1,6,-1
 128 128 l 1,7,-1
 0 128 l 1,4,-1
512 128 m 1,8,-1
 512 384 l 1,9,-1
 640 384 l 1,10,-1
 640 128 l 1,11,-1
 512 128 l 1,8,-1
128 384 m 1,12,-1
 128 512 l 5,13,-1
 512 512 l 1,14,-1
 512 384 l 1,15,-1
 128 384 l 1,12,-1
0 512 m 5,16,-1
 0 768 l 5,17,-1
 128 768 l 5,18,-1
 128 512 l 5,19,-1
 0 512 l 5,16,-1
512 640 m 5,20,-1
 512 768 l 5,21,-1
 640 768 l 5,22,-1
 640 640 l 5,23,-1
 512 640 l 5,20,-1
128 768 m 5,24,-1
 128 896 l 5,25,-1
 512 896 l 5,26,-1
 512 768 l 5,27,-1
 128 768 l 5,24,-1
EndSplineSet
Validated: 5
EndChar

StartChar: t
Encoding: 116 116 65
Width: 640
Flags: W
LayerCount: 2
Fore
SplineSet
256 0 m 1,0,-1
 256 128 l 1,1,-1
 512 128 l 1,2,-1
 512 0 l 1,3,-1
 256 0 l 1,0,-1
128 128 m 1,4,-1
 128 768 l 1,5,-1
 0 768 l 1,6,-1
 0 896 l 1,7,-1
 128 896 l 1,8,-1
 128 1280 l 1,9,-1
 256 1280 l 1,10,-1
 256 896 l 1,11,-1
 384 896 l 1,12,-1
 384 768 l 1,13,-1
 256 768 l 1,14,-1
 256 128 l 1,15,-1
 128 128 l 1,4,-1
EndSplineSet
Validated: 5
EndChar

StartChar: u
Encoding: 117 117 66
Width: 768
Flags: W
LayerCount: 2
Fore
SplineSet
128 0 m 1,0,-1
 128 128 l 1,1,-1
 384 128 l 1,2,-1
 384 0 l 1,3,-1
 128 0 l 1,0,-1
0 128 m 1,4,-1
 0 896 l 1,5,-1
 128 896 l 1,6,-1
 128 128 l 1,7,-1
 0 128 l 1,4,-1
512 0 m 1,8,-1
 512 128 l 1,9,-1
 384 128 l 1,10,-1
 384 256 l 1,11,-1
 512 256 l 1,12,-1
 512 896 l 1,13,-1
 640 896 l 1,14,-1
 640 0 l 1,15,-1
 512 0 l 1,8,-1
EndSplineSet
Validated: 5
EndChar

StartChar: v
Encoding: 118 118 67
Width: 768
Flags: W
LayerCount: 2
Fore
SplineSet
256 0 m 1,0,-1
 256 256 l 1,1,-1
 384 256 l 1,2,-1
 384 0 l 1,3,-1
 256 0 l 1,0,-1
128 256 m 1,4,-1
 128 640 l 1,5,-1
 256 640 l 1,6,-1
 256 256 l 1,7,-1
 128 256 l 1,4,-1
384 256 m 1,8,-1
 384 640 l 1,9,-1
 512 640 l 1,10,-1
 512 256 l 1,11,-1
 384 256 l 1,8,-1
0 640 m 1,12,-1
 0 896 l 1,13,-1
 128 896 l 1,14,-1
 128 640 l 1,15,-1
 0 640 l 1,12,-1
512 640 m 1,16,-1
 512 896 l 1,17,-1
 640 896 l 1,18,-1
 640 640 l 1,19,-1
 512 640 l 1,16,-1
EndSplineSet
Validated: 5
EndChar

StartChar: w
Encoding: 119 119 68
Width: 768
Flags: W
LayerCount: 2
Fore
SplineSet
128 0 m 1,0,-1
 128 384 l 1,1,-1
 256 384 l 1,2,-1
 256 0 l 1,3,-1
 128 0 l 1,0,-1
384 0 m 1,4,-1
 384 384 l 1,5,-1
 512 384 l 1,6,-1
 512 0 l 1,7,-1
 384 0 l 1,4,-1
0 384 m 1,8,-1
 0 896 l 1,9,-1
 128 896 l 1,10,-1
 128 384 l 1,11,-1
 0 384 l 1,8,-1
256 384 m 1,12,-1
 256 896 l 1,13,-1
 384 896 l 1,14,-1
 384 384 l 1,15,-1
 256 384 l 1,12,-1
512 384 m 1,16,-1
 512 896 l 1,17,-1
 640 896 l 1,18,-1
 640 384 l 1,19,-1
 512 384 l 1,16,-1
EndSplineSet
Validated: 5
EndChar

StartChar: x
Encoding: 120 120 69
Width: 768
Flags: W
LayerCount: 2
Fore
SplineSet
0 0 m 1,0,-1
 0 128 l 1,1,-1
 128 128 l 1,2,-1
 128 0 l 1,3,-1
 0 0 l 1,0,-1
512 0 m 1,4,-1
 512 128 l 1,5,-1
 640 128 l 1,6,-1
 640 0 l 1,7,-1
 512 0 l 1,4,-1
128 128 m 1,8,-1
 128 384 l 1,9,-1
 256 384 l 1,10,-1
 256 128 l 1,11,-1
 128 128 l 1,8,-1
384 128 m 1,12,-1
 384 384 l 1,13,-1
 512 384 l 1,14,-1
 512 128 l 1,15,-1
 384 128 l 1,12,-1
256 384 m 1,16,-1
 256 512 l 1,17,-1
 384 512 l 1,18,-1
 384 384 l 1,19,-1
 256 384 l 1,16,-1
128 512 m 1,20,-1
 128 768 l 1,21,-1
 256 768 l 1,22,-1
 256 512 l 1,23,-1
 128 512 l 1,20,-1
384 512 m 1,24,-1
 384 768 l 1,25,-1
 512 768 l 1,26,-1
 512 512 l 1,27,-1
 384 512 l 1,24,-1
0 768 m 1,28,-1
 0 896 l 1,29,-1
 128 896 l 1,30,-1
 128 768 l 1,31,-1
 0 768 l 1,28,-1
512 768 m 1,32,-1
 512 896 l 1,33,-1
 640 896 l 1,34,-1
 640 768 l 1,35,-1
 512 768 l 1,32,-1
EndSplineSet
Validated: 5
EndChar

StartChar: y
Encoding: 121 121 70
Width: 768
Flags: W
LayerCount: 2
Fore
SplineSet
0 -128 m 1,0,-1
 0 0 l 1,1,-1
 128 0 l 1,2,-1
 128 -128 l 1,3,-1
 0 -128 l 1,0,-1
128 0 m 1,4,-1
 128 128 l 1,5,-1
 256 128 l 1,6,-1
 256 0 l 1,7,-1
 128 0 l 1,4,-1
256 128 m 1,8,-1
 256 384 l 1,9,-1
 384 384 l 1,10,-1
 384 128 l 1,11,-1
 256 128 l 1,8,-1
128 384 m 1,12,-1
 128 640 l 1,13,-1
 256 640 l 1,14,-1
 256 384 l 1,15,-1
 128 384 l 1,12,-1
384 384 m 1,16,-1
 384 640 l 1,17,-1
 512 640 l 1,18,-1
 512 384 l 1,19,-1
 384 384 l 1,16,-1
0 640 m 1,20,-1
 0 896 l 1,21,-1
 128 896 l 1,22,-1
 128 640 l 1,23,-1
 0 640 l 1,20,-1
512 640 m 1,24,-1
 512 896 l 1,25,-1
 640 896 l 1,26,-1
 640 640 l 1,27,-1
 512 640 l 1,24,-1
EndSplineSet
Validated: 5
EndChar

StartChar: z
Encoding: 122 122 71
Width: 768
Flags: W
LayerCount: 2
Fore
SplineSet
0 0 m 1,0,-1
 0 256 l 1,1,-1
 128 256 l 1,2,-1
 128 128 l 1,3,-1
 640 128 l 1,4,-1
 640 0 l 1,5,-1
 0 0 l 1,0,-1
128 256 m 1,6,-1
 128 384 l 1,7,-1
 256 384 l 1,8,-1
 256 256 l 1,9,-1
 128 256 l 1,6,-1
256 384 m 1,10,-1
 256 512 l 1,11,-1
 384 512 l 1,12,-1
 384 384 l 1,13,-1
 256 384 l 1,10,-1
384 512 m 1,14,-1
 384 640 l 1,15,-1
 512 640 l 1,16,-1
 512 512 l 1,17,-1
 384 512 l 1,14,-1
512 640 m 1,18,-1
 512 768 l 1,19,-1
 0 768 l 1,20,-1
 0 896 l 1,21,-1
 640 896 l 1,22,-1
 640 640 l 1,23,-1
 512 640 l 1,18,-1
EndSplineSet
Validated: 5
EndChar

StartChar: Agrave
Encoding: 192 192 72
Width: 768
Flags: W
LayerCount: 2
Fore
SplineSet
0 0 m 1,0,-1
 0 512 l 1,1,-1
 128 512 l 1,2,-1
 128 1024 l 1,3,-1
 256 1024 l 1,4,-1
 256 512 l 1,5,-1
 384 512 l 1,6,-1
 384 1024 l 1,7,-1
 512 1024 l 1,8,-1
 512 512 l 1,9,-1
 640 512 l 1,10,-1
 640 0 l 1,11,-1
 512 0 l 1,12,-1
 512 384 l 1,13,-1
 128 384 l 1,14,-1
 128 0 l 1,15,-1
 0 0 l 1,0,-1
256 1024 m 1,16,-1
 256 1280 l 1,17,-1
 384 1280 l 1,18,-1
 384 1024 l 1,19,-1
 256 1024 l 1,16,-1
256 1408 m 1,20,-1
 256 1536 l 1,21,-1
 384 1536 l 1,22,-1
 384 1408 l 1,23,-1
 256 1408 l 1,20,-1
128 1536 m 1,24,-1
 128 1664 l 1,25,-1
 256 1664 l 1,26,-1
 256 1536 l 1,27,-1
 128 1536 l 1,24,-1
EndSplineSet
Validated: 5
EndChar

StartChar: Aacute
Encoding: 193 193 73
Width: 768
Flags: W
LayerCount: 2
Fore
SplineSet
0 0 m 1,0,-1
 0 512 l 1,1,-1
 128 512 l 1,2,-1
 128 1024 l 1,3,-1
 256 1024 l 1,4,-1
 256 512 l 1,5,-1
 384 512 l 1,6,-1
 384 1024 l 1,7,-1
 512 1024 l 1,8,-1
 512 512 l 1,9,-1
 640 512 l 1,10,-1
 640 0 l 1,11,-1
 512 0 l 1,12,-1
 512 384 l 1,13,-1
 128 384 l 1,14,-1
 128 0 l 1,15,-1
 0 0 l 1,0,-1
256 1024 m 1,16,-1
 256 1280 l 1,17,-1
 384 1280 l 1,18,-1
 384 1024 l 1,19,-1
 256 1024 l 1,16,-1
256 1408 m 5,20,-1
 256 1536 l 5,21,-1
 384 1536 l 5,22,-1
 384 1408 l 5,23,-1
 256 1408 l 5,20,-1
384 1536 m 5,24,-1
 384 1664 l 5,25,-1
 512 1664 l 5,26,-1
 512 1536 l 5,27,-1
 384 1536 l 5,24,-1
EndSplineSet
Validated: 5
EndChar

StartChar: Acircumflex
Encoding: 194 194 74
Width: 768
Flags: W
LayerCount: 2
Fore
SplineSet
0 0 m 1,0,-1
 0 512 l 1,1,-1
 128 512 l 1,2,-1
 128 1024 l 1,3,-1
 256 1024 l 1,4,-1
 256 512 l 1,5,-1
 384 512 l 1,6,-1
 384 1024 l 1,7,-1
 512 1024 l 1,8,-1
 512 512 l 1,9,-1
 640 512 l 1,10,-1
 640 0 l 1,11,-1
 512 0 l 1,12,-1
 512 384 l 1,13,-1
 128 384 l 1,14,-1
 128 0 l 1,15,-1
 0 0 l 1,0,-1
256 1024 m 1,16,-1
 256 1280 l 1,17,-1
 384 1280 l 1,18,-1
 384 1024 l 1,19,-1
 256 1024 l 1,16,-1
128 1408 m 1,20,-1
 128 1536 l 1,21,-1
 256 1536 l 1,22,-1
 256 1408 l 1,23,-1
 128 1408 l 1,20,-1
384 1408 m 1,24,-1
 384 1536 l 1,25,-1
 512 1536 l 1,26,-1
 512 1408 l 1,27,-1
 384 1408 l 1,24,-1
256 1536 m 1,28,-1
 256 1664 l 1,29,-1
 384 1664 l 1,30,-1
 384 1536 l 1,31,-1
 256 1536 l 1,28,-1
EndSplineSet
Validated: 5
EndChar

StartChar: Adieresis
Encoding: 196 196 75
Width: 768
Flags: W
LayerCount: 2
Fore
SplineSet
0 0 m 1,0,-1
 0 512 l 1,1,-1
 128 512 l 1,2,-1
 128 1024 l 1,3,-1
 256 1024 l 1,4,-1
 256 512 l 1,5,-1
 384 512 l 1,6,-1
 384 1024 l 1,7,-1
 512 1024 l 1,8,-1
 512 512 l 1,9,-1
 640 512 l 1,10,-1
 640 0 l 1,11,-1
 512 0 l 1,12,-1
 512 384 l 1,13,-1
 128 384 l 1,14,-1
 128 0 l 1,15,-1
 0 0 l 1,0,-1
256 1024 m 1,16,-1
 256 1280 l 1,17,-1
 384 1280 l 1,18,-1
 384 1024 l 1,19,-1
 256 1024 l 1,16,-1
128 1408 m 1,20,-1
 128 1536 l 1,21,-1
 256 1536 l 1,22,-1
 256 1408 l 1,23,-1
 128 1408 l 1,20,-1
384 1408 m 1,24,-1
 384 1536 l 1,25,-1
 512 1536 l 1,26,-1
 512 1408 l 1,27,-1
 384 1408 l 1,24,-1
EndSplineSet
Validated: 5
EndChar

StartChar: AE
Encoding: 198 198 76
Width: 1024
Flags: W
LayerCount: 2
Fore
SplineSet
0 0 m 1,0,-1
 0 512 l 1,1,-1
 128 512 l 1,2,-1
 128 1024 l 1,3,-1
 256 1024 l 1,4,-1
 256 512 l 1,5,-1
 384 512 l 1,6,-1
 384 1024 l 1,7,-1
 512 1024 l 1,8,-1
 512 512 l 1,9,-1
 768 512 l 1,10,-1
 768 384 l 1,11,-1
 512 384 l 1,12,-1
 512 128 l 1,13,-1
 896 128 l 1,14,-1
 896 0 l 1,15,-1
 384 0 l 1,16,-1
 384 384 l 1,17,-1
 128 384 l 1,18,-1
 128 0 l 1,19,-1
 0 0 l 1,0,-1
512 1024 m 1,20,-1
 512 1152 l 1,21,-1
 896 1152 l 1,22,-1
 896 1024 l 1,23,-1
 512 1024 l 1,20,-1
256 1024 m 1,24,-1
 256 1280 l 1,25,-1
 384 1280 l 1,26,-1
 384 1024 l 1,27,-1
 256 1024 l 1,24,-1
EndSplineSet
Validated: 5
EndChar

StartChar: Ccedilla
Encoding: 199 199 77
Width: 1024
Flags: W
LayerCount: 2
Fore
SplineSet
256 -256 m 1,0,-1
 256 -128 l 1,1,-1
 512 -128 l 1,2,-1
 512 0 l 1,3,-1
 640 0 l 1,4,-1
 640 -256 l 1,5,-1
 256 -256 l 1,0,-1
384 0 m 1,6,-1
 384 128 l 1,7,-1
 256 128 l 1,8,-1
 256 256 l 1,9,-1
 640 256 l 1,10,-1
 640 128 l 1,11,-1
 512 128 l 1,12,-1
 512 0 l 1,13,-1
 384 0 l 1,6,-1
128 256 m 1,14,-1
 128 384 l 1,15,-1
 256 384 l 1,16,-1
 256 256 l 1,17,-1
 128 256 l 1,14,-1
640 256 m 1,18,-1
 640 384 l 1,19,-1
 768 384 l 1,20,-1
 768 256 l 1,21,-1
 640 256 l 1,18,-1
768 384 m 1,22,-1
 768 512 l 1,23,-1
 896 512 l 1,24,-1
 896 384 l 1,25,-1
 768 384 l 1,22,-1
0 384 m 1,26,-1
 0 1024 l 1,27,-1
 128 1024 l 1,28,-1
 128 384 l 1,29,-1
 0 384 l 1,26,-1
768 896 m 1,30,-1
 768 1024 l 1,31,-1
 896 1024 l 1,32,-1
 896 896 l 1,33,-1
 768 896 l 1,30,-1
128 1024 m 1,34,-1
 128 1152 l 1,35,-1
 256 1152 l 1,36,-1
 256 1024 l 1,37,-1
 128 1024 l 1,34,-1
640 1024 m 1,38,-1
 640 1152 l 1,39,-1
 768 1152 l 1,40,-1
 768 1024 l 1,41,-1
 640 1024 l 1,38,-1
256 1152 m 1,42,-1
 256 1280 l 1,43,-1
 640 1280 l 1,44,-1
 640 1152 l 1,45,-1
 256 1152 l 1,42,-1
EndSplineSet
Validated: 5
EndChar

StartChar: Egrave
Encoding: 200 200 78
Width: 768
Flags: W
LayerCount: 2
Fore
SplineSet
0 0 m 1,0,-1
 0 1280 l 1,1,-1
 640 1280 l 1,2,-1
 640 1152 l 1,3,-1
 128 1152 l 1,4,-1
 128 768 l 1,5,-1
 512 768 l 1,6,-1
 512 640 l 1,7,-1
 128 640 l 1,8,-1
 128 128 l 1,9,-1
 640 128 l 1,10,-1
 640 0 l 1,11,-1
 0 0 l 1,0,-1
256 1408 m 1,12,-1
 256 1536 l 1,13,-1
 384 1536 l 1,14,-1
 384 1408 l 1,15,-1
 256 1408 l 1,12,-1
128 1536 m 1,16,-1
 128 1664 l 1,17,-1
 256 1664 l 1,18,-1
 256 1536 l 1,19,-1
 128 1536 l 1,16,-1
EndSplineSet
Validated: 5
EndChar

StartChar: Eacute
Encoding: 201 201 79
Width: 768
Flags: W
LayerCount: 2
Fore
SplineSet
0 0 m 1,0,-1
 0 1280 l 1,1,-1
 640 1280 l 1,2,-1
 640 1152 l 1,3,-1
 128 1152 l 1,4,-1
 128 768 l 1,5,-1
 512 768 l 1,6,-1
 512 640 l 1,7,-1
 128 640 l 1,8,-1
 128 128 l 1,9,-1
 640 128 l 1,10,-1
 640 0 l 1,11,-1
 0 0 l 1,0,-1
256 1408 m 1,12,-1
 256 1536 l 1,13,-1
 384 1536 l 1,14,-1
 384 1408 l 1,15,-1
 256 1408 l 1,12,-1
384 1536 m 1,16,-1
 384 1664 l 1,17,-1
 512 1664 l 1,18,-1
 512 1536 l 1,19,-1
 384 1536 l 1,16,-1
EndSplineSet
Validated: 5
EndChar

StartChar: Ecircumflex
Encoding: 202 202 80
Width: 768
Flags: W
LayerCount: 2
Fore
SplineSet
0 0 m 1,0,-1
 0 1280 l 1,1,-1
 640 1280 l 1,2,-1
 640 1152 l 1,3,-1
 128 1152 l 1,4,-1
 128 768 l 1,5,-1
 512 768 l 1,6,-1
 512 640 l 1,7,-1
 128 640 l 1,8,-1
 128 128 l 1,9,-1
 640 128 l 1,10,-1
 640 0 l 1,11,-1
 0 0 l 1,0,-1
128 1408 m 1,12,-1
 128 1536 l 1,13,-1
 256 1536 l 1,14,-1
 256 1408 l 1,15,-1
 128 1408 l 1,12,-1
384 1408 m 1,16,-1
 384 1536 l 1,17,-1
 512 1536 l 1,18,-1
 512 1408 l 1,19,-1
 384 1408 l 1,16,-1
256 1536 m 1,20,-1
 256 1664 l 1,21,-1
 384 1664 l 1,22,-1
 384 1536 l 1,23,-1
 256 1536 l 1,20,-1
EndSplineSet
Validated: 5
EndChar

StartChar: Edieresis
Encoding: 203 203 81
Width: 768
Flags: W
LayerCount: 2
Fore
SplineSet
0 0 m 1,0,-1
 0 1280 l 1,1,-1
 640 1280 l 1,2,-1
 640 1152 l 1,3,-1
 128 1152 l 1,4,-1
 128 768 l 1,5,-1
 512 768 l 1,6,-1
 512 640 l 1,7,-1
 128 640 l 1,8,-1
 128 128 l 1,9,-1
 640 128 l 1,10,-1
 640 0 l 1,11,-1
 0 0 l 1,0,-1
128 1408 m 1,12,-1
 128 1536 l 1,13,-1
 256 1536 l 1,14,-1
 256 1408 l 1,15,-1
 128 1408 l 1,12,-1
384 1408 m 1,16,-1
 384 1536 l 1,17,-1
 512 1536 l 1,18,-1
 512 1408 l 1,19,-1
 384 1408 l 1,16,-1
EndSplineSet
Validated: 1
EndChar

StartChar: Igrave
Encoding: 204 204 82
Width: 512
Flags: W
LayerCount: 2
Fore
SplineSet
0 0 m 1,0,-1
 0 128 l 1,1,-1
 128 128 l 1,2,-1
 128 1152 l 1,3,-1
 0 1152 l 1,4,-1
 0 1280 l 1,5,-1
 384 1280 l 1,6,-1
 384 1152 l 1,7,-1
 256 1152 l 1,8,-1
 256 128 l 1,9,-1
 384 128 l 1,10,-1
 384 0 l 1,11,-1
 0 0 l 1,0,-1
128 1408 m 1,12,-1
 128 1536 l 1,13,-1
 256 1536 l 1,14,-1
 256 1408 l 1,15,-1
 128 1408 l 1,12,-1
0 1536 m 1,16,-1
 0 1664 l 1,17,-1
 128 1664 l 1,18,-1
 128 1536 l 1,19,-1
 0 1536 l 1,16,-1
EndSplineSet
Validated: 5
EndChar

StartChar: Iacute
Encoding: 205 205 83
Width: 512
Flags: W
LayerCount: 2
Fore
SplineSet
0 0 m 1,0,-1
 0 128 l 1,1,-1
 128 128 l 1,2,-1
 128 1280 l 1,3,-1
 0 1280 l 1,4,-1
 0 1408 l 1,5,-1
 384 1408 l 1,6,-1
 384 1280 l 1,7,-1
 256 1280 l 1,8,-1
 256 128 l 1,9,-1
 384 128 l 1,10,-1
 384 0 l 1,11,-1
 0 0 l 1,0,-1
128 1536 m 1,12,-1
 128 1664 l 1,13,-1
 256 1664 l 1,14,-1
 256 1536 l 1,15,-1
 128 1536 l 1,12,-1
256 1664 m 1,16,-1
 256 1792 l 1,17,-1
 384 1792 l 1,18,-1
 384 1664 l 1,19,-1
 256 1664 l 1,16,-1
EndSplineSet
Validated: 5
EndChar

StartChar: Icircumflex
Encoding: 206 206 84
Width: 512
Flags: W
LayerCount: 2
Fore
SplineSet
0 0 m 1,0,-1
 0 128 l 1,1,-1
 128 128 l 1,2,-1
 128 1280 l 1,3,-1
 0 1280 l 1,4,-1
 0 1408 l 1,5,-1
 384 1408 l 1,6,-1
 384 1280 l 1,7,-1
 256 1280 l 1,8,-1
 256 128 l 1,9,-1
 384 128 l 1,10,-1
 384 0 l 1,11,-1
 0 0 l 1,0,-1
0 1536 m 1,12,-1
 0 1664 l 1,13,-1
 128 1664 l 1,14,-1
 128 1536 l 1,15,-1
 0 1536 l 1,12,-1
256 1536 m 1,16,-1
 256 1664 l 1,17,-1
 384 1664 l 1,18,-1
 384 1536 l 1,19,-1
 256 1536 l 1,16,-1
128 1664 m 1,20,-1
 128 1792 l 1,21,-1
 256 1792 l 1,22,-1
 256 1664 l 1,23,-1
 128 1664 l 1,20,-1
EndSplineSet
Validated: 5
EndChar

StartChar: Idieresis
Encoding: 207 207 85
Width: 512
Flags: W
LayerCount: 2
Fore
SplineSet
0 0 m 1,0,-1
 0 128 l 1,1,-1
 128 128 l 1,2,-1
 128 1280 l 1,3,-1
 0 1280 l 1,4,-1
 0 1408 l 1,5,-1
 384 1408 l 1,6,-1
 384 1280 l 1,7,-1
 256 1280 l 1,8,-1
 256 128 l 1,9,-1
 384 128 l 1,10,-1
 384 0 l 1,11,-1
 0 0 l 1,0,-1
0 1536 m 1,12,-1
 0 1664 l 1,13,-1
 128 1664 l 1,14,-1
 128 1536 l 1,15,-1
 0 1536 l 1,12,-1
256 1536 m 1,16,-1
 256 1664 l 1,17,-1
 384 1664 l 1,18,-1
 384 1536 l 1,19,-1
 256 1536 l 1,16,-1
EndSplineSet
Validated: 1
EndChar

StartChar: Eth
Encoding: 208 208 86
Width: 768
Flags: W
LayerCount: 2
Fore
SplineSet
384 128 m 1,0,-1
 384 256 l 1,1,-1
 512 256 l 1,2,-1
 512 128 l 1,3,-1
 384 128 l 1,0,-1
512 256 m 1,4,-1
 512 1152 l 1,5,-1
 640 1152 l 1,6,-1
 640 256 l 1,7,-1
 512 256 l 1,4,-1
384 1152 m 1,8,-1
 384 1280 l 1,9,-1
 512 1280 l 1,10,-1
 512 1152 l 1,11,-1
 384 1152 l 1,8,-1
0 0 m 1,12,-1
 0 640 l 1,13,-1
 -128 640 l 1,14,-1
 -128 768 l 1,15,-1
 0 768 l 1,16,-1
 0 1408 l 1,17,-1
 384 1408 l 1,18,-1
 384 1280 l 1,19,-1
 128 1280 l 1,20,-1
 128 768 l 1,21,-1
 256 768 l 1,22,-1
 256 640 l 1,23,-1
 128 640 l 1,24,-1
 128 128 l 1,25,-1
 384 128 l 1,26,-1
 384 0 l 1,27,-1
 0 0 l 1,12,-1
EndSplineSet
Validated: 5
EndChar

StartChar: Ntilde
Encoding: 209 209 87
Width: 768
Flags: W
LayerCount: 2
Fore
SplineSet
256 512 m 1,0,-1
 256 768 l 1,1,-1
 384 768 l 1,2,-1
 384 512 l 1,3,-1
 256 512 l 1,0,-1
0 0 m 1,4,-1
 0 1280 l 1,5,-1
 128 1280 l 1,6,-1
 128 1024 l 1,7,-1
 256 1024 l 1,8,-1
 256 768 l 1,9,-1
 128 768 l 1,10,-1
 128 0 l 1,11,-1
 0 0 l 1,4,-1
512 0 m 1,12,-1
 512 256 l 1,13,-1
 384 256 l 1,14,-1
 384 512 l 1,15,-1
 512 512 l 1,16,-1
 512 1280 l 1,17,-1
 640 1280 l 1,18,-1
 640 0 l 1,19,-1
 512 0 l 1,12,-1
128 1408 m 1,20,-1
 128 1536 l 1,21,-1
 256 1536 l 1,22,-1
 256 1408 l 1,23,-1
 128 1408 l 1,20,-1
384 1408 m 1,24,-1
 384 1536 l 1,25,-1
 512 1536 l 1,26,-1
 512 1408 l 1,27,-1
 384 1408 l 1,24,-1
256 1536 m 1,28,-1
 256 1664 l 1,29,-1
 384 1664 l 1,30,-1
 384 1536 l 1,31,-1
 256 1536 l 1,28,-1
512 1536 m 1,32,-1
 512 1664 l 1,33,-1
 640 1664 l 1,34,-1
 640 1536 l 1,35,-1
 512 1536 l 1,32,-1
EndSplineSet
Validated: 5
EndChar

StartChar: Ograve
Encoding: 210 210 88
Width: 896
Flags: W
LayerCount: 2
Fore
SplineSet
256 0 m 1,0,-1
 256 128 l 1,1,-1
 512 128 l 1,2,-1
 512 0 l 1,3,-1
 256 0 l 1,0,-1
128 128 m 1,4,-1
 128 256 l 1,5,-1
 256 256 l 1,6,-1
 256 128 l 1,7,-1
 128 128 l 1,4,-1
512 128 m 1,8,-1
 512 256 l 1,9,-1
 640 256 l 1,10,-1
 640 128 l 1,11,-1
 512 128 l 1,8,-1
0 256 m 1,12,-1
 0 1024 l 1,13,-1
 128 1024 l 1,14,-1
 128 256 l 1,15,-1
 0 256 l 1,12,-1
640 256 m 1,16,-1
 640 1024 l 1,17,-1
 768 1024 l 1,18,-1
 768 256 l 1,19,-1
 640 256 l 1,16,-1
128 1024 m 1,20,-1
 128 1152 l 1,21,-1
 256 1152 l 1,22,-1
 256 1024 l 1,23,-1
 128 1024 l 1,20,-1
512 1024 m 1,24,-1
 512 1152 l 1,25,-1
 640 1152 l 1,26,-1
 640 1024 l 1,27,-1
 512 1024 l 1,24,-1
256 1152 m 1,28,-1
 256 1280 l 1,29,-1
 512 1280 l 1,30,-1
 512 1152 l 1,31,-1
 256 1152 l 1,28,-1
384 1408 m 1,32,-1
 384 1536 l 1,33,-1
 512 1536 l 1,34,-1
 512 1408 l 1,35,-1
 384 1408 l 1,32,-1
256 1536 m 1,36,-1
 256 1664 l 1,37,-1
 384 1664 l 1,38,-1
 384 1536 l 1,39,-1
 256 1536 l 1,36,-1
EndSplineSet
Validated: 5
EndChar

StartChar: Oacute
Encoding: 211 211 89
Width: 896
Flags: W
LayerCount: 2
Fore
SplineSet
256 0 m 1,0,-1
 256 128 l 1,1,-1
 512 128 l 1,2,-1
 512 0 l 1,3,-1
 256 0 l 1,0,-1
128 128 m 1,4,-1
 128 256 l 1,5,-1
 256 256 l 1,6,-1
 256 128 l 1,7,-1
 128 128 l 1,4,-1
512 128 m 1,8,-1
 512 256 l 1,9,-1
 640 256 l 1,10,-1
 640 128 l 1,11,-1
 512 128 l 1,8,-1
0 256 m 1,12,-1
 0 1024 l 1,13,-1
 128 1024 l 1,14,-1
 128 256 l 1,15,-1
 0 256 l 1,12,-1
640 256 m 1,16,-1
 640 1024 l 1,17,-1
 768 1024 l 1,18,-1
 768 256 l 1,19,-1
 640 256 l 1,16,-1
128 1024 m 1,20,-1
 128 1152 l 1,21,-1
 256 1152 l 1,22,-1
 256 1024 l 1,23,-1
 128 1024 l 1,20,-1
512 1024 m 1,24,-1
 512 1152 l 1,25,-1
 640 1152 l 1,26,-1
 640 1024 l 1,27,-1
 512 1024 l 1,24,-1
256 1152 m 1,28,-1
 256 1280 l 1,29,-1
 512 1280 l 1,30,-1
 512 1152 l 1,31,-1
 256 1152 l 1,28,-1
256 1408 m 1,32,-1
 256 1536 l 1,33,-1
 384 1536 l 1,34,-1
 384 1408 l 1,35,-1
 256 1408 l 1,32,-1
384 1536 m 1,36,-1
 384 1664 l 1,37,-1
 512 1664 l 1,38,-1
 512 1536 l 1,39,-1
 384 1536 l 1,36,-1
EndSplineSet
Validated: 5
EndChar

StartChar: Ocircumflex
Encoding: 212 212 90
Width: 896
Flags: W
LayerCount: 2
Fore
SplineSet
256 0 m 1,0,-1
 256 128 l 1,1,-1
 512 128 l 1,2,-1
 512 0 l 1,3,-1
 256 0 l 1,0,-1
128 128 m 1,4,-1
 128 256 l 1,5,-1
 256 256 l 1,6,-1
 256 128 l 1,7,-1
 128 128 l 1,4,-1
512 128 m 1,8,-1
 512 256 l 1,9,-1
 640 256 l 1,10,-1
 640 128 l 1,11,-1
 512 128 l 1,8,-1
0 256 m 1,12,-1
 0 1024 l 1,13,-1
 128 1024 l 1,14,-1
 128 256 l 1,15,-1
 0 256 l 1,12,-1
640 256 m 1,16,-1
 640 1024 l 1,17,-1
 768 1024 l 1,18,-1
 768 256 l 1,19,-1
 640 256 l 1,16,-1
128 1024 m 1,20,-1
 128 1152 l 1,21,-1
 256 1152 l 1,22,-1
 256 1024 l 1,23,-1
 128 1024 l 1,20,-1
512 1024 m 1,24,-1
 512 1152 l 1,25,-1
 640 1152 l 1,26,-1
 640 1024 l 1,27,-1
 512 1024 l 1,24,-1
256 1152 m 1,28,-1
 256 1280 l 1,29,-1
 512 1280 l 1,30,-1
 512 1152 l 1,31,-1
 256 1152 l 1,28,-1
128 1408 m 1,32,-1
 128 1536 l 1,33,-1
 256 1536 l 1,34,-1
 256 1408 l 1,35,-1
 128 1408 l 1,32,-1
512 1408 m 1,36,-1
 512 1536 l 1,37,-1
 640 1536 l 1,38,-1
 640 1408 l 1,39,-1
 512 1408 l 1,36,-1
256 1536 m 1,40,-1
 256 1664 l 1,41,-1
 512 1664 l 1,42,-1
 512 1536 l 1,43,-1
 256 1536 l 1,40,-1
EndSplineSet
Validated: 5
EndChar

StartChar: Odieresis
Encoding: 214 214 91
Width: 896
Flags: W
LayerCount: 2
Fore
SplineSet
256 0 m 1,0,-1
 256 128 l 1,1,-1
 512 128 l 1,2,-1
 512 0 l 1,3,-1
 256 0 l 1,0,-1
128 128 m 1,4,-1
 128 256 l 1,5,-1
 256 256 l 1,6,-1
 256 128 l 1,7,-1
 128 128 l 1,4,-1
512 128 m 1,8,-1
 512 256 l 1,9,-1
 640 256 l 1,10,-1
 640 128 l 1,11,-1
 512 128 l 1,8,-1
0 256 m 1,12,-1
 0 1024 l 1,13,-1
 128 1024 l 1,14,-1
 128 256 l 1,15,-1
 0 256 l 1,12,-1
640 256 m 1,16,-1
 640 1024 l 1,17,-1
 768 1024 l 1,18,-1
 768 256 l 1,19,-1
 640 256 l 1,16,-1
128 1024 m 1,20,-1
 128 1152 l 1,21,-1
 256 1152 l 1,22,-1
 256 1024 l 1,23,-1
 128 1024 l 1,20,-1
512 1024 m 1,24,-1
 512 1152 l 1,25,-1
 640 1152 l 1,26,-1
 640 1024 l 1,27,-1
 512 1024 l 1,24,-1
256 1152 m 1,28,-1
 256 1280 l 1,29,-1
 512 1280 l 1,30,-1
 512 1152 l 1,31,-1
 256 1152 l 1,28,-1
128 1408 m 1,32,-1
 128 1536 l 1,33,-1
 256 1536 l 1,34,-1
 256 1408 l 1,35,-1
 128 1408 l 1,32,-1
512 1408 m 1,36,-1
 512 1536 l 1,37,-1
 640 1536 l 1,38,-1
 640 1408 l 1,39,-1
 512 1408 l 1,36,-1
EndSplineSet
Validated: 5
EndChar

StartChar: Ugrave
Encoding: 217 217 92
Width: 768
Flags: W
LayerCount: 2
Fore
SplineSet
128 0 m 1,0,-1
 128 128 l 1,1,-1
 512 128 l 1,2,-1
 512 0 l 1,3,-1
 128 0 l 1,0,-1
0 128 m 1,4,-1
 0 1280 l 1,5,-1
 128 1280 l 1,6,-1
 128 128 l 1,7,-1
 0 128 l 1,4,-1
512 128 m 1,8,-1
 512 1280 l 1,9,-1
 640 1280 l 1,10,-1
 640 128 l 1,11,-1
 512 128 l 1,8,-1
256 1408 m 1,12,-1
 256 1536 l 1,13,-1
 384 1536 l 1,14,-1
 384 1408 l 1,15,-1
 256 1408 l 1,12,-1
128 1536 m 1,16,-1
 128 1664 l 1,17,-1
 256 1664 l 1,18,-1
 256 1536 l 1,19,-1
 128 1536 l 1,16,-1
EndSplineSet
Validated: 5
EndChar

StartChar: Uacute
Encoding: 218 218 93
Width: 768
Flags: W
LayerCount: 2
Fore
SplineSet
128 0 m 1,0,-1
 128 128 l 1,1,-1
 512 128 l 1,2,-1
 512 0 l 1,3,-1
 128 0 l 1,0,-1
0 128 m 1,4,-1
 0 1280 l 1,5,-1
 128 1280 l 1,6,-1
 128 128 l 1,7,-1
 0 128 l 1,4,-1
512 128 m 1,8,-1
 512 1280 l 1,9,-1
 640 1280 l 1,10,-1
 640 128 l 1,11,-1
 512 128 l 1,8,-1
256 1408 m 1,12,-1
 256 1536 l 1,13,-1
 384 1536 l 1,14,-1
 384 1408 l 1,15,-1
 256 1408 l 1,12,-1
384 1536 m 1,16,-1
 384 1664 l 1,17,-1
 512 1664 l 1,18,-1
 512 1536 l 1,19,-1
 384 1536 l 1,16,-1
EndSplineSet
Validated: 5
EndChar

StartChar: Ucircumflex
Encoding: 219 219 94
Width: 768
Flags: W
LayerCount: 2
Fore
SplineSet
128 0 m 1,0,-1
 128 128 l 1,1,-1
 512 128 l 1,2,-1
 512 0 l 1,3,-1
 128 0 l 1,0,-1
0 128 m 1,4,-1
 0 1280 l 1,5,-1
 128 1280 l 1,6,-1
 128 128 l 1,7,-1
 0 128 l 1,4,-1
512 128 m 1,8,-1
 512 1280 l 1,9,-1
 640 1280 l 1,10,-1
 640 128 l 1,11,-1
 512 128 l 1,8,-1
128 1408 m 1,12,-1
 128 1536 l 1,13,-1
 256 1536 l 1,14,-1
 256 1408 l 1,15,-1
 128 1408 l 1,12,-1
384 1408 m 1,16,-1
 384 1536 l 1,17,-1
 512 1536 l 1,18,-1
 512 1408 l 1,19,-1
 384 1408 l 1,16,-1
256 1536 m 1,20,-1
 256 1664 l 1,21,-1
 384 1664 l 1,22,-1
 384 1536 l 1,23,-1
 256 1536 l 1,20,-1
EndSplineSet
Validated: 5
EndChar

StartChar: Udieresis
Encoding: 220 220 95
Width: 768
Flags: W
LayerCount: 2
Fore
SplineSet
128 0 m 1,0,-1
 128 128 l 1,1,-1
 512 128 l 1,2,-1
 512 0 l 1,3,-1
 128 0 l 1,0,-1
0 128 m 1,4,-1
 0 1280 l 1,5,-1
 128 1280 l 1,6,-1
 128 128 l 1,7,-1
 0 128 l 1,4,-1
512 128 m 1,8,-1
 512 1280 l 1,9,-1
 640 1280 l 1,10,-1
 640 128 l 1,11,-1
 512 128 l 1,8,-1
128 1408 m 1,12,-1
 128 1536 l 1,13,-1
 256 1536 l 1,14,-1
 256 1408 l 1,15,-1
 128 1408 l 1,12,-1
384 1408 m 1,16,-1
 384 1536 l 1,17,-1
 512 1536 l 1,18,-1
 512 1408 l 1,19,-1
 384 1408 l 1,16,-1
EndSplineSet
Validated: 5
EndChar

StartChar: germandbls
Encoding: 223 223 96
Width: 896
Flags: W
LayerCount: 2
Fore
SplineSet
256 128 m 1,0,-1
 256 256 l 1,1,-1
 640 256 l 1,2,-1
 640 128 l 1,3,-1
 256 128 l 1,0,-1
640 256 m 1,4,-1
 640 768 l 1,5,-1
 768 768 l 1,6,-1
 768 256 l 1,7,-1
 640 256 l 1,4,-1
512 768 m 1,8,-1
 512 896 l 1,9,-1
 640 896 l 1,10,-1
 640 768 l 1,11,-1
 512 768 l 1,8,-1
256 896 m 1,12,-1
 256 1024 l 1,13,-1
 512 1024 l 1,14,-1
 512 896 l 1,15,-1
 256 896 l 1,12,-1
512 1024 m 1,16,-1
 512 1408 l 1,17,-1
 640 1408 l 1,18,-1
 640 1024 l 1,19,-1
 512 1024 l 1,16,-1
0 0 m 1,20,-1
 0 1536 l 1,21,-1
 128 1536 l 1,22,-1
 128 0 l 1,23,-1
 0 0 l 1,20,-1
384 1408 m 1,24,-1
 384 1536 l 1,25,-1
 512 1536 l 1,26,-1
 512 1408 l 1,27,-1
 384 1408 l 1,24,-1
128 1536 m 1,28,-1
 128 1664 l 1,29,-1
 384 1664 l 1,30,-1
 384 1536 l 1,31,-1
 128 1536 l 1,28,-1
EndSplineSet
Validated: 5
EndChar

StartChar: agrave
Encoding: 224 224 97
Width: 896
Flags: W
LayerCount: 2
Fore
SplineSet
128 0 m 1,0,-1
 128 128 l 1,1,-1
 512 128 l 1,2,-1
 512 0 l 1,3,-1
 128 0 l 1,0,-1
640 0 m 1,4,-1
 640 128 l 1,5,-1
 768 128 l 1,6,-1
 768 0 l 1,7,-1
 640 0 l 1,4,-1
0 128 m 1,8,-1
 0 384 l 1,9,-1
 128 384 l 1,10,-1
 128 128 l 1,11,-1
 0 128 l 1,8,-1
0 640 m 1,12,-1
 0 768 l 1,13,-1
 128 768 l 1,14,-1
 128 640 l 1,15,-1
 0 640 l 1,12,-1
512 128 m 1,16,-1
 512 384 l 1,17,-1
 128 384 l 1,18,-1
 128 512 l 1,19,-1
 512 512 l 1,20,-1
 512 768 l 1,21,-1
 640 768 l 1,22,-1
 640 128 l 1,23,-1
 512 128 l 1,16,-1
128 768 m 1,24,-1
 128 896 l 1,25,-1
 512 896 l 1,26,-1
 512 768 l 1,27,-1
 128 768 l 1,24,-1
256 1024 m 1,28,-1
 256 1152 l 1,29,-1
 384 1152 l 1,30,-1
 384 1024 l 1,31,-1
 256 1024 l 1,28,-1
128 1152 m 1,32,-1
 128 1280 l 1,33,-1
 256 1280 l 1,34,-1
 256 1152 l 1,35,-1
 128 1152 l 1,32,-1
EndSplineSet
Validated: 5
EndChar

StartChar: aacute
Encoding: 225 225 98
Width: 896
Flags: W
LayerCount: 2
Fore
SplineSet
128 0 m 1,0,-1
 128 128 l 1,1,-1
 512 128 l 1,2,-1
 512 0 l 1,3,-1
 128 0 l 1,0,-1
640 0 m 1,4,-1
 640 128 l 1,5,-1
 768 128 l 1,6,-1
 768 0 l 1,7,-1
 640 0 l 1,4,-1
0 128 m 1,8,-1
 0 384 l 1,9,-1
 128 384 l 1,10,-1
 128 128 l 1,11,-1
 0 128 l 1,8,-1
0 640 m 1,12,-1
 0 768 l 1,13,-1
 128 768 l 1,14,-1
 128 640 l 1,15,-1
 0 640 l 1,12,-1
512 128 m 1,16,-1
 512 384 l 1,17,-1
 128 384 l 1,18,-1
 128 512 l 1,19,-1
 512 512 l 1,20,-1
 512 768 l 1,21,-1
 640 768 l 1,22,-1
 640 128 l 1,23,-1
 512 128 l 1,16,-1
128 768 m 1,24,-1
 128 896 l 1,25,-1
 512 896 l 1,26,-1
 512 768 l 1,27,-1
 128 768 l 1,24,-1
256 1024 m 1,28,-1
 256 1152 l 1,29,-1
 384 1152 l 1,30,-1
 384 1024 l 1,31,-1
 256 1024 l 1,28,-1
384 1152 m 1,32,-1
 384 1280 l 1,33,-1
 512 1280 l 1,34,-1
 512 1152 l 1,35,-1
 384 1152 l 1,32,-1
EndSplineSet
Validated: 5
EndChar

StartChar: acircumflex
Encoding: 226 226 99
Width: 896
Flags: W
LayerCount: 2
Fore
SplineSet
128 0 m 1,0,-1
 128 128 l 1,1,-1
 512 128 l 1,2,-1
 512 0 l 1,3,-1
 128 0 l 1,0,-1
640 0 m 1,4,-1
 640 128 l 1,5,-1
 768 128 l 1,6,-1
 768 0 l 1,7,-1
 640 0 l 1,4,-1
0 128 m 1,8,-1
 0 384 l 1,9,-1
 128 384 l 1,10,-1
 128 128 l 1,11,-1
 0 128 l 1,8,-1
0 640 m 1,12,-1
 0 768 l 1,13,-1
 128 768 l 1,14,-1
 128 640 l 1,15,-1
 0 640 l 1,12,-1
512 128 m 1,16,-1
 512 384 l 1,17,-1
 128 384 l 1,18,-1
 128 512 l 1,19,-1
 512 512 l 1,20,-1
 512 768 l 1,21,-1
 640 768 l 1,22,-1
 640 128 l 1,23,-1
 512 128 l 1,16,-1
128 768 m 1,24,-1
 128 896 l 1,25,-1
 512 896 l 1,26,-1
 512 768 l 1,27,-1
 128 768 l 1,24,-1
128 1024 m 1,28,-1
 128 1152 l 1,29,-1
 256 1152 l 1,30,-1
 256 1024 l 1,31,-1
 128 1024 l 1,28,-1
384 1024 m 1,32,-1
 384 1152 l 1,33,-1
 512 1152 l 1,34,-1
 512 1024 l 1,35,-1
 384 1024 l 1,32,-1
256 1152 m 1,36,-1
 256 1280 l 1,37,-1
 384 1280 l 1,38,-1
 384 1152 l 1,39,-1
 256 1152 l 1,36,-1
EndSplineSet
Validated: 5
EndChar

StartChar: adieresis
Encoding: 228 228 100
Width: 896
Flags: W
LayerCount: 2
Fore
SplineSet
128 0 m 1,0,-1
 128 128 l 1,1,-1
 512 128 l 1,2,-1
 512 0 l 1,3,-1
 128 0 l 1,0,-1
640 0 m 1,4,-1
 640 128 l 1,5,-1
 768 128 l 1,6,-1
 768 0 l 1,7,-1
 640 0 l 1,4,-1
0 128 m 1,8,-1
 0 384 l 1,9,-1
 128 384 l 1,10,-1
 128 128 l 1,11,-1
 0 128 l 1,8,-1
0 640 m 1,12,-1
 0 768 l 1,13,-1
 128 768 l 1,14,-1
 128 640 l 1,15,-1
 0 640 l 1,12,-1
512 128 m 1,16,-1
 512 384 l 1,17,-1
 128 384 l 1,18,-1
 128 512 l 1,19,-1
 512 512 l 1,20,-1
 512 768 l 1,21,-1
 640 768 l 1,22,-1
 640 128 l 1,23,-1
 512 128 l 1,16,-1
128 768 m 1,24,-1
 128 896 l 1,25,-1
 512 896 l 1,26,-1
 512 768 l 1,27,-1
 128 768 l 1,24,-1
128 1024 m 1,28,-1
 128 1152 l 1,29,-1
 256 1152 l 1,30,-1
 256 1024 l 1,31,-1
 128 1024 l 1,28,-1
384 1024 m 1,32,-1
 384 1152 l 1,33,-1
 512 1152 l 1,34,-1
 512 1024 l 1,35,-1
 384 1024 l 1,32,-1
EndSplineSet
Validated: 5
EndChar

StartChar: ae
Encoding: 230 230 101
Width: 1024
Flags: W
LayerCount: 2
Fore
SplineSet
128 0 m 1,0,-1
 128 128 l 1,1,-1
 384 128 l 1,2,-1
 384 0 l 1,3,-1
 128 0 l 1,0,-1
512 0 m 1,4,-1
 512 128 l 1,5,-1
 768 128 l 1,6,-1
 768 0 l 1,7,-1
 512 0 l 1,4,-1
768 128 m 1,8,-1
 768 256 l 1,9,-1
 896 256 l 1,10,-1
 896 128 l 1,11,-1
 768 128 l 1,8,-1
0 128 m 1,12,-1
 0 384 l 1,13,-1
 128 384 l 1,14,-1
 128 128 l 1,15,-1
 0 128 l 1,12,-1
0 640 m 1,16,-1
 0 768 l 1,17,-1
 128 768 l 1,18,-1
 128 640 l 1,19,-1
 0 640 l 1,16,-1
384 128 m 1,20,-1
 384 384 l 1,21,-1
 128 384 l 1,22,-1
 128 512 l 1,23,-1
 384 512 l 1,24,-1
 384 768 l 1,25,-1
 512 768 l 1,26,-1
 512 512 l 1,27,-1
 768 512 l 1,28,-1
 768 768 l 1,29,-1
 896 768 l 1,30,-1
 896 384 l 1,31,-1
 512 384 l 1,32,-1
 512 128 l 1,33,-1
 384 128 l 1,20,-1
128 768 m 1,34,-1
 128 896 l 1,35,-1
 384 896 l 1,36,-1
 384 768 l 1,37,-1
 128 768 l 1,34,-1
512 768 m 1,38,-1
 512 896 l 1,39,-1
 768 896 l 1,40,-1
 768 768 l 1,41,-1
 512 768 l 1,38,-1
EndSplineSet
Validated: 5
EndChar

StartChar: ccedilla
Encoding: 231 231 102
Width: 768
Flags: W
LayerCount: 2
Fore
SplineSet
256 -256 m 1,0,-1
 256 -128 l 1,1,-1
 384 -128 l 1,2,-1
 384 0 l 1,3,-1
 512 0 l 1,4,-1
 512 -256 l 1,5,-1
 256 -256 l 1,0,-1
256 0 m 1,6,-1
 256 128 l 1,7,-1
 128 128 l 1,8,-1
 128 256 l 1,9,-1
 512 256 l 1,10,-1
 512 128 l 1,11,-1
 384 128 l 1,12,-1
 384 0 l 1,13,-1
 256 0 l 1,6,-1
512 256 m 1,14,-1
 512 384 l 1,15,-1
 640 384 l 1,16,-1
 640 256 l 1,17,-1
 512 256 l 1,14,-1
0 256 m 1,18,-1
 0 896 l 1,19,-1
 128 896 l 1,20,-1
 128 256 l 1,21,-1
 0 256 l 1,18,-1
512 768 m 1,22,-1
 512 896 l 1,23,-1
 640 896 l 1,24,-1
 640 768 l 1,25,-1
 512 768 l 1,22,-1
128 896 m 1,26,-1
 128 1024 l 1,27,-1
 512 1024 l 1,28,-1
 512 896 l 1,29,-1
 128 896 l 1,26,-1
EndSplineSet
Validated: 5
EndChar

StartChar: egrave
Encoding: 232 232 103
Width: 768
Flags: W
LayerCount: 2
Fore
SplineSet
128 0 m 1,0,-1
 128 128 l 1,1,-1
 512 128 l 1,2,-1
 512 0 l 1,3,-1
 128 0 l 1,0,-1
512 128 m 1,4,-1
 512 256 l 1,5,-1
 640 256 l 1,6,-1
 640 128 l 1,7,-1
 512 128 l 1,4,-1
0 128 m 1,8,-1
 0 768 l 1,9,-1
 128 768 l 1,10,-1
 128 512 l 1,11,-1
 512 512 l 1,12,-1
 512 768 l 1,13,-1
 640 768 l 1,14,-1
 640 384 l 1,15,-1
 128 384 l 1,16,-1
 128 128 l 1,17,-1
 0 128 l 1,8,-1
128 768 m 1,18,-1
 128 896 l 1,19,-1
 512 896 l 1,20,-1
 512 768 l 1,21,-1
 128 768 l 1,18,-1
256 1024 m 1,22,-1
 256 1152 l 1,23,-1
 384 1152 l 1,24,-1
 384 1024 l 1,25,-1
 256 1024 l 1,22,-1
128 1152 m 1,26,-1
 128 1280 l 1,27,-1
 256 1280 l 1,28,-1
 256 1152 l 1,29,-1
 128 1152 l 1,26,-1
EndSplineSet
Validated: 5
EndChar

StartChar: eacute
Encoding: 233 233 104
Width: 768
Flags: W
LayerCount: 2
Fore
SplineSet
128 0 m 1,0,-1
 128 128 l 1,1,-1
 512 128 l 1,2,-1
 512 0 l 1,3,-1
 128 0 l 1,0,-1
512 128 m 1,4,-1
 512 256 l 1,5,-1
 640 256 l 1,6,-1
 640 128 l 1,7,-1
 512 128 l 1,4,-1
0 128 m 1,8,-1
 0 768 l 1,9,-1
 128 768 l 1,10,-1
 128 512 l 1,11,-1
 512 512 l 1,12,-1
 512 768 l 1,13,-1
 640 768 l 1,14,-1
 640 384 l 1,15,-1
 128 384 l 1,16,-1
 128 128 l 1,17,-1
 0 128 l 1,8,-1
128 768 m 1,18,-1
 128 896 l 1,19,-1
 512 896 l 1,20,-1
 512 768 l 1,21,-1
 128 768 l 1,18,-1
256 1024 m 1,22,-1
 256 1152 l 1,23,-1
 384 1152 l 1,24,-1
 384 1024 l 1,25,-1
 256 1024 l 1,22,-1
384 1152 m 1,26,-1
 384 1280 l 1,27,-1
 512 1280 l 1,28,-1
 512 1152 l 1,29,-1
 384 1152 l 1,26,-1
EndSplineSet
Validated: 5
EndChar

StartChar: ecircumflex
Encoding: 234 234 105
Width: 768
Flags: W
LayerCount: 2
Fore
SplineSet
128 0 m 1,0,-1
 128 128 l 1,1,-1
 512 128 l 1,2,-1
 512 0 l 1,3,-1
 128 0 l 1,0,-1
512 128 m 1,4,-1
 512 256 l 1,5,-1
 640 256 l 1,6,-1
 640 128 l 1,7,-1
 512 128 l 1,4,-1
0 128 m 1,8,-1
 0 768 l 1,9,-1
 128 768 l 1,10,-1
 128 512 l 1,11,-1
 512 512 l 1,12,-1
 512 768 l 1,13,-1
 640 768 l 1,14,-1
 640 384 l 1,15,-1
 128 384 l 1,16,-1
 128 128 l 1,17,-1
 0 128 l 1,8,-1
128 768 m 1,18,-1
 128 896 l 1,19,-1
 512 896 l 1,20,-1
 512 768 l 1,21,-1
 128 768 l 1,18,-1
128 1024 m 1,22,-1
 128 1152 l 1,23,-1
 256 1152 l 1,24,-1
 256 1024 l 1,25,-1
 128 1024 l 1,22,-1
384 1024 m 1,26,-1
 384 1152 l 1,27,-1
 512 1152 l 1,28,-1
 512 1024 l 1,29,-1
 384 1024 l 1,26,-1
256 1152 m 1,30,-1
 256 1280 l 1,31,-1
 384 1280 l 1,32,-1
 384 1152 l 1,33,-1
 256 1152 l 1,30,-1
EndSplineSet
Validated: 5
EndChar

StartChar: edieresis
Encoding: 235 235 106
Width: 768
Flags: W
LayerCount: 2
Fore
SplineSet
128 0 m 1,0,-1
 128 128 l 1,1,-1
 512 128 l 1,2,-1
 512 0 l 1,3,-1
 128 0 l 1,0,-1
512 128 m 1,4,-1
 512 256 l 1,5,-1
 640 256 l 1,6,-1
 640 128 l 1,7,-1
 512 128 l 1,4,-1
0 128 m 1,8,-1
 0 768 l 1,9,-1
 128 768 l 1,10,-1
 128 512 l 1,11,-1
 512 512 l 1,12,-1
 512 768 l 1,13,-1
 640 768 l 1,14,-1
 640 384 l 1,15,-1
 128 384 l 1,16,-1
 128 128 l 1,17,-1
 0 128 l 1,8,-1
128 768 m 1,18,-1
 128 896 l 1,19,-1
 512 896 l 1,20,-1
 512 768 l 1,21,-1
 128 768 l 1,18,-1
128 1024 m 1,22,-1
 128 1152 l 1,23,-1
 256 1152 l 1,24,-1
 256 1024 l 1,25,-1
 128 1024 l 1,22,-1
384 1024 m 1,26,-1
 384 1152 l 1,27,-1
 512 1152 l 1,28,-1
 512 1024 l 1,29,-1
 384 1024 l 1,26,-1
EndSplineSet
Validated: 5
EndChar

StartChar: igrave
Encoding: 236 236 107
Width: 384
Flags: W
LayerCount: 2
Fore
SplineSet
128 0 m 1,0,-1
 128 896 l 1,1,-1
 256 896 l 1,2,-1
 256 0 l 1,3,-1
 128 0 l 1,0,-1
128 1024 m 1,4,-1
 128 1152 l 1,5,-1
 256 1152 l 1,6,-1
 256 1024 l 1,7,-1
 128 1024 l 1,4,-1
0 1152 m 1,8,-1
 0 1280 l 1,9,-1
 128 1280 l 1,10,-1
 128 1152 l 1,11,-1
 0 1152 l 1,8,-1
EndSplineSet
Validated: 5
EndChar

StartChar: iacute
Encoding: 237 237 108
Width: 384
Flags: W
LayerCount: 2
Fore
SplineSet
0 0 m 1,0,-1
 0 896 l 1,1,-1
 128 896 l 1,2,-1
 128 0 l 1,3,-1
 0 0 l 1,0,-1
0 1024 m 1,4,-1
 0 1152 l 1,5,-1
 128 1152 l 1,6,-1
 128 1024 l 1,7,-1
 0 1024 l 1,4,-1
128 1152 m 1,8,-1
 128 1280 l 1,9,-1
 256 1280 l 1,10,-1
 256 1152 l 1,11,-1
 128 1152 l 1,8,-1
EndSplineSet
Validated: 5
EndChar

StartChar: icircumflex
Encoding: 238 238 109
Width: 512
Flags: W
LayerCount: 2
Fore
SplineSet
128 0 m 1,0,-1
 128 896 l 1,1,-1
 256 896 l 1,2,-1
 256 0 l 1,3,-1
 128 0 l 1,0,-1
0 1024 m 1,4,-1
 0 1152 l 1,5,-1
 128 1152 l 1,6,-1
 128 1024 l 1,7,-1
 0 1024 l 1,4,-1
256 1024 m 1,8,-1
 256 1152 l 1,9,-1
 384 1152 l 1,10,-1
 384 1024 l 1,11,-1
 256 1024 l 1,8,-1
128 1152 m 1,12,-1
 128 1280 l 1,13,-1
 256 1280 l 1,14,-1
 256 1152 l 1,15,-1
 128 1152 l 1,12,-1
EndSplineSet
Validated: 5
EndChar

StartChar: idieresis
Encoding: 239 239 110
Width: 512
Flags: W
LayerCount: 2
Fore
SplineSet
128 0 m 1,0,-1
 128 896 l 1,1,-1
 256 896 l 1,2,-1
 256 0 l 1,3,-1
 128 0 l 1,0,-1
0 1024 m 1,4,-1
 0 1152 l 1,5,-1
 128 1152 l 1,6,-1
 128 1024 l 1,7,-1
 0 1024 l 1,4,-1
256 1024 m 1,8,-1
 256 1152 l 1,9,-1
 384 1152 l 1,10,-1
 384 1024 l 1,11,-1
 256 1024 l 1,8,-1
EndSplineSet
Validated: 1
EndChar

StartChar: eth
Encoding: 240 240 111
Width: 768
Flags: W
LayerCount: 2
Fore
SplineSet
128 0 m 1,0,-1
 128 128 l 1,1,-1
 512 128 l 1,2,-1
 512 0 l 1,3,-1
 128 0 l 1,0,-1
0 128 m 1,4,-1
 0 640 l 1,5,-1
 128 640 l 1,6,-1
 128 128 l 1,7,-1
 0 128 l 1,4,-1
512 128 m 1,8,-1
 512 640 l 1,9,-1
 128 640 l 1,10,-1
 128 768 l 1,11,-1
 512 768 l 1,12,-1
 512 896 l 1,13,-1
 640 896 l 1,14,-1
 640 128 l 1,15,-1
 512 128 l 1,8,-1
128 896 m 1,16,-1
 128 1024 l 1,17,-1
 256 1024 l 1,18,-1
 256 896 l 1,19,-1
 128 896 l 1,16,-1
384 896 m 1,20,-1
 384 1024 l 1,21,-1
 512 1024 l 1,22,-1
 512 896 l 1,23,-1
 384 896 l 1,20,-1
256 1024 m 1,24,-1
 256 1152 l 1,25,-1
 384 1152 l 1,26,-1
 384 1024 l 1,27,-1
 256 1024 l 1,24,-1
128 1152 m 1,28,-1
 128 1280 l 1,29,-1
 256 1280 l 1,30,-1
 256 1152 l 1,31,-1
 128 1152 l 1,28,-1
384 1152 m 1,32,-1
 384 1280 l 1,33,-1
 512 1280 l 1,34,-1
 512 1152 l 1,35,-1
 384 1152 l 1,32,-1
EndSplineSet
Validated: 5
EndChar

StartChar: ntilde
Encoding: 241 241 112
Width: 768
Flags: W
LayerCount: 2
Fore
SplineSet
512 0 m 1,0,-1
 512 768 l 1,1,-1
 640 768 l 1,2,-1
 640 0 l 1,3,-1
 512 0 l 1,0,-1
0 0 m 1,4,-1
 0 896 l 1,5,-1
 128 896 l 1,6,-1
 128 768 l 1,7,-1
 256 768 l 1,8,-1
 256 640 l 1,9,-1
 128 640 l 1,10,-1
 128 0 l 1,11,-1
 0 0 l 1,4,-1
256 768 m 1,12,-1
 256 896 l 1,13,-1
 512 896 l 1,14,-1
 512 768 l 1,15,-1
 256 768 l 1,12,-1
128 1024 m 1,16,-1
 128 1152 l 1,17,-1
 256 1152 l 1,18,-1
 256 1024 l 1,19,-1
 128 1024 l 1,16,-1
384 1024 m 1,20,-1
 384 1152 l 1,21,-1
 512 1152 l 1,22,-1
 512 1024 l 1,23,-1
 384 1024 l 1,20,-1
256 1152 m 1,24,-1
 256 1280 l 1,25,-1
 384 1280 l 1,26,-1
 384 1152 l 1,27,-1
 256 1152 l 1,24,-1
512 1152 m 1,28,-1
 512 1280 l 1,29,-1
 640 1280 l 1,30,-1
 640 1152 l 1,31,-1
 512 1152 l 1,28,-1
EndSplineSet
Validated: 5
EndChar

StartChar: ograve
Encoding: 242 242 113
Width: 768
Flags: W
LayerCount: 2
Fore
SplineSet
128 0 m 1,0,-1
 128 128 l 1,1,-1
 512 128 l 1,2,-1
 512 0 l 1,3,-1
 128 0 l 1,0,-1
0 128 m 1,4,-1
 0 768 l 1,5,-1
 128 768 l 1,6,-1
 128 128 l 1,7,-1
 0 128 l 1,4,-1
512 128 m 1,8,-1
 512 768 l 1,9,-1
 640 768 l 1,10,-1
 640 128 l 1,11,-1
 512 128 l 1,8,-1
128 768 m 1,12,-1
 128 896 l 1,13,-1
 512 896 l 1,14,-1
 512 768 l 1,15,-1
 128 768 l 1,12,-1
256 1024 m 1,16,-1
 256 1152 l 1,17,-1
 384 1152 l 1,18,-1
 384 1024 l 1,19,-1
 256 1024 l 1,16,-1
128 1152 m 1,20,-1
 128 1280 l 1,21,-1
 256 1280 l 1,22,-1
 256 1152 l 1,23,-1
 128 1152 l 1,20,-1
EndSplineSet
Validated: 5
EndChar

StartChar: oacute
Encoding: 243 243 114
Width: 768
Flags: W
LayerCount: 2
Fore
SplineSet
128 0 m 1,0,-1
 128 128 l 1,1,-1
 512 128 l 1,2,-1
 512 0 l 1,3,-1
 128 0 l 1,0,-1
0 128 m 1,4,-1
 0 768 l 1,5,-1
 128 768 l 1,6,-1
 128 128 l 1,7,-1
 0 128 l 1,4,-1
512 128 m 1,8,-1
 512 768 l 1,9,-1
 640 768 l 1,10,-1
 640 128 l 1,11,-1
 512 128 l 1,8,-1
128 768 m 1,12,-1
 128 896 l 1,13,-1
 512 896 l 1,14,-1
 512 768 l 1,15,-1
 128 768 l 1,12,-1
256 1024 m 5,16,-1
 256 1152 l 5,17,-1
 384 1152 l 5,18,-1
 384 1024 l 5,19,-1
 256 1024 l 5,16,-1
384 1152 m 5,20,-1
 384 1280 l 5,21,-1
 512 1280 l 5,22,-1
 512 1152 l 5,23,-1
 384 1152 l 5,20,-1
EndSplineSet
Validated: 5
EndChar

StartChar: ocircumflex
Encoding: 244 244 115
Width: 768
Flags: W
LayerCount: 2
Fore
SplineSet
128 0 m 1,0,-1
 128 128 l 1,1,-1
 512 128 l 1,2,-1
 512 0 l 1,3,-1
 128 0 l 1,0,-1
0 128 m 1,4,-1
 0 768 l 1,5,-1
 128 768 l 1,6,-1
 128 128 l 1,7,-1
 0 128 l 1,4,-1
512 128 m 1,8,-1
 512 768 l 1,9,-1
 640 768 l 1,10,-1
 640 128 l 1,11,-1
 512 128 l 1,8,-1
128 768 m 1,12,-1
 128 896 l 1,13,-1
 512 896 l 1,14,-1
 512 768 l 1,15,-1
 128 768 l 1,12,-1
128 1024 m 1,16,-1
 128 1152 l 1,17,-1
 256 1152 l 1,18,-1
 256 1024 l 1,19,-1
 128 1024 l 1,16,-1
384 1024 m 1,20,-1
 384 1152 l 1,21,-1
 512 1152 l 1,22,-1
 512 1024 l 1,23,-1
 384 1024 l 1,20,-1
256 1152 m 1,24,-1
 256 1280 l 1,25,-1
 384 1280 l 1,26,-1
 384 1152 l 1,27,-1
 256 1152 l 1,24,-1
EndSplineSet
Validated: 5
EndChar

StartChar: odieresis
Encoding: 246 246 116
Width: 768
Flags: W
LayerCount: 2
Fore
SplineSet
128 0 m 1,0,-1
 128 128 l 1,1,-1
 512 128 l 1,2,-1
 512 0 l 1,3,-1
 128 0 l 1,0,-1
0 128 m 1,4,-1
 0 768 l 1,5,-1
 128 768 l 1,6,-1
 128 128 l 1,7,-1
 0 128 l 1,4,-1
512 128 m 1,8,-1
 512 768 l 1,9,-1
 640 768 l 1,10,-1
 640 128 l 1,11,-1
 512 128 l 1,8,-1
128 768 m 1,12,-1
 128 896 l 1,13,-1
 512 896 l 1,14,-1
 512 768 l 1,15,-1
 128 768 l 1,12,-1
128 1024 m 5,16,-1
 128 1152 l 5,17,-1
 256 1152 l 5,18,-1
 256 1024 l 5,19,-1
 128 1024 l 5,16,-1
384 1024 m 5,20,-1
 384 1152 l 5,21,-1
 512 1152 l 5,22,-1
 512 1024 l 5,23,-1
 384 1024 l 5,20,-1
EndSplineSet
Validated: 5
EndChar

StartChar: ugrave
Encoding: 249 249 117
Width: 768
Flags: W
LayerCount: 2
Fore
SplineSet
128 0 m 1,0,-1
 128 128 l 1,1,-1
 384 128 l 1,2,-1
 384 0 l 1,3,-1
 128 0 l 1,0,-1
0 128 m 1,4,-1
 0 896 l 1,5,-1
 128 896 l 1,6,-1
 128 128 l 1,7,-1
 0 128 l 1,4,-1
512 0 m 1,8,-1
 512 128 l 1,9,-1
 384 128 l 1,10,-1
 384 256 l 1,11,-1
 512 256 l 1,12,-1
 512 896 l 1,13,-1
 640 896 l 1,14,-1
 640 0 l 1,15,-1
 512 0 l 1,8,-1
256 1024 m 1,16,-1
 256 1152 l 1,17,-1
 384 1152 l 1,18,-1
 384 1024 l 1,19,-1
 256 1024 l 1,16,-1
128 1152 m 1,20,-1
 128 1280 l 1,21,-1
 256 1280 l 1,22,-1
 256 1152 l 1,23,-1
 128 1152 l 1,20,-1
EndSplineSet
Validated: 5
EndChar

StartChar: uacute
Encoding: 250 250 118
Width: 768
Flags: W
LayerCount: 2
Fore
SplineSet
128 0 m 1,0,-1
 128 128 l 1,1,-1
 384 128 l 1,2,-1
 384 0 l 1,3,-1
 128 0 l 1,0,-1
0 128 m 1,4,-1
 0 896 l 1,5,-1
 128 896 l 1,6,-1
 128 128 l 1,7,-1
 0 128 l 1,4,-1
512 0 m 1,8,-1
 512 128 l 1,9,-1
 384 128 l 1,10,-1
 384 256 l 1,11,-1
 512 256 l 1,12,-1
 512 896 l 1,13,-1
 640 896 l 1,14,-1
 640 0 l 1,15,-1
 512 0 l 1,8,-1
256 1024 m 1,16,-1
 256 1152 l 1,17,-1
 384 1152 l 1,18,-1
 384 1024 l 1,19,-1
 256 1024 l 1,16,-1
384 1152 m 1,20,-1
 384 1280 l 1,21,-1
 512 1280 l 1,22,-1
 512 1152 l 1,23,-1
 384 1152 l 1,20,-1
EndSplineSet
Validated: 5
EndChar

StartChar: ucircumflex
Encoding: 251 251 119
Width: 768
Flags: W
LayerCount: 2
Fore
SplineSet
128 0 m 1,0,-1
 128 128 l 1,1,-1
 384 128 l 1,2,-1
 384 0 l 1,3,-1
 128 0 l 1,0,-1
0 128 m 1,4,-1
 0 896 l 1,5,-1
 128 896 l 1,6,-1
 128 128 l 1,7,-1
 0 128 l 1,4,-1
512 0 m 1,8,-1
 512 128 l 1,9,-1
 384 128 l 1,10,-1
 384 256 l 1,11,-1
 512 256 l 1,12,-1
 512 896 l 1,13,-1
 640 896 l 1,14,-1
 640 0 l 1,15,-1
 512 0 l 1,8,-1
128 1024 m 1,16,-1
 128 1152 l 1,17,-1
 256 1152 l 1,18,-1
 256 1024 l 1,19,-1
 128 1024 l 1,16,-1
384 1024 m 1,20,-1
 384 1152 l 1,21,-1
 512 1152 l 1,22,-1
 512 1024 l 1,23,-1
 384 1024 l 1,20,-1
256 1152 m 1,24,-1
 256 1280 l 1,25,-1
 384 1280 l 1,26,-1
 384 1152 l 1,27,-1
 256 1152 l 1,24,-1
EndSplineSet
Validated: 5
EndChar

StartChar: udieresis
Encoding: 252 252 120
Width: 768
Flags: W
LayerCount: 2
Fore
SplineSet
128 0 m 1,0,-1
 128 128 l 1,1,-1
 384 128 l 1,2,-1
 384 0 l 1,3,-1
 128 0 l 1,0,-1
0 128 m 1,4,-1
 0 896 l 1,5,-1
 128 896 l 1,6,-1
 128 128 l 1,7,-1
 0 128 l 1,4,-1
512 0 m 1,8,-1
 512 128 l 1,9,-1
 384 128 l 1,10,-1
 384 256 l 1,11,-1
 512 256 l 1,12,-1
 512 896 l 1,13,-1
 640 896 l 1,14,-1
 640 0 l 1,15,-1
 512 0 l 1,8,-1
128 1024 m 1,16,-1
 128 1152 l 1,17,-1
 256 1152 l 1,18,-1
 256 1024 l 1,19,-1
 128 1024 l 1,16,-1
384 1024 m 1,20,-1
 384 1152 l 1,21,-1
 512 1152 l 1,22,-1
 512 1024 l 1,23,-1
 384 1024 l 1,20,-1
EndSplineSet
Validated: 5
EndChar

StartChar: OE
Encoding: 338 338 121
Width: 1024
Flags: W
LayerCount: 2
Fore
SplineSet
128 0 m 1,0,-1
 128 128 l 1,1,-1
 384 128 l 1,2,-1
 384 0 l 1,3,-1
 128 0 l 1,0,-1
512 0 m 1,4,-1
 512 128 l 1,5,-1
 896 128 l 1,6,-1
 896 0 l 1,7,-1
 512 0 l 1,4,-1
0 128 m 1,8,-1
 0 1152 l 1,9,-1
 128 1152 l 1,10,-1
 128 128 l 1,11,-1
 0 128 l 1,8,-1
384 128 m 1,12,-1
 384 1152 l 1,13,-1
 512 1152 l 1,14,-1
 512 640 l 1,15,-1
 768 640 l 1,16,-1
 768 512 l 1,17,-1
 512 512 l 1,18,-1
 512 128 l 1,19,-1
 384 128 l 1,12,-1
128 1152 m 1,20,-1
 128 1280 l 1,21,-1
 384 1280 l 1,22,-1
 384 1152 l 1,23,-1
 128 1152 l 1,20,-1
512 1152 m 1,24,-1
 512 1280 l 1,25,-1
 896 1280 l 1,26,-1
 896 1152 l 1,27,-1
 512 1152 l 1,24,-1
EndSplineSet
Validated: 5
EndChar

StartChar: oe
Encoding: 339 339 122
Width: 1024
Flags: W
LayerCount: 2
Fore
SplineSet
128 0 m 1,0,-1
 128 128 l 1,1,-1
 384 128 l 1,2,-1
 384 0 l 1,3,-1
 128 0 l 1,0,-1
512 0 m 1,4,-1
 512 128 l 1,5,-1
 768 128 l 1,6,-1
 768 0 l 1,7,-1
 512 0 l 1,4,-1
768 128 m 1,8,-1
 768 256 l 1,9,-1
 896 256 l 1,10,-1
 896 128 l 1,11,-1
 768 128 l 1,8,-1
0 128 m 1,12,-1
 0 768 l 1,13,-1
 128 768 l 1,14,-1
 128 128 l 1,15,-1
 0 128 l 1,12,-1
384 128 m 1,16,-1
 384 768 l 1,17,-1
 512 768 l 1,18,-1
 512 512 l 1,19,-1
 768 512 l 1,20,-1
 768 768 l 1,21,-1
 896 768 l 1,22,-1
 896 384 l 1,23,-1
 512 384 l 1,24,-1
 512 128 l 1,25,-1
 384 128 l 1,16,-1
128 768 m 1,26,-1
 128 896 l 1,27,-1
 384 896 l 1,28,-1
 384 768 l 1,29,-1
 128 768 l 1,26,-1
512 768 m 1,30,-1
 512 896 l 1,31,-1
 768 896 l 1,32,-1
 768 768 l 1,33,-1
 512 768 l 1,30,-1
EndSplineSet
Validated: 5
EndChar

StartChar: quoteleft
Encoding: 8216 8216 123
Width: 384
Flags: W
LayerCount: 2
Fore
SplineSet
0 1024 m 1,0,-1
 0 1152 l 1,1,-1
 128 1152 l 1,2,-1
 128 1024 l 1,3,-1
 0 1024 l 1,0,-1
128 1152 m 1,4,-1
 128 1280 l 1,5,-1
 0 1280 l 1,6,-1
 0 1536 l 1,7,-1
 256 1536 l 1,8,-1
 256 1152 l 1,9,-1
 128 1152 l 1,4,-1
EndSplineSet
Validated: 5
EndChar

StartChar: quoteright
Encoding: 8217 8217 124
Width: 384
Flags: W
LayerCount: 2
Fore
SplineSet
0 1024 m 1,0,-1
 0 1152 l 1,1,-1
 128 1152 l 1,2,-1
 128 1024 l 1,3,-1
 0 1024 l 1,0,-1
128 1152 m 1,4,-1
 128 1280 l 1,5,-1
 0 1280 l 1,6,-1
 0 1536 l 1,7,-1
 256 1536 l 1,8,-1
 256 1152 l 1,9,-1
 128 1152 l 1,4,-1
EndSplineSet
Validated: 5
EndChar

StartChar: quotedblleft
Encoding: 8220 8220 125
Width: 768
Flags: W
LayerCount: 2
Fore
SplineSet
0 1024 m 1,0,-1
 0 1152 l 1,1,-1
 128 1152 l 1,2,-1
 128 1024 l 1,3,-1
 0 1024 l 1,0,-1
384 1024 m 1,4,-1
 384 1152 l 1,5,-1
 512 1152 l 1,6,-1
 512 1024 l 1,7,-1
 384 1024 l 1,4,-1
128 1152 m 1,8,-1
 128 1280 l 1,9,-1
 0 1280 l 1,10,-1
 0 1536 l 1,11,-1
 256 1536 l 1,12,-1
 256 1152 l 1,13,-1
 128 1152 l 1,8,-1
512 1152 m 1,14,-1
 512 1280 l 1,15,-1
 384 1280 l 1,16,-1
 384 1536 l 1,17,-1
 640 1536 l 1,18,-1
 640 1152 l 1,19,-1
 512 1152 l 1,14,-1
EndSplineSet
Validated: 5
EndChar

StartChar: quotedblright
Encoding: 8221 8221 126
Width: 768
Flags: W
LayerCount: 2
Fore
SplineSet
0 1024 m 1,0,-1
 0 1152 l 1,1,-1
 128 1152 l 1,2,-1
 128 1024 l 1,3,-1
 0 1024 l 1,0,-1
384 1024 m 1,4,-1
 384 1152 l 1,5,-1
 512 1152 l 1,6,-1
 512 1024 l 1,7,-1
 384 1024 l 1,4,-1
128 1152 m 1,8,-1
 128 1280 l 1,9,-1
 0 1280 l 1,10,-1
 0 1536 l 1,11,-1
 256 1536 l 1,12,-1
 256 1152 l 1,13,-1
 128 1152 l 1,8,-1
512 1152 m 1,14,-1
 512 1280 l 1,15,-1
 384 1280 l 1,16,-1
 384 1536 l 1,17,-1
 640 1536 l 1,18,-1
 640 1152 l 1,19,-1
 512 1152 l 1,14,-1
EndSplineSet
Validated: 5
EndChar

StartChar: Atilde
Encoding: 195 195 127
Width: 768
Flags: W
LayerCount: 2
Fore
SplineSet
384 1408 m 5,0,-1
 384 1536 l 5,1,-1
 512 1536 l 5,2,-1
 512 1408 l 5,3,-1
 384 1408 l 5,0,-1
256 1536 m 5,4,-1
 256 1664 l 5,5,-1
 384 1664 l 5,6,-1
 384 1536 l 5,7,-1
 256 1536 l 5,4,-1
0 0 m 1,8,-1
 0 512 l 1,9,-1
 128 512 l 1,10,-1
 128 1024 l 1,11,-1
 256 1024 l 1,12,-1
 256 512 l 1,13,-1
 384 512 l 1,14,-1
 384 1024 l 1,15,-1
 512 1024 l 1,16,-1
 512 512 l 1,17,-1
 640 512 l 1,18,-1
 640 0 l 1,19,-1
 512 0 l 1,20,-1
 512 384 l 1,21,-1
 128 384 l 1,22,-1
 128 0 l 1,23,-1
 0 0 l 1,8,-1
256 1024 m 1,24,-1
 256 1280 l 1,25,-1
 384 1280 l 1,26,-1
 384 1024 l 1,27,-1
 256 1024 l 1,24,-1
128 1408 m 5,28,-1
 128 1536 l 5,29,-1
 256 1536 l 5,30,-1
 256 1408 l 5,31,-1
 128 1408 l 5,28,-1
0 1536 m 5,32,-1
 0 1664 l 5,33,-1
 128 1664 l 5,34,-1
 128 1536 l 5,35,-1
 0 1536 l 5,32,-1
EndSplineSet
Validated: 5
EndChar

StartChar: Aring
Encoding: 197 197 128
Width: 768
Flags: W
LayerCount: 2
Fore
SplineSet
256 1408 m 1,0,-1
 256 1536 l 1,1,-1
 384 1536 l 1,2,-1
 384 1408 l 1,3,-1
 256 1408 l 1,0,-1
256 1664 m 1,4,-1
 256 1792 l 1,5,-1
 384 1792 l 1,6,-1
 384 1664 l 1,7,-1
 256 1664 l 1,4,-1
0 0 m 1,8,-1
 0 512 l 1,9,-1
 128 512 l 1,10,-1
 128 1024 l 1,11,-1
 256 1024 l 1,12,-1
 256 512 l 1,13,-1
 384 512 l 1,14,-1
 384 1024 l 1,15,-1
 512 1024 l 1,16,-1
 512 512 l 1,17,-1
 640 512 l 1,18,-1
 640 0 l 1,19,-1
 512 0 l 1,20,-1
 512 384 l 1,21,-1
 128 384 l 1,22,-1
 128 0 l 1,23,-1
 0 0 l 1,8,-1
256 1024 m 1,24,-1
 256 1280 l 1,25,-1
 384 1280 l 1,26,-1
 384 1024 l 1,27,-1
 256 1024 l 1,24,-1
128 1536 m 1,28,-1
 128 1664 l 1,29,-1
 256 1664 l 1,30,-1
 256 1536 l 1,31,-1
 128 1536 l 1,28,-1
384 1536 m 1,32,-1
 384 1664 l 1,33,-1
 512 1664 l 1,34,-1
 512 1536 l 1,35,-1
 384 1536 l 1,32,-1
EndSplineSet
Validated: 5
EndChar

StartChar: Otilde
Encoding: 213 213 129
Width: 896
Flags: W
LayerCount: 2
Fore
SplineSet
384 1536 m 1025,0,-1
512 1408 m 1,1,-1
 512 1536 l 1,2,-1
 640 1536 l 1,3,-1
 640 1408 l 1,4,-1
 512 1408 l 1,1,-1
384 1536 m 1,5,-1
 384 1664 l 1,6,-1
 512 1664 l 1,7,-1
 512 1536 l 1,8,-1
 384 1536 l 1,5,-1
256 0 m 1,9,-1
 256 128 l 1,10,-1
 512 128 l 1,11,-1
 512 0 l 1,12,-1
 256 0 l 1,9,-1
128 128 m 1,13,-1
 128 256 l 1,14,-1
 256 256 l 1,15,-1
 256 128 l 1,16,-1
 128 128 l 1,13,-1
512 128 m 1,17,-1
 512 256 l 1,18,-1
 640 256 l 1,19,-1
 640 128 l 1,20,-1
 512 128 l 1,17,-1
0 256 m 1,21,-1
 0 1024 l 1,22,-1
 128 1024 l 1,23,-1
 128 256 l 1,24,-1
 0 256 l 1,21,-1
640 256 m 1,25,-1
 640 1024 l 1,26,-1
 768 1024 l 1,27,-1
 768 256 l 1,28,-1
 640 256 l 1,25,-1
128 1024 m 1,29,-1
 128 1152 l 1,30,-1
 256 1152 l 1,31,-1
 256 1024 l 1,32,-1
 128 1024 l 1,29,-1
512 1024 m 1,33,-1
 512 1152 l 1,34,-1
 640 1152 l 1,35,-1
 640 1024 l 1,36,-1
 512 1024 l 1,33,-1
256 1152 m 1,37,-1
 256 1280 l 1,38,-1
 512 1280 l 1,39,-1
 512 1152 l 1,40,-1
 256 1152 l 1,37,-1
128 1536 m 1025,41,-1
256 1408 m 1,42,-1
 256 1536 l 1,43,-1
 384 1536 l 1,44,-1
 384 1408 l 1,45,-1
 256 1408 l 1,42,-1
128 1536 m 1,46,-1
 128 1664 l 1,47,-1
 256 1664 l 1,48,-1
 256 1536 l 1,49,-1
 128 1536 l 1,46,-1
EndSplineSet
Validated: 5
EndChar

StartChar: Oslash
Encoding: 216 216 130
Width: 896
Flags: W
LayerCount: 2
Fore
SplineSet
0 128 m 1,0,-1
 128 128 l 1,1,-1
 128 0 l 1,2,-1
 0 0 l 1,3,-1
 0 128 l 1,0,-1
640 1408 m 1,4,-1
 768 1408 l 1,5,-1
 768 1280 l 1,6,-1
 640 1280 l 1,7,-1
 640 1408 l 1,4,-1
512 640 m 1025,8,-1
384 640 m 1,9,-1
 384 1024 l 1,10,-1
 512 1024 l 1,11,-1
 512 640 l 1,12,-1
 384 640 l 1,9,-1
384 1024 m 1025,13,-1
384 384 m 1025,14,-1
256 384 m 1,15,-1
 256 640 l 1,16,-1
 384 640 l 1,17,-1
 384 384 l 1,18,-1
 256 384 l 1,15,-1
256 640 m 1025,19,-1
256 0 m 1,20,-1
 256 128 l 1,21,-1
 512 128 l 1,22,-1
 512 0 l 1,23,-1
 256 0 l 1,20,-1
128 128 m 1,24,-1
 128 256 l 1,25,-1
 128 384 l 1,26,-1
 256 384 l 1,27,-1
 256 128 l 1,28,-1
 128 128 l 1,24,-1
512 128 m 1,29,-1
 512 256 l 1,30,-1
 640 256 l 1,31,-1
 640 128 l 1,32,-1
 512 128 l 1,29,-1
0 256 m 1,33,-1
 0 1152 l 1,34,-1
 128 1152 l 1,35,-1
 128 256 l 1,36,-1
 0 256 l 1,33,-1
640 256 m 1,37,-1
 640 1152 l 1,38,-1
 768 1152 l 1,39,-1
 768 256 l 1,40,-1
 640 256 l 1,37,-1
128 1152 m 1,41,-1
 128 1280 l 1,42,-1
 256 1280 l 1,43,-1
 256 1152 l 1,44,-1
 128 1152 l 1,41,-1
512 1024 m 1,45,-1
 512 1280 l 1,46,-1
 640 1280 l 1,47,-1
 640 1152 l 1,48,-1
 640 1024 l 1,49,-1
 512 1024 l 1,45,-1
256 1280 m 1,50,-1
 256 1408 l 1,51,-1
 512 1408 l 1,52,-1
 512 1280 l 1,53,-1
 256 1280 l 1,50,-1
EndSplineSet
Validated: 2053
EndChar

StartChar: Yacute
Encoding: 221 221 131
Width: 768
Flags: W
LayerCount: 2
Fore
SplineSet
256 1408 m 5,0,-1
 256 1536 l 5,1,-1
 384 1536 l 5,2,-1
 384 1408 l 5,3,-1
 256 1408 l 5,0,-1
384 1536 m 5,4,-1
 384 1664 l 5,5,-1
 512 1664 l 5,6,-1
 512 1536 l 5,7,-1
 384 1536 l 5,4,-1
256 0 m 1,8,-1
 256 768 l 1,9,-1
 384 768 l 1,10,-1
 384 0 l 1,11,-1
 256 0 l 1,8,-1
128 768 m 1,12,-1
 128 1024 l 1,13,-1
 256 1024 l 1,14,-1
 256 768 l 1,15,-1
 128 768 l 1,12,-1
384 768 m 1,16,-1
 384 1024 l 1,17,-1
 512 1024 l 1,18,-1
 512 768 l 1,19,-1
 384 768 l 1,16,-1
0 1024 m 1,20,-1
 0 1408 l 1,21,-1
 128 1408 l 1,22,-1
 128 1024 l 1,23,-1
 0 1024 l 1,20,-1
512 1024 m 1,24,-1
 512 1408 l 1,25,-1
 640 1408 l 1,26,-1
 640 1024 l 1,27,-1
 512 1024 l 1,24,-1
EndSplineSet
Validated: 5
EndChar

StartChar: atilde
Encoding: 227 227 132
Width: 896
Flags: W
LayerCount: 2
Fore
SplineSet
512 1280 m 1,0,-1
 640 1280 l 1,1,-1
 640 1152 l 1,2,-1
 512 1152 l 1,3,-1
 512 1280 l 1,0,-1
128 0 m 1,4,-1
 128 128 l 1,5,-1
 512 128 l 1,6,-1
 512 0 l 1,7,-1
 128 0 l 1,4,-1
640 0 m 1,8,-1
 640 128 l 1,9,-1
 768 128 l 1,10,-1
 768 0 l 1,11,-1
 640 0 l 1,8,-1
0 128 m 1,12,-1
 0 384 l 1,13,-1
 128 384 l 1,14,-1
 128 128 l 1,15,-1
 0 128 l 1,12,-1
0 640 m 1,16,-1
 0 768 l 1,17,-1
 128 768 l 1,18,-1
 128 640 l 1,19,-1
 0 640 l 1,16,-1
512 128 m 1,20,-1
 512 384 l 1,21,-1
 128 384 l 1,22,-1
 128 512 l 1,23,-1
 512 512 l 1,24,-1
 512 768 l 1,25,-1
 640 768 l 1,26,-1
 640 128 l 1,27,-1
 512 128 l 1,20,-1
128 768 m 1,28,-1
 128 896 l 1,29,-1
 512 896 l 1,30,-1
 512 768 l 1,31,-1
 128 768 l 1,28,-1
128 1024 m 1,32,-1
 128 1152 l 1,33,-1
 256 1152 l 1,34,-1
 256 1024 l 1,35,-1
 128 1024 l 1,32,-1
384 1024 m 1,36,-1
 384 1152 l 1,37,-1
 512 1152 l 1,38,-1
 512 1024 l 1,39,-1
 384 1024 l 1,36,-1
256 1152 m 1,40,-1
 256 1280 l 1,41,-1
 384 1280 l 1,42,-1
 384 1152 l 1,43,-1
 256 1152 l 1,40,-1
EndSplineSet
Validated: 5
EndChar

StartChar: aring
Encoding: 229 229 133
Width: 896
Flags: W
LayerCount: 2
Fore
SplineSet
256 1152 m 5,0,-1
 384 1152 l 5,1,-1
 384 1024 l 5,2,-1
 256 1024 l 5,3,-1
 256 1152 l 5,0,-1
256 1408 m 5,4,-1
 384 1408 l 5,5,-1
 384 1280 l 5,6,-1
 256 1280 l 5,7,-1
 256 1408 l 5,4,-1
128 0 m 1,8,-1
 128 128 l 1,9,-1
 512 128 l 1,10,-1
 512 0 l 1,11,-1
 128 0 l 1,8,-1
640 0 m 1,12,-1
 640 128 l 1,13,-1
 768 128 l 1,14,-1
 768 0 l 1,15,-1
 640 0 l 1,12,-1
0 128 m 1,16,-1
 0 384 l 1,17,-1
 128 384 l 1,18,-1
 128 128 l 1,19,-1
 0 128 l 1,16,-1
0 640 m 1,20,-1
 0 768 l 1,21,-1
 128 768 l 1,22,-1
 128 640 l 1,23,-1
 0 640 l 1,20,-1
512 128 m 1,24,-1
 512 384 l 1,25,-1
 128 384 l 1,26,-1
 128 512 l 1,27,-1
 512 512 l 1,28,-1
 512 768 l 1,29,-1
 640 768 l 1,30,-1
 640 128 l 1,31,-1
 512 128 l 1,24,-1
128 768 m 1,32,-1
 128 896 l 1,33,-1
 512 896 l 1,34,-1
 512 768 l 1,35,-1
 128 768 l 1,32,-1
128 1152 m 5,36,-1
 128 1280 l 5,37,-1
 256 1280 l 5,38,-1
 256 1152 l 5,39,-1
 128 1152 l 5,36,-1
384 1152 m 5,40,-1
 384 1280 l 5,41,-1
 512 1280 l 5,42,-1
 512 1152 l 5,43,-1
 384 1152 l 5,40,-1
EndSplineSet
Validated: 5
EndChar

StartChar: otilde
Encoding: 245 245 134
Width: 768
Flags: W
LayerCount: 2
Fore
SplineSet
512 1280 m 1,0,-1
 640 1280 l 1,1,-1
 640 1152 l 1,2,-1
 512 1152 l 1,3,-1
 512 1280 l 1,0,-1
128 0 m 1,4,-1
 128 128 l 1,5,-1
 512 128 l 1,6,-1
 512 0 l 1,7,-1
 128 0 l 1,4,-1
0 128 m 1,8,-1
 0 768 l 1,9,-1
 128 768 l 1,10,-1
 128 128 l 1,11,-1
 0 128 l 1,8,-1
512 128 m 1,12,-1
 512 768 l 1,13,-1
 640 768 l 1,14,-1
 640 128 l 1,15,-1
 512 128 l 1,12,-1
128 768 m 1,16,-1
 128 896 l 1,17,-1
 512 896 l 1,18,-1
 512 768 l 1,19,-1
 128 768 l 1,16,-1
128 1024 m 1,20,-1
 128 1152 l 1,21,-1
 256 1152 l 1,22,-1
 256 1024 l 1,23,-1
 128 1024 l 1,20,-1
384 1024 m 1,24,-1
 384 1152 l 1,25,-1
 512 1152 l 1,26,-1
 512 1024 l 1,27,-1
 384 1024 l 1,24,-1
256 1152 m 1,28,-1
 256 1280 l 1,29,-1
 384 1280 l 1,30,-1
 384 1152 l 1,31,-1
 256 1152 l 1,28,-1
EndSplineSet
Validated: 5
EndChar

StartChar: Dcroat
Encoding: 272 272 135
Width: 768
Flags: W
LayerCount: 2
Fore
SplineSet
384 128 m 1,0,-1
 384 256 l 1,1,-1
 512 256 l 1,2,-1
 512 128 l 1,3,-1
 384 128 l 1,0,-1
512 256 m 1,4,-1
 512 1152 l 1,5,-1
 640 1152 l 1,6,-1
 640 256 l 1,7,-1
 512 256 l 1,4,-1
384 1152 m 1,8,-1
 384 1280 l 1,9,-1
 512 1280 l 1,10,-1
 512 1152 l 1,11,-1
 384 1152 l 1,8,-1
0 0 m 1,12,-1
 0 640 l 1,13,-1
 -128 640 l 1,14,-1
 -128 768 l 1,15,-1
 0 768 l 1,16,-1
 0 1408 l 1,17,-1
 384 1408 l 1,18,-1
 384 1280 l 1,19,-1
 128 1280 l 1,20,-1
 128 768 l 1,21,-1
 256 768 l 1,22,-1
 256 640 l 1,23,-1
 128 640 l 1,24,-1
 128 128 l 1,25,-1
 384 128 l 1,26,-1
 384 0 l 1,27,-1
 0 0 l 1,12,-1
EndSplineSet
Validated: 5
EndChar

StartChar: yacute
Encoding: 253 253 136
Width: 768
Flags: W
LayerCount: 2
Fore
SplineSet
256 896 m 1,0,-1
 256 1024 l 1,1,-1
 384 1024 l 1,2,-1
 384 896 l 5,3,-1
 256 896 l 1,0,-1
384 1024 m 1,4,-1
 384 1152 l 1,5,-1
 512 1152 l 1,6,-1
 512 1024 l 1,7,-1
 384 1024 l 1,4,-1
0 -128 m 1,8,-1
 0 0 l 1,9,-1
 128 0 l 1,10,-1
 128 -128 l 1,11,-1
 0 -128 l 1,8,-1
128 0 m 1,12,-1
 128 128 l 1,13,-1
 256 128 l 1,14,-1
 256 0 l 1,15,-1
 128 0 l 1,12,-1
256 128 m 1,16,-1
 256 384 l 1,17,-1
 384 384 l 1,18,-1
 384 128 l 1,19,-1
 256 128 l 1,16,-1
128 384 m 1,20,-1
 128 640 l 1,21,-1
 256 640 l 1,22,-1
 256 384 l 1,23,-1
 128 384 l 1,20,-1
384 384 m 1,24,-1
 384 640 l 1,25,-1
 512 640 l 1,26,-1
 512 384 l 1,27,-1
 384 384 l 1,24,-1
0 640 m 1,28,-1
 0 896 l 1,29,-1
 128 896 l 1,30,-1
 128 640 l 1,31,-1
 0 640 l 1,28,-1
512 640 m 1,32,-1
 512 896 l 1,33,-1
 640 896 l 1,34,-1
 640 640 l 1,35,-1
 512 640 l 1,32,-1
EndSplineSet
Validated: 5
EndChar

StartChar: ydieresis
Encoding: 255 255 137
Width: 768
Flags: W
LayerCount: 2
Fore
SplineSet
128 1024 m 5,0,-1
 128 1152 l 5,1,-1
 256 1152 l 5,2,-1
 256 1024 l 5,3,-1
 128 1024 l 5,0,-1
384 1024 m 5,4,-1
 384 1152 l 5,5,-1
 512 1152 l 5,6,-1
 512 1024 l 5,7,-1
 384 1024 l 5,4,-1
0 -128 m 1,8,-1
 0 0 l 1,9,-1
 128 0 l 1,10,-1
 128 -128 l 1,11,-1
 0 -128 l 1,8,-1
128 0 m 1,12,-1
 128 128 l 1,13,-1
 256 128 l 1,14,-1
 256 0 l 1,15,-1
 128 0 l 1,12,-1
256 128 m 1,16,-1
 256 384 l 1,17,-1
 384 384 l 1,18,-1
 384 128 l 1,19,-1
 256 128 l 1,16,-1
128 384 m 1,20,-1
 128 640 l 1,21,-1
 256 640 l 1,22,-1
 256 384 l 1,23,-1
 128 384 l 1,20,-1
384 384 m 1,24,-1
 384 640 l 1,25,-1
 512 640 l 1,26,-1
 512 384 l 1,27,-1
 384 384 l 1,24,-1
0 640 m 1,28,-1
 0 896 l 1,29,-1
 128 896 l 1,30,-1
 128 640 l 1,31,-1
 0 640 l 1,28,-1
512 640 m 1,32,-1
 512 896 l 1,33,-1
 640 896 l 1,34,-1
 640 640 l 1,35,-1
 512 640 l 1,32,-1
EndSplineSet
Validated: 5
EndChar

StartChar: oslash
Encoding: 248 248 138
Width: 896
Flags: W
LayerCount: 2
Fore
SplineSet
768 896 m 1,0,-1
 896 896 l 1,1,-1
 896 768 l 1,2,-1
 768 768 l 1,3,-1
 768 896 l 1,0,-1
512 640 m 1,4,-1
 640 640 l 1,5,-1
 640 512 l 1,6,-1
 512 512 l 1,7,-1
 512 640 l 1,4,-1
256 384 m 1,8,-1
 384 384 l 1,9,-1
 384 256 l 1,10,-1
 256 256 l 1,11,-1
 256 384 l 1,8,-1
384 512 m 1,12,-1
 512 512 l 1,13,-1
 512 384 l 1,14,-1
 384 384 l 1,15,-1
 384 512 l 1,12,-1
0 128 m 1,16,-1
 128 128 l 1,17,-1
 128 0 l 1,18,-1
 0 0 l 1,19,-1
 0 128 l 1,16,-1
256 0 m 1,20,-1
 256 128 l 1,21,-1
 640 128 l 1,22,-1
 640 0 l 1,23,-1
 256 0 l 1,20,-1
128 128 m 1,24,-1
 128 768 l 1,25,-1
 256 768 l 1,26,-1
 256 128 l 1,27,-1
 128 128 l 1,24,-1
640 128 m 1,28,-1
 640 768 l 1,29,-1
 768 768 l 1,30,-1
 768 128 l 1,31,-1
 640 128 l 1,28,-1
256 768 m 1,32,-1
 256 896 l 1,33,-1
 640 896 l 1,34,-1
 640 768 l 1,35,-1
 256 768 l 1,32,-1
EndSplineSet
Validated: 5
EndChar

StartChar: colon
Encoding: 58 58 139
Width: 384
Flags: W
LayerCount: 2
Fore
SplineSet
0 640 m 1,0,-1
 0 896 l 1,1,-1
 256 896 l 1,2,-1
 256 640 l 1,3,-1
 0 640 l 1,0,-1
0 128 m 1,4,-1
 0 384 l 1,5,-1
 256 384 l 1,6,-1
 256 128 l 1,7,-1
 0 128 l 1,4,-1
EndSplineSet
Validated: 1
EndChar

StartChar: copyright
Encoding: 169 169 140
Width: 1152
Flags: W
LayerCount: 2
Fore
SplineSet
384 513 m 1,0,-1
 640 513 l 1,1,-1
 640 385 l 1,2,-1
 384 385 l 1,3,-1
 384 513 l 1,0,-1
384 1023 m 1,4,-1
 640 1023 l 1,5,-1
 640 895 l 1,6,-1
 384 895 l 1,7,-1
 384 1023 l 1,4,-1
256 895 m 1,8,-1
 384 895 l 1,9,-1
 384 513 l 1,10,-1
 256 513 l 1,11,-1
 256 895 l 1,8,-1
128 384 m 1,12,-1
 256 384 l 1,13,-1
 256 256 l 1,14,-1
 128 256 l 1,15,-1
 128 384 l 1,12,-1
256 128 m 1,16,-1
 768 128 l 1,17,-1
 768 256 l 1,18,-1
 256 256 l 1,19,-1
 256 128 l 1,16,-1
0 384 m 1,20,-1
 0 1024 l 1,21,-1
 128 1024 l 1,22,-1
 128 1152 l 1,23,-1
 256 1152 l 1,24,-1
 256 1280 l 1,25,-1
 768 1280 l 1,26,-1
 768 1152 l 1,27,-1
 256 1152 l 1,28,-1
 256 1024 l 1,29,-1
 128 1024 l 1,30,-1
 128 384 l 1,31,-1
 0 384 l 1,20,-1
768 1152 m 1,32,-1
 896 1152 l 1,33,-1
 896 1024 l 1,34,-1
 1024 1024 l 1,35,-1
 1024 384 l 1,36,-1
 896 384 l 1,37,-1
 896 256 l 1,38,-1
 768 256 l 1,39,-1
 768 384 l 1,40,-1
 896 384 l 1,41,-1
 896 1024 l 1,42,-1
 768 1024 l 1,43,-1
 768 1152 l 1,32,-1
EndSplineSet
Validated: 5
EndChar

StartChar: question
Encoding: 63 63 141
Width: 768
Flags: W
LayerCount: 2
Fore
SplineSet
256 512 m 1,0,-1
 256 768 l 1,1,-1
 384 768 l 1,2,-1
 384 512 l 1,3,-1
 256 512 l 1,0,-1
256 0 m 1,4,-1
 256 256 l 1,5,-1
 384 256 l 1,6,-1
 384 0 l 1,7,-1
 256 0 l 1,4,-1
128 1408 m 1,8,-1
 512 1408 l 1,9,-1
 512 1280 l 1,10,-1
 640 1280 l 1,11,-1
 640 896 l 1,12,-1
 512 896 l 1,13,-1
 512 768 l 1,14,-1
 384 768 l 1,15,-1
 384 896 l 1,16,-1
 512 896 l 1,17,-1
 512 1280 l 1,18,-1
 128 1280 l 1,19,-1
 128 1408 l 1,8,-1
128 1280 m 1,20,-1
 128 897 l 1,21,-1
 0 897 l 1,22,-1
 0 1280 l 1,23,-1
 128 1280 l 1,20,-1
EndSplineSet
Validated: 5
EndChar

StartChar: dollar
Encoding: 36 36 142
Width: 768
Flags: W
LayerCount: 2
Fore
SplineSet
0 896 m 1,0,-1
 0 1152 l 1,1,-1
 128 1152 l 1,2,-1
 128 1280 l 1,3,-1
 256 1280 l 1,4,-1
 256 1408 l 1,5,-1
 384 1408 l 1,6,-1
 384 1280 l 1,7,-1
 512 1280 l 1,8,-1
 512 1152 l 1,9,-1
 384 1152 l 1,10,-1
 384 640 l 1,11,-1
 512 640 l 1,12,-1
 512 512 l 1,13,-1
 384 512 l 1,14,-1
 384 256 l 1,15,-1
 512 256 l 1,16,-1
 512 512 l 1,17,-1
 640 512 l 1,18,-1
 640 256 l 1,19,-1
 512 256 l 1,20,-1
 512 128 l 1,21,-1
 384 128 l 1,22,-1
 384 0 l 1,23,-1
 256 0 l 1,24,-1
 256 128 l 1,25,-1
 128 128 l 1,26,-1
 128 256 l 1,27,-1
 0 256 l 1,28,-1
 0 512 l 1,29,-1
 128 512 l 1,30,-1
 128 256 l 1,31,-1
 256 256 l 1,32,-1
 256 768 l 1,33,-1
 128 768 l 1,34,-1
 128 896 l 1,35,-1
 0 896 l 1,0,-1
512 1152 m 1,36,-1
 640 1152 l 1,37,-1
 640 896 l 1,38,-1
 512 896 l 1,39,-1
 512 1152 l 1,36,-1
128 1152 m 1,40,-1
 128 896 l 1,41,-1
 256 896 l 1,42,-1
 256 1152 l 1,43,-1
 128 1152 l 1,40,-1
EndSplineSet
Validated: 5
EndChar

StartChar: registered
Encoding: 174 174 143
Width: 1152
Flags: W
LayerCount: 2
Fore
SplineSet
384 384 m 1025,0,-1
0 384 m 1,1,-1
 0 1024 l 1,2,-1
 128 1024 l 1,3,-1
 128 384 l 1,4,-1
 0 384 l 1,1,-1
256 128 m 1,5,-1
 768 128 l 1,6,-1
 768 256 l 1,7,-1
 256 256 l 1,8,-1
 256 128 l 1,5,-1
896 384 m 1,9,-1
 896 1024 l 1,10,-1
 768 1024 l 1,11,-1
 768 1152 l 1,12,-1
 896 1152 l 1,13,-1
 896 1024 l 1,14,-1
 1024 1024 l 1,15,-1
 1024 384 l 1,16,-1
 896 384 l 1,9,-1
896 384 m 1,17,-1
 896 256 l 1,18,-1
 768 256 l 1,19,-1
 768 384 l 1,20,-1
 896 384 l 1,17,-1
768 1152 m 1,21,-1
 256 1152 l 1,22,-1
 256 1024 l 1,23,-1
 128 1024 l 1,24,-1
 128 1152 l 1,25,-1
 256 1152 l 1,26,-1
 256 1280 l 1,27,-1
 768 1280 l 1,28,-1
 768 1152 l 1,21,-1
256 256 m 1,29,-1
 128 256 l 1,30,-1
 128 384 l 1,31,-1
 256 384 l 1,32,-1
 256 256 l 1,29,-1
256 384 m 1,33,-1
 256 1024 l 1,34,-1
 384 1023 l 1,35,-1
 640 1023 l 1,36,-1
 640 895 l 1,37,-1
 770 896 l 1,38,-1
 770 640 l 1,39,-1
 640 640 l 1,40,-1
 640 895 l 1,41,-1
 384 895 l 1,42,-1
 384 640 l 1,43,-1
 640 640 l 1,44,-1
 640 512 l 1,45,-1
 384 512 l 1,46,-1
 384 384 l 1,47,-1
 256 384 l 1,33,-1
768 384 m 1,48,-1
 640 384 l 1,49,-1
 640 512 l 1,50,-1
 768 512 l 1,51,-1
 768 384 l 1,48,-1
EndSplineSet
Validated: 5
EndChar

StartChar: semicolon
Encoding: 59 59 144
Width: 384
Flags: W
LayerCount: 2
Fore
SplineSet
0 640 m 1,0,-1
 0 896 l 1,1,-1
 256 896 l 1,2,-1
 256 640 l 1,3,-1
 0 640 l 1,0,-1
0 -128 m 1,4,-1
 0 0 l 1,5,-1
 128 0 l 1,6,-1
 128 128 l 1,7,-1
 0 128 l 1,8,-1
 0 384 l 1,9,-1
 256 384 l 1,10,-1
 256 0 l 1,11,-1
 128 0 l 1,12,-1
 128 -128 l 1,13,-1
 0 -128 l 1,4,-1
EndSplineSet
Validated: 5
EndChar

StartChar: equal
Encoding: 61 61 145
Width: 768
Flags: W
LayerCount: 2
Fore
SplineSet
0 256 m 1,0,-1
 0 384 l 1,1,-1
 640 384 l 1,2,-1
 640 256 l 1,3,-1
 0 256 l 1,0,-1
0 640 m 1,4,-1
 0 768 l 1,5,-1
 640 768 l 1,6,-1
 640 640 l 1,7,-1
 0 640 l 1,4,-1
EndSplineSet
Validated: 1
EndChar

StartChar: bar
Encoding: 124 124 146
Width: 256
Flags: W
LayerCount: 2
Fore
SplineSet
128 1536 m 1,0,-1
 128 -128 l 5,1,-1
 0 -128 l 5,2,-1
 0 1536 l 1,3,-1
 128 1536 l 1,0,-1
EndSplineSet
Validated: 1
EndChar

StartChar: yen
Encoding: 165 165 147
Width: 768
Flags: W
LayerCount: 2
Fore
SplineSet
128 384 m 1,0,-1
 512 384 l 1,1,-1
 512 256 l 1,2,-1
 128 256 l 1,3,-1
 128 384 l 1,0,-1
128 640 m 1,4,-1
 512 640 l 1,5,-1
 512 512 l 1,6,-1
 128 512 l 1,7,-1
 128 640 l 1,4,-1
256 0 m 1,8,-1
 256 768 l 1,9,-1
 384 768 l 1,10,-1
 384 0 l 1,11,-1
 256 0 l 1,8,-1
128 768 m 1,12,-1
 128 1024 l 1,13,-1
 256 1024 l 1,14,-1
 256 768 l 1,15,-1
 128 768 l 1,12,-1
384 768 m 1,16,-1
 384 1024 l 1,17,-1
 512 1024 l 1,18,-1
 512 768 l 1,19,-1
 384 768 l 1,16,-1
0 1024 m 1,20,-1
 0 1408 l 1,21,-1
 128 1408 l 1,22,-1
 128 1024 l 1,23,-1
 0 1024 l 1,20,-1
512 1024 m 1,24,-1
 512 1408 l 1,25,-1
 640 1408 l 1,26,-1
 640 1024 l 1,27,-1
 512 1024 l 1,24,-1
EndSplineSet
Validated: 5
EndChar

StartChar: at
Encoding: 64 64 148
Width: 1024
Flags: W
LayerCount: 2
Fore
SplineSet
768 256 m 1025,0,-1
0 256 m 1,1,-1
 0 1152 l 1,2,-1
 128 1152 l 1,3,-1
 128 1280 l 1,4,-1
 256 1280 l 1,5,-1
 256 1408 l 1,6,-1
 640 1408 l 1,7,-1
 640 1280 l 1,8,-1
 256 1280 l 1,9,-1
 256 1152 l 1,10,-1
 128 1152 l 1,11,-1
 128 256 l 1,12,-1
 0 256 l 1,1,-1
256 512 m 1,13,-1
 256 896 l 1,14,-1
 384 896 l 1,15,-1
 384 1024 l 1,16,-1
 640 1024 l 1,17,-1
 640 512 l 1,18,-1
 512 512 l 1,19,-1
 512 896 l 1,20,-1
 384 896 l 1,21,-1
 384 512 l 1,22,-1
 256 512 l 1,13,-1
640 1280 m 1,23,-1
 768 1280 l 1,24,-1
 768 1152 l 1,25,-1
 640 1152 l 1,26,-1
 640 1280 l 1,23,-1
768 1152 m 1,27,-1
 896 1152 l 1,28,-1
 896 512 l 0,29,-1
 768 512 l 0,30,-1
 768 384 l 1,31,-1
 640 384 l 1,32,-1
 640 512 l 1,33,-1
 768 512 l 1,34,-1
 768 1152 l 1,27,-1
128 256 m 1,35,-1
 256 256 l 1,36,-1
 256 128 l 1,37,-1
 128 128 l 1,38,-1
 128 256 l 1,35,-1
640 128 m 1,39,-1
 640 256 l 1,40,-1
 768 256 l 1,41,-1
 768 128 l 1,42,-1
 640 128 l 1,39,-1
640 128 m 1,43,-1
 640 0 l 1,44,-1
 256 0 l 1,45,-1
 256 128 l 1,46,-1
 640 128 l 1,43,-1
512 512 m 1,47,-1
 512 384 l 1,48,-1
 384 384 l 1,49,-1
 384 512 l 1,50,-1
 512 512 l 1,47,-1
EndSplineSet
Validated: 5
EndChar

StartChar: bracketleft
Encoding: 91 91 149
Width: 512
Flags: W
LayerCount: 2
Fore
SplineSet
128 1408 m 1,0,-1
 128 -4.26325641456e-014 l 1,1,-1
 384 0 l 1,2,-1
 384 -128 l 1,3,-1
 0 -128 l 1,4,-1
 0 1536 l 1,5,-1
 384 1536 l 1,6,-1
 384 1408 l 1,7,-1
 128 1408 l 1,0,-1
EndSplineSet
Validated: 1
EndChar

StartChar: bracketright
Encoding: 93 93 150
Width: 512
Flags: W
LayerCount: 2
Fore
SplineSet
256 0 m 5,0,-1
 256 1408 l 5,1,-1
 0 1408 l 5,2,-1
 0 1536 l 5,3,-1
 384 1536 l 5,4,-1
 384 -128 l 5,5,-1
 0 -128 l 5,6,-1
 0 0 l 5,7,-1
 256 0 l 5,0,-1
EndSplineSet
Validated: 1
EndChar

StartChar: grave
Encoding: 96 96 151
Width: 384
Flags: W
LayerCount: 2
Fore
SplineSet
128 1408 m 1,0,-1
 128 1536 l 1,1,-1
 256 1536 l 1,2,-1
 256 1408 l 1,3,-1
 128 1408 l 1,0,-1
0 1536 m 1,4,-1
 0 1664 l 1,5,-1
 128 1664 l 1,6,-1
 128 1536 l 1,7,-1
 0 1536 l 1,4,-1
EndSplineSet
Validated: 5
EndChar

StartChar: asciicircum
Encoding: 94 94 152
Width: 512
Flags: W
LayerCount: 2
Fore
SplineSet
0 1408 m 5,0,-1
 0 1536 l 5,1,-1
 128 1536 l 5,2,-1
 128 1408 l 5,3,-1
 0 1408 l 5,0,-1
256 1408 m 5,4,-1
 256 1536 l 5,5,-1
 384 1536 l 5,6,-1
 384 1408 l 5,7,-1
 256 1408 l 5,4,-1
128 1536 m 5,8,-1
 128 1664 l 5,9,-1
 256 1664 l 5,10,-1
 256 1536 l 5,11,-1
 128 1536 l 5,8,-1
EndSplineSet
Validated: 5
EndChar

StartChar: underscore
Encoding: 95 95 153
Width: 896
Flags: W
LayerCount: 2
Fore
SplineSet
0 -128 m 1,0,-1
 0 0 l 1,1,-1
 768 0 l 1,2,-1
 768 -128 l 1,3,-1
 0 -128 l 1,0,-1
EndSplineSet
Validated: 1
EndChar

StartChar: plus
Encoding: 43 43 154
Width: 768
Flags: W
LayerCount: 2
Fore
SplineSet
0 640 m 1,0,-1
 0 768 l 1,1,-1
 256 768 l 1,2,-1
 256 1024 l 1,3,-1
 384 1024 l 1,4,-1
 384 768 l 1,5,-1
 640 768 l 1,6,-1
 640 640 l 1,7,-1
 384 640 l 1,8,-1
 384 384 l 1,9,-1
 256 384 l 1,10,-1
 256 640 l 1,11,-1
 0 640 l 1,0,-1
EndSplineSet
Validated: 1
EndChar

StartChar: asterisk
Encoding: 42 42 155
Width: 1024
Flags: W
LayerCount: 2
Fore
SplineSet
384 1536 m 1,0,-1
 512 1536 l 1,1,-1
 512 1152 l 1,2,-1
 640 1152 l 1,3,-1
 640 896 l 1,4,-1
 512 896 l 1,5,-1
 512 1024 l 1,6,-1
 384 1024 l 1,7,-1
 384 896 l 1,8,-1
 256 896 l 1,9,-1
 256 1152 l 1,10,-1
 384 1152 l 1,11,-1
 384 1536 l 1,0,-1
640 1280 m 1,12,-1
 896 1280 l 1,13,-1
 896 1152 l 1,14,-1
 640 1152 l 1,15,-1
 640 1280 l 1,12,-1
0 1280 m 1,16,-1
 256 1280 l 1,17,-1
 256 1152 l 1,18,-1
 0 1152 l 1,19,-1
 0 1280 l 1,16,-1
640 896 m 1,20,-1
 768 896 l 1,21,-1
 768 768 l 1,22,-1
 640 768 l 1,23,-1
 640 896 l 1,20,-1
256 896 m 1,24,-1
 256 768 l 1,25,-1
 128 768 l 1,26,-1
 128 896 l 1,27,-1
 256 896 l 1,24,-1
EndSplineSet
Validated: 5
EndChar

StartChar: exclamdown
Encoding: 161 161 156
Width: 256
Flags: W
LayerCount: 2
Fore
SplineSet
128 1280 m 5,0,-1
 128 1024 l 5,1,-1
 0 1024 l 5,2,-1
 0 1280 l 5,3,-1
 128 1280 l 5,0,-1
128 768 m 5,4,-1
 128 -128 l 5,5,-1
 0 -128 l 5,6,-1
 0 768 l 5,7,-1
 128 768 l 5,4,-1
EndSplineSet
Validated: 1
EndChar

StartChar: cent
Encoding: 162 162 157
Width: 768
Flags: W
LayerCount: 2
Fore
SplineSet
0 256 m 1,0,-1
 0 896 l 1,1,-1
 128 896 l 1,2,-1
 128 1024 l 1,3,-1
 256 1024 l 1,4,-1
 256 1280 l 1,5,-1
 384 1280 l 1,6,-1
 384 1024 l 1,7,-1
 512 1024 l 1,8,-1
 512 896 l 1,9,-1
 128 896 l 1,10,-1
 128 256 l 1,11,-1
 0 256 l 1,0,-1
512 896 m 1,12,-1
 640 896 l 1,13,-1
 640 768 l 1,14,-1
 512 768 l 1,15,-1
 512 896 l 1,12,-1
512 256 m 1,16,-1
 512 384 l 1,17,-1
 640 384 l 1,18,-1
 640 256 l 1,19,-1
 512 256 l 1,16,-1
512 256 m 1,20,-1
 512 128 l 1,21,-1
 384 128 l 1,22,-1
 384 -128 l 1,23,-1
 256 -128 l 1,24,-1
 256 128 l 1,25,-1
 128 128 l 1,26,-1
 128 256 l 1,27,-1
 512 256 l 1,20,-1
EndSplineSet
Validated: 5
EndChar

StartChar: mu
Encoding: 181 181 158
Width: 768
Flags: W
LayerCount: 2
Fore
SplineSet
512 0 m 1,0,-1
 512 128 l 1,1,-1
 256 128 l 1,2,-1
 256 0 l 1,3,-1
 512 0 l 1,0,-1
640 128 m 1,4,-1
 640 896 l 1,5,-1
 512 896 l 1,6,-1
 512 128 l 1,7,-1
 640 128 l 1,4,-1
128 -128 m 1,8,-1
 128 128 l 1,9,-1
 256 128 l 1,10,-1
 256 256 l 1,11,-1
 128 256 l 1,12,-1
 128 896 l 1,13,-1
 0 896 l 1,14,-1
 0 -128 l 1,15,-1
 128 -128 l 1,8,-1
EndSplineSet
Validated: 5
EndChar

StartChar: plusminus
Encoding: 177 177 159
Width: 768
Flags: W
LayerCount: 2
Fore
SplineSet
0 640 m 1,0,-1
 0 768 l 1,1,-1
 256 768 l 1,2,-1
 256 1024 l 1,3,-1
 384 1024 l 1,4,-1
 384 768 l 1,5,-1
 640 768 l 1,6,-1
 640 640 l 1,7,-1
 384 640 l 1,8,-1
 384 384 l 1,9,-1
 256 384 l 1,10,-1
 256 640 l 1,11,-1
 0 640 l 1,0,-1
0 256 m 1,12,-1
 640 256 l 1,13,-1
 640 128 l 1,14,-1
 0 128 l 1,15,-1
 0 256 l 1,12,-1
EndSplineSet
Validated: 1
EndChar

StartChar: acute
Encoding: 180 180 160
Width: 384
Flags: W
LayerCount: 2
Fore
SplineSet
128 1408 m 1,0,-1
 128 1536 l 1,1,-1
 0 1536 l 1,2,-1
 0 1408 l 1,3,-1
 128 1408 l 1,0,-1
256 1536 m 1,4,-1
 256 1664 l 1,5,-1
 128 1664 l 1,6,-1
 128 1536 l 1,7,-1
 256 1536 l 1,4,-1
EndSplineSet
Validated: 5
EndChar

StartChar: degree
Encoding: 176 176 161
Width: 640
Flags: W
LayerCount: 2
Fore
SplineSet
128 896 m 5,0,-1
 128 1024 l 5,1,-1
 384 1024 l 5,2,-1
 384 896 l 5,3,-1
 128 896 l 5,0,-1
0 1024 m 5,4,-1
 0 1280 l 5,5,-1
 128 1280 l 5,6,-1
 128 1024 l 5,7,-1
 0 1024 l 5,4,-1
384 1024 m 5,8,-1
 384 1280 l 5,9,-1
 512 1280 l 5,10,-1
 512 1024 l 5,11,-1
 384 1024 l 5,8,-1
128 1280 m 5,12,-1
 128 1408 l 5,13,-1
 384 1408 l 5,14,-1
 384 1280 l 5,15,-1
 128 1280 l 5,12,-1
EndSplineSet
Validated: 5
EndChar

StartChar: questiondown
Encoding: 191 191 162
Width: 768
Flags: W
LayerCount: 2
Fore
SplineSet
384 768 m 5,0,-1
 384 512 l 5,1,-1
 256 512 l 5,2,-1
 256 768 l 5,3,-1
 384 768 l 5,0,-1
384 1280 m 5,4,-1
 384 1024 l 5,5,-1
 256 1024 l 5,6,-1
 256 1280 l 5,7,-1
 384 1280 l 5,4,-1
512 -128 m 5,8,-1
 128 -128 l 5,9,-1
 128 0 l 5,10,-1
 0 0 l 5,11,-1
 0 384 l 5,12,-1
 128 384 l 5,13,-1
 128 512 l 5,14,-1
 256 512 l 5,15,-1
 256 384 l 5,16,-1
 128 384 l 5,17,-1
 128 0 l 5,18,-1
 512 0 l 5,19,-1
 512 -128 l 5,8,-1
512 0 m 5,20,-1
 512 383 l 5,21,-1
 640 383 l 5,22,-1
 640 0 l 5,23,-1
 512 0 l 5,20,-1
EndSplineSet
Validated: 5
EndChar

StartChar: multiply
Encoding: 215 215 163
Width: 768
Flags: W
LayerCount: 2
Fore
SplineSet
0 128 m 1,0,-1
 0 256 l 1,1,-1
 128 256 l 1,2,-1
 128 128 l 1,3,-1
 0 128 l 1,0,-1
512 128 m 1,4,-1
 512 256 l 1,5,-1
 640 256 l 1,6,-1
 640 128 l 1,7,-1
 512 128 l 1,4,-1
128 256 m 1,8,-1
 128 384 l 1,9,-1
 256 384 l 1,10,-1
 256 256 l 1,11,-1
 128 256 l 1,8,-1
384 256 m 1,12,-1
 384 384 l 1,13,-1
 512 384 l 1,14,-1
 512 256 l 1,15,-1
 384 256 l 1,12,-1
256 384 m 1,16,-1
 256 512 l 1,17,-1
 384 512 l 1,18,-1
 384 384 l 1,19,-1
 256 384 l 1,16,-1
128 512 m 1,20,-1
 128 640 l 1,21,-1
 256 640 l 1,22,-1
 256 512 l 1,23,-1
 128 512 l 1,20,-1
384 512 m 1,24,-1
 384 640 l 1,25,-1
 512 640 l 1,26,-1
 512 512 l 1,27,-1
 384 512 l 1,24,-1
0 640 m 1,28,-1
 0 768 l 1,29,-1
 128 768 l 1,30,-1
 128 640 l 1,31,-1
 0 640 l 1,28,-1
512 640 m 1,32,-1
 512 768 l 1,33,-1
 640 768 l 1,34,-1
 640 640 l 1,35,-1
 512 640 l 1,32,-1
EndSplineSet
Validated: 5
EndChar

StartChar: dieresis
Encoding: 168 168 164
Width: 512
Flags: W
LayerCount: 2
Fore
SplineSet
0 1408 m 1,0,-1
 0 1536 l 1,1,-1
 128 1536 l 1,2,-1
 128 1408 l 1,3,-1
 0 1408 l 1,0,-1
256 1408 m 1,4,-1
 256 1536 l 1,5,-1
 384 1536 l 1,6,-1
 384 1408 l 1,7,-1
 256 1408 l 1,4,-1
EndSplineSet
Validated: 1
EndChar

StartChar: section
Encoding: 167 167 165
Width: 768
Flags: W
LayerCount: 2
Fore
SplineSet
128 896 m 1029,0,-1
0 896 m 5,1,-1
 0 1152 l 5,2,-1
 128 1152 l 5,3,-1
 128 896 l 5,4,-1
 0 896 l 5,1,-1
512 1024 m 5,5,-1
 512 1152 l 5,6,-1
 640 1152 l 5,7,-1
 640 1024 l 5,8,-1
 512 1024 l 5,5,-1
128 1152 m 5,9,-1
 128 1280 l 5,10,-1
 512 1280 l 5,11,-1
 512 1152 l 5,12,-1
 128 1152 l 5,9,-1
128 0 m 1,13,-1
 128 128 l 1,14,-1
 512 128 l 1,15,-1
 512 0 l 1,16,-1
 128 0 l 1,13,-1
0 128 m 1,17,-1
 0 256 l 1,18,-1
 128 256 l 1,19,-1
 128 128 l 1,20,-1
 0 128 l 1,17,-1
512 128 m 1,21,-1
 512 384 l 1,22,-1
 640 384 l 1,23,-1
 640 128 l 1,24,-1
 512 128 l 1,21,-1
128 384 m 1,25,-1
 128 512 l 1,26,-1
 512 512 l 1,27,-1
 512 384 l 1,28,-1
 128 384 l 1,25,-1
0 512 m 1,29,-1
 0 768 l 1,30,-1
 128 768 l 1,31,-1
 128 512 l 1,32,-1
 0 512 l 1,29,-1
512 512 m 1,33,-1
 512 768 l 1,34,-1
 640 768 l 1,35,-1
 640 512 l 1,36,-1
 512 512 l 1,33,-1
128 768 m 1,37,-1
 128 896 l 1,38,-1
 512 896 l 1,39,-1
 512 768 l 1,40,-1
 128 768 l 1,37,-1
EndSplineSet
Validated: 5
EndChar

StartChar: Euro
Encoding: 8364 8364 166
Width: 896
Flags: W
LayerCount: 2
Fore
SplineSet
768 1152 m 1025,0,-1
768 256 m 1025,1,-1
640 1280 m 1,2,-1
 384 1280 l 1,3,-1
 384 1408 l 1,4,-1
 640 1408 l 1,5,-1
 640 1280 l 1,2,-1
640 1280 m 1,6,-1
 768 1280 l 1,7,-1
 768 1152 l 1,8,-1
 640 1152 l 1,9,-1
 640 1280 l 1,6,-1
384 1280 m 1,10,-1
 384 1152 l 1,11,-1
 256 1152 l 1,12,-1
 256 1280 l 1,13,-1
 384 1280 l 1,10,-1
256 1152 m 1,14,-1
 256 896 l 1,15,-1
 640 896 l 1,16,-1
 640 768 l 1,17,-1
 256 768 l 1,18,-1
 256 640 l 1,19,-1
 640 640 l 1,20,-1
 640 512 l 1,21,-1
 256 512 l 1,22,-1
 256 256 l 1,23,-1
 128 256 l 1,24,-1
 128 512 l 1,25,-1
 0 512 l 1,26,-1
 0 640 l 1,27,-1
 128 640 l 1,28,-1
 128 768 l 1,29,-1
 0 768 l 1,30,-1
 0 896 l 1,31,-1
 128 896 l 1,32,-1
 128 1152 l 1,33,-1
 256 1152 l 1,14,-1
256 256 m 1,34,-1
 384 256 l 1,35,-1
 384 128 l 1,36,-1
 256 128 l 1,37,-1
 256 256 l 1,34,-1
640 128 m 1,38,-1
 640 256 l 1,39,-1
 768 256 l 1,40,-1
 768 128 l 1,41,-1
 640 128 l 1,38,-1
640 128 m 1,42,-1
 640 0 l 1,43,-1
 384 0 l 1,44,-1
 384 128 l 1,45,-1
 640 128 l 1,42,-1
EndSplineSet
Validated: 5
EndChar

StartChar: dcroat
Encoding: 273 273 167
Width: 896
Flags: W
LayerCount: 2
Fore
SplineSet
512 0 m 1,0,-1
 512 128 l 1,1,-1
 384 128 l 1,2,-1
 384 256 l 1,3,-1
 512 256 l 1,4,-1
 512 640 l 1,5,-1
 384 640 l 1,6,-1
 384 768 l 1,7,-1
 512 768 l 1,8,-1
 512 1024 l 1,9,-1
 256 1024 l 1,10,-1
 256 1152 l 1,11,-1
 512 1152 l 1,12,-1
 512 1408 l 1,13,-1
 640 1408 l 1,14,-1
 640 1152 l 1,15,-1
 768 1152 l 1,16,-1
 768 1024 l 1,17,-1
 640 1024 l 1,18,-1
 640 0 l 1,19,-1
 512 0 l 1,0,-1
0 128 m 1,20,-1
 0 768 l 1,21,-1
 128 768 l 1,22,-1
 128 896 l 1,23,-1
 384 896 l 1,24,-1
 384 768 l 1,25,-1
 128 768 l 1,26,-1
 128 128 l 1,27,-1
 0 128 l 1,20,-1
384 128 m 1,28,-1
 384 0 l 1,29,-1
 128 0 l 1,30,-1
 128 128 l 1,31,-1
 384 128 l 1,28,-1
EndSplineSet
Validated: 5
EndChar

StartChar: numbersign
Encoding: 35 35 168
Width: 1152
Flags: W
LayerCount: 2
Fore
SplineSet
384 1280 m 1,0,-1
 512 1280 l 1,1,-1
 512 896 l 1,2,-1
 768 896 l 1,3,-1
 768 1280 l 1,4,-1
 896 1280 l 1,5,-1
 896 896 l 1,6,-1
 1024 896 l 1,7,-1
 1024 768 l 1,8,-1
 768 768 l 1,9,-1
 768 512 l 1,10,-1
 896 512 l 1,11,-1
 896 384 l 1,12,-1
 640 384 l 1,13,-1
 640 0 l 1,14,-1
 512 0 l 1,15,-1
 512 384 l 1,16,-1
 256 384 l 1,17,-1
 256 0 l 1,18,-1
 128 0 l 1,19,-1
 128 384 l 1,20,-1
 0 384 l 1,21,-1
 0 512 l 1,22,-1
 256 512 l 1,23,-1
 256 768 l 1,24,-1
 128 768 l 1,25,-1
 128 896 l 1,26,-1
 384 896 l 1,27,-1
 384 1280 l 1,0,-1
640 768 m 1,28,-1
 384 768 l 1,29,-1
 384 512 l 1,30,-1
 640 512 l 1,31,-1
 640 768 l 1,28,-1
EndSplineSet
Validated: 1
EndChar

StartChar: less
Encoding: 60 60 169
Width: 1024
Flags: W
LayerCount: 2
Fore
SplineSet
896 128 m 1,0,-1
 896 0 l 1,1,-1
 640 0 l 1,2,-1
 640 128 l 1,3,-1
 896 128 l 1,0,-1
896 896 m 1,4,-1
 896 768 l 1,5,-1
 640 768 l 1,6,-1
 640 896 l 1,7,-1
 896 896 l 1,4,-1
640 128 m 1,8,-1
 384 128 l 1,9,-1
 384 256 l 1,10,-1
 640 256 l 1,11,-1
 640 128 l 1,8,-1
384 256 m 1,12,-1
 128 256 l 1,13,-1
 128 384 l 1,14,-1
 384 384 l 1,15,-1
 384 256 l 1,12,-1
640 768 m 1,16,-1
 640 640 l 1,17,-1
 385 640 l 1,18,-1
 384 512 l 1,19,-1
 128 512 l 1,20,-1
 128 640 l 1,21,-1
 384 640 l 1,22,-1
 384 768 l 1,23,-1
 640 768 l 1,16,-1
128 512 m 1,24,-1
 128 384 l 1,25,-1
 0 384 l 1,26,-1
 0 512 l 1,27,-1
 128 512 l 1,24,-1
EndSplineSet
Validated: 5
EndChar

StartChar: greater
Encoding: 62 62 170
Width: 1024
Flags: W
LayerCount: 2
Fore
SplineSet
0 768 m 5,0,-1
 0 896 l 5,1,-1
 256 896 l 5,2,-1
 256 768 l 5,3,-1
 0 768 l 5,0,-1
0 0 m 5,4,-1
 0 128 l 5,5,-1
 256 128 l 5,6,-1
 256 0 l 5,7,-1
 0 0 l 5,4,-1
256 768 m 5,8,-1
 512 768 l 5,9,-1
 512 640 l 5,10,-1
 256 640 l 5,11,-1
 256 768 l 5,8,-1
512 640 m 5,12,-1
 768 640 l 5,13,-1
 768 512 l 5,14,-1
 512 512 l 5,15,-1
 512 640 l 5,12,-1
256 128 m 5,16,-1
 256 256 l 5,17,-1
 511 256 l 5,18,-1
 512 384 l 5,19,-1
 768 384 l 5,20,-1
 768 256 l 5,21,-1
 512 256 l 5,22,-1
 512 128 l 5,23,-1
 256 128 l 5,16,-1
768 384 m 5,24,-1
 768 512 l 5,25,-1
 896 512 l 5,26,-1
 896 384 l 5,27,-1
 768 384 l 5,24,-1
EndSplineSet
Validated: 5
EndChar

StartChar: backslash
Encoding: 92 92 171
Width: 896
Flags: W
LayerCount: 2
Fore
SplineSet
0 1408 m 1,0,-1
 0 1152 l 1,1,-1
 128 1152 l 1,2,-1
 128 896 l 1,3,-1
 256 896 l 1,4,-1
 256 640 l 1,5,-1
 384 640 l 1,6,-1
 384 384 l 1,7,-1
 512 384 l 1,8,-1
 512 128 l 1,9,-1
 640 128 l 1,10,-1
 640 -128 l 1,11,-1
 768 -128 l 1,12,-1
 768 128 l 1,13,-1
 640 128 l 1,14,-1
 640 384 l 1,15,-1
 512 384 l 1,16,-1
 512 640 l 1,17,-1
 384 640 l 1,18,-1
 384 896 l 1,19,-1
 256 896 l 1,20,-1
 256 1152 l 1,21,-1
 128 1152 l 1,22,-1
 128 1408 l 1,23,-1
 0 1408 l 1,0,-1
EndSplineSet
Validated: 5
EndChar

StartChar: slash
Encoding: 47 47 172
Width: 896
Flags: W
LayerCount: 2
Fore
SplineSet
768 1408 m 5,0,-1
 768 1152 l 5,1,-1
 640 1152 l 5,2,-1
 640 896 l 1,3,-1
 512 896 l 1,4,-1
 512 640 l 1,5,-1
 384 640 l 1,6,-1
 384 384 l 1,7,-1
 256 384 l 1,8,-1
 256 128 l 1,9,-1
 128 128 l 1,10,-1
 128 -128 l 1,11,-1
 0 -128 l 1,12,-1
 0 128 l 1,13,-1
 128 128 l 1,14,-1
 128 384 l 1,15,-1
 256 384 l 1,16,-1
 256 640 l 1,17,-1
 384 640 l 1,18,-1
 384 896 l 1,19,-1
 512 896 l 1,20,-1
 512 1152 l 1,21,-1
 640 1152 l 5,22,-1
 640 1408 l 5,23,-1
 768 1408 l 5,0,-1
EndSplineSet
Validated: 5
EndChar

StartChar: percent
Encoding: 37 37 173
Width: 1152
Flags: W
LayerCount: 2
Fore
SplineSet
640 896 m 1,0,-1
 640 1152 l 1,1,-1
 768 1152 l 1,2,-1
 768 896 l 1,3,-1
 640 896 l 1,0,-1
512 640 m 1,4,-1
 512 896 l 1,5,-1
 640 896 l 1,6,-1
 640 640 l 1,7,-1
 512 640 l 1,4,-1
384 384 m 1,8,-1
 384 640 l 1,9,-1
 512 640 l 1,10,-1
 512 384 l 1,11,-1
 384 384 l 1,8,-1
256 128 m 1,12,-1
 256 384 l 1,13,-1
 384 384 l 1,14,-1
 384 128 l 1,15,-1
 256 128 l 1,12,-1
128 768 m 1,16,-1
 128 896 l 1,17,-1
 384 896 l 1,18,-1
 384 768 l 1,19,-1
 128 768 l 1,16,-1
0 896 m 1,20,-1
 0 1152 l 1,21,-1
 128 1152 l 1,22,-1
 128 896 l 1,23,-1
 0 896 l 1,20,-1
384 896 m 1,24,-1
 384 1152 l 1,25,-1
 512 1152 l 1,26,-1
 512 896 l 1,27,-1
 384 896 l 1,24,-1
128 1152 m 1,28,-1
 128 1280 l 1,29,-1
 384 1280 l 1,30,-1
 384 1152 l 1,31,-1
 128 1152 l 1,28,-1
640 0 m 1,32,-1
 640 128 l 1,33,-1
 896 128 l 1,34,-1
 896 0 l 1,35,-1
 640 0 l 1,32,-1
512 128 m 1,36,-1
 512 384 l 1,37,-1
 640 384 l 1,38,-1
 640 128 l 1,39,-1
 512 128 l 1,36,-1
896 128 m 1,40,-1
 896 384 l 1,41,-1
 1024 384 l 1,42,-1
 1024 128 l 1,43,-1
 896 128 l 1,40,-1
640 384 m 1,44,-1
 640 512 l 1,45,-1
 896 512 l 1,46,-1
 896 384 l 1,47,-1
 640 384 l 1,44,-1
EndSplineSet
Validated: 5
EndChar

StartChar: ordmasculine
Encoding: 186 186 174
Width: 640
Flags: W
LayerCount: 2
Fore
SplineSet
128 768 m 5,0,-1
 128 896 l 5,1,-1
 384 896 l 5,2,-1
 384 768 l 5,3,-1
 128 768 l 5,0,-1
0 896 m 5,4,-1
 0 1280 l 1,5,-1
 128 1280 l 1,6,-1
 128 896 l 5,7,-1
 0 896 l 5,4,-1
384 896 m 5,8,-1
 384 1280 l 1,9,-1
 512 1280 l 1,10,-1
 512 896 l 5,11,-1
 384 896 l 5,8,-1
128 1280 m 1,12,-1
 128 1408 l 1,13,-1
 384 1408 l 1,14,-1
 384 1280 l 1,15,-1
 128 1280 l 1,12,-1
EndSplineSet
Validated: 5
EndChar

StartChar: uni00B9
Encoding: 185 185 175
Width: 512
Flags: W
LayerCount: 2
Fore
SplineSet
128 1408 m 1,0,-1
 256 1408 l 1,1,-1
 256 896 l 1,2,-1
 384 896 l 1,3,-1
 384 768 l 1,4,-1
 0 768 l 1,5,-1
 0 896 l 1,6,-1
 128 896 l 1,7,-1
 128 1152 l 1,8,-1
 0 1152 l 1,9,-1
 0 1280 l 1,10,-1
 128 1280 l 1,11,-1
 128 1408 l 1,0,-1
EndSplineSet
Validated: 1
EndChar

StartChar: uni00B2
Encoding: 178 178 176
Width: 640
Flags: W
LayerCount: 2
Fore
SplineSet
128 1408 m 1,0,-1
 384 1408 l 1,1,-1
 384 1280 l 1,2,-1
 512 1280 l 1,3,-1
 512 1152 l 1,4,-1
 384 1152 l 1,5,-1
 384 1280 l 1,6,-1
 128 1280 l 1,7,-1
 128 1408 l 1,0,-1
128 896 m 1,8,-1
 128 1023 l 1,9,-1
 256 1024 l 1,10,-1
 256 896 l 1,11,-1
 512 896 l 1,12,-1
 512 768 l 1,13,-1
 0 768 l 1,14,-1
 0 896 l 1,15,-1
 128 896 l 1,8,-1
128 1280 m 1,16,-1
 128 1152 l 1,17,-1
 0 1152 l 1,18,-1
 0 1280 l 1,19,-1
 128 1280 l 1,16,-1
256 1024 m 1,20,-1
 256 1152 l 1,21,-1
 384 1152 l 1,22,-1
 384 1024 l 1,23,-1
 256 1024 l 1,20,-1
EndSplineSet
Validated: 5
EndChar

StartChar: uni00B3
Encoding: 179 179 177
Width: 512
Flags: W
LayerCount: 2
Fore
SplineSet
0 896 m 1,0,-1
 256 896 l 1,1,-1
 256 770 l 1,2,-1
 0 768 l 1,3,-1
 0 896 l 1,0,-1
0 1408 m 1,4,-1
 256 1408 l 1,5,-1
 256 1280 l 1,6,-1
 0 1280 l 1,7,-1
 0 1408 l 1,4,-1
256 1280 m 1025,8,-1
256 896 m 1025,9,-1
256 1024 m 1025,10,-1
128 1024 m 1,11,-1
 128 1152 l 1,12,-1
 256 1152 l 1,13,-1
 256 1280 l 1,14,-1
 384 1280 l 1,15,-1
 384 1152 l 1,16,-1
 256 1152 l 1,17,-1
 256 1024 l 1,18,-1
 128 1024 l 1,11,-1
256 1024 m 1,19,-1
 256 896 l 1,20,-1
 384 896 l 1,21,-1
 384 1024 l 1,22,-1
 256 1024 l 1,19,-1
EndSplineSet
Validated: 5
EndChar

StartChar: divide
Encoding: 247 247 178
Width: 768
Flags: W
LayerCount: 2
Fore
SplineSet
256 1024 m 1,0,-1
 384 1024 l 1,1,-1
 384 896 l 1,2,-1
 256 896 l 1,3,-1
 256 1024 l 1,0,-1
256 512 m 1,4,-1
 384 512 l 1,5,-1
 384 384 l 1,6,-1
 256 384 l 1,7,-1
 256 512 l 1,4,-1
0 640 m 1,8,-1
 0 768 l 1,9,-1
 640 768 l 1,10,-1
 640 640 l 1,11,-1
 0 640 l 1,8,-1
EndSplineSet
Validated: 1
EndChar

StartChar: Thorn
Encoding: 222 222 179
Width: 768
Flags: W
LayerCount: 2
Fore
SplineSet
128 384 m 1,0,-1
 512 384 l 1,1,-1
 512 256 l 1,2,-1
 128 256 l 1,3,-1
 128 384 l 1,0,-1
512 1024 m 1,4,-1
 640 1024 l 1,5,-1
 640 384 l 1,6,-1
 512 384 l 1,7,-1
 512 1024 l 1,4,-1
128 1152 m 1,8,-1
 512 1152 l 1,9,-1
 512 1024 l 1,10,-1
 128 1024 l 1,11,-1
 128 1152 l 1,8,-1
0 1408 m 1,12,-1
 128 1408 l 1,13,-1
 128 0 l 1,14,-1
 0 0 l 1,15,-1
 0 1408 l 1,12,-1
EndSplineSet
Validated: 5
EndChar

StartChar: thorn
Encoding: 254 254 180
Width: 768
Flags: W
LayerCount: 2
Fore
SplineSet
256 128 m 1,0,-1
 256 256 l 1,1,-1
 512 256 l 1,2,-1
 512 128 l 1,3,-1
 256 128 l 1,0,-1
512 256 m 1,4,-1
 512 768 l 1,5,-1
 640 768 l 1,6,-1
 640 256 l 1,7,-1
 512 256 l 1,4,-1
0 -128 m 1,8,-1
 0 1408 l 1,9,-1
 128 1408 l 1,10,-1
 128 768 l 1,11,-1
 256 768 l 1,12,-1
 256 640 l 1,13,-1
 128 640 l 1,14,-1
 128 384 l 1,15,-1
 256 384 l 1,16,-1
 256 256 l 1,17,-1
 128 256 l 1,18,-1
 128 -128 l 1,19,-1
 0 -128 l 1,8,-1
256 768 m 1,20,-1
 256 896 l 1,21,-1
 512 896 l 1,22,-1
 512 768 l 1,23,-1
 256 768 l 1,20,-1
EndSplineSet
Validated: 5
EndChar

StartChar: parenleft
Encoding: 40 40 181
Width: 512
Flags: W
LayerCount: 2
Fore
SplineSet
256 0 m 1,0,-1
 256 128 l 1,1,-1
 384 128 l 1,2,-1
 384 0 l 1,3,-1
 256 0 l 1,0,-1
128 128 m 1,4,-1
 128 256 l 1,5,-1
 256 256 l 1,6,-1
 256 128 l 1,7,-1
 128 128 l 1,4,-1
384 128 m 1025,8,-1
0 256 m 1,9,-1
 0 1152 l 1,10,-1
 128 1152 l 1,11,-1
 128 256 l 1,12,-1
 0 256 l 1,9,-1
128 1152 m 1,13,-1
 128 1280 l 1,14,-1
 256 1280 l 1,15,-1
 256 1152 l 1,16,-1
 128 1152 l 1,13,-1
384 1280 m 1025,17,-1
256 1280 m 1,18,-1
 256 1408 l 1,19,-1
 384 1408 l 1,20,-1
 384 1280 l 1,21,-1
 256 1280 l 1,18,-1
EndSplineSet
Validated: 5
EndChar

StartChar: parenright
Encoding: 41 41 182
Width: 512
Flags: W
LayerCount: 2
Fore
SplineSet
128 0 m 1,0,-1
 128 128 l 1,1,-1
 0 128 l 1,2,-1
 0 0 l 1,3,-1
 128 0 l 1,0,-1
256 128 m 1,4,-1
 256 256 l 1,5,-1
 128 256 l 1,6,-1
 128 128 l 1,7,-1
 256 128 l 1,4,-1
0 128 m 1025,8,-1
384 256 m 1,9,-1
 384 1152 l 1,10,-1
 256 1152 l 1,11,-1
 256 256 l 1,12,-1
 384 256 l 1,9,-1
256 1152 m 1,13,-1
 256 1280 l 1,14,-1
 128 1280 l 1,15,-1
 128 1152 l 1,16,-1
 256 1152 l 1,13,-1
0 1280 m 1025,17,-1
128 1280 m 1,18,-1
 128 1408 l 1,19,-1
 0 1408 l 1,20,-1
 0 1280 l 1,21,-1
 128 1280 l 1,18,-1
EndSplineSet
Validated: 5
EndChar

StartChar: brokenbar
Encoding: 166 166 183
Width: 256
Flags: W
LayerCount: 2
Fore
SplineSet
128 512 m 1,0,-1
 128 -128 l 1,1,-1
 0 -128 l 1,2,-1
 0 512 l 1,3,-1
 128 512 l 1,0,-1
128 1536 m 1,4,-1
 128 896 l 1,5,-1
 0 896 l 1,6,-1
 0 1536 l 1,7,-1
 128 1536 l 1,4,-1
EndSplineSet
Validated: 1
EndChar

StartChar: guillemotleft
Encoding: 171 171 184
Width: 1024
Flags: W
LayerCount: 2
Fore
SplineSet
510 128 m 1,0,-1
 510 0 l 1,1,-1
 382 0 l 1,2,-1
 382 128 l 1,3,-1
 510 128 l 1,0,-1
510 896 m 1,4,-1
 510 768 l 1,5,-1
 382 768 l 1,6,-1
 382 896 l 1,7,-1
 510 896 l 1,4,-1
890 128 m 1,8,-1
 890 0 l 1,9,-1
 762 0 l 1,10,-1
 762 128 l 1,11,-1
 890 128 l 1,8,-1
890 896 m 1,12,-1
 890 768 l 1,13,-1
 762 768 l 1,14,-1
 762 896 l 1,15,-1
 890 896 l 1,12,-1
256 256 m 1,16,-1
 382 256 l 1,17,-1
 382 128 l 1,18,-1
 256 128 l 1,19,-1
 256 256 l 1,16,-1
256 256 m 1,20,-1
 128 256 l 1,21,-1
 128 384 l 1,22,-1
 256 384 l 1,23,-1
 256 256 l 1,20,-1
128 384 m 1,24,-1
 0 384 l 1,25,-1
 0 512 l 1,26,-1
 128 512 l 1,27,-1
 128 640 l 1,28,-1
 256 640 l 1,29,-1
 256 768 l 1,30,-1
 382 768 l 1,31,-1
 382 640 l 1,32,-1
 257 640 l 1,33,-1
 256 512 l 1,34,-1
 128 512 l 1,35,-1
 128 384 l 1,24,-1
636 256 m 1,36,-1
 762 256 l 1,37,-1
 762 128 l 1,38,-1
 636 128 l 1,39,-1
 636 256 l 1,36,-1
636 256 m 1,40,-1
 508 256 l 1,41,-1
 508 384 l 1,42,-1
 636 384 l 1,43,-1
 636 256 l 1,40,-1
508 384 m 1,44,-1
 380 384 l 1,45,-1
 380 512 l 1,46,-1
 508 512 l 1,47,-1
 508 640 l 1,48,-1
 636 640 l 1,49,-1
 636 768 l 1,50,-1
 762 768 l 1,51,-1
 762 640 l 1,52,-1
 637 640 l 1,53,-1
 636 512 l 1,54,-1
 508 512 l 1,55,-1
 508 384 l 1,44,-1
EndSplineSet
Validated: 5
EndChar

StartChar: guillemotright
Encoding: 187 187 185
Width: 1024
Flags: W
LayerCount: 2
Fore
SplineSet
380 768 m 1,0,-1
 380 896 l 1,1,-1
 508 896 l 1,2,-1
 508 768 l 1,3,-1
 380 768 l 1,0,-1
380 0 m 1,4,-1
 380 128 l 1,5,-1
 508 128 l 1,6,-1
 508 0 l 1,7,-1
 380 0 l 1,4,-1
0 768 m 1,8,-1
 0 896 l 1,9,-1
 128 896 l 1,10,-1
 128 768 l 1,11,-1
 0 768 l 1,8,-1
0 0 m 1,12,-1
 0 128 l 1,13,-1
 128 128 l 1,14,-1
 128 0 l 1,15,-1
 0 0 l 1,12,-1
634 640 m 1,16,-1
 508 640 l 1,17,-1
 508 768 l 1,18,-1
 634 768 l 1,19,-1
 634 640 l 1,16,-1
634 640 m 1,20,-1
 762 640 l 1,21,-1
 762 512 l 1,22,-1
 634 512 l 1,23,-1
 634 640 l 1,20,-1
762 512 m 1,24,-1
 890 512 l 1,25,-1
 890 384 l 1,26,-1
 762 384 l 1,27,-1
 762 256 l 1,28,-1
 634 256 l 1,29,-1
 634 128 l 1,30,-1
 508 128 l 1,31,-1
 508 256 l 1,32,-1
 633 256 l 1,33,-1
 634 384 l 1,34,-1
 762 384 l 1,35,-1
 762 512 l 1,24,-1
254 640 m 1,36,-1
 128 640 l 1,37,-1
 128 768 l 1,38,-1
 254 768 l 1,39,-1
 254 640 l 1,36,-1
254 640 m 1,40,-1
 382 640 l 1,41,-1
 382 512 l 1,42,-1
 254 512 l 1,43,-1
 254 640 l 1,40,-1
382 512 m 1,44,-1
 510 512 l 1,45,-1
 510 384 l 1,46,-1
 382 384 l 1,47,-1
 382 256 l 1,48,-1
 254 256 l 1,49,-1
 254 128 l 1,50,-1
 128 128 l 1,51,-1
 128 256 l 1,52,-1
 253 256 l 1,53,-1
 254 384 l 1,54,-1
 382 384 l 1,55,-1
 382 512 l 1,44,-1
EndSplineSet
Validated: 5
EndChar

StartChar: periodcentered
Encoding: 183 183 186
Width: 384
Flags: W
LayerCount: 2
Fore
SplineSet
0 512 m 1,0,-1
 0 768 l 1,1,-1
 256 768 l 1,2,-1
 256 512 l 1,3,-1
 0 512 l 1,0,-1
EndSplineSet
Validated: 1
EndChar

StartChar: cedilla
Encoding: 184 184 187
Width: 1024
Flags: W
LayerCount: 2
Fore
SplineSet
640 256 m 1025,0,-1
256 256 m 1025,1,-1
384 0 m 1,2,-1
 384 128 l 1,3,-1
 256 128 l 1,4,-1
 256 256 l 1,5,-1
 640 256 l 1,6,-1
 640 128 l 1,7,-1
 512 128 l 1,8,-1
 512 0 l 1,9,-1
 384 0 l 1,2,-1
256 -256 m 1,10,-1
 256 -128 l 1,11,-1
 512 -128 l 1,12,-1
 512 0 l 1,13,-1
 640 0 l 1,14,-1
 640 -256 l 1,15,-1
 256 -256 l 1,10,-1
EndSplineSet
Validated: 5
EndChar

StartChar: sterling
Encoding: 163 163 188
Width: 896
Flags: W
LayerCount: 2
Fore
SplineSet
256 1280 m 1029,0,-1
0 0 m 5,1,-1
 0 128 l 5,2,-1
 128 128 l 5,3,-1
 128 640 l 5,4,-1
 0 640 l 5,5,-1
 0 768 l 5,6,-1
 128 768 l 5,7,-1
 128 1280 l 5,8,-1
 256 1280 l 5,9,-1
 256 768 l 5,10,-1
 384 768 l 5,11,-1
 384 640 l 5,12,-1
 256 640 l 5,13,-1
 256 128 l 5,14,-1
 640 128 l 5,15,-1
 640 0 l 5,16,-1
 0 0 l 5,1,-1
640 128 m 5,17,-1
 640 256 l 5,18,-1
 768 256 l 5,19,-1
 768 128 l 1029,20,-1
256 1408 m 5,21,-1
 384 1408 l 5,22,-1
 384 1280 l 5,23,-1
 256 1280 l 5,24,-1
 256 1408 l 5,21,-1
512 1152 m 5,25,-1
 384 1152 l 5,26,-1
 384 1280 l 5,27,-1
 512 1280 l 5,28,-1
 512 1152 l 5,25,-1
EndSplineSet
Validated: 3
EndChar

StartChar: currency
Encoding: 164 164 189
Width: 896
Flags: W
LayerCount: 2
Fore
SplineSet
640 1024 m 1,0,-1
 768 1024 l 1,1,-1
 768 896 l 1,2,-1
 640 896 l 1,3,-1
 640 384 l 1,4,-1
 128 384 l 1,5,-1
 128 896 l 1,6,-1
 640 896 l 1,7,-1
 640 1024 l 1,0,-1
0 1024 m 1,8,-1
 128 1024 l 1,9,-1
 128 896 l 1,10,-1
 0 896 l 1,11,-1
 0 1024 l 1,8,-1
512 512 m 1,12,-1
 512 768 l 1,13,-1
 256 768 l 1,14,-1
 256 512 l 1,15,-1
 512 512 l 1,12,-1
640 384 m 1,16,-1
 768 384 l 1,17,-1
 768 256 l 1,18,-1
 640 256 l 1,19,-1
 640 384 l 1,16,-1
128 384 m 1,20,-1
 128 256 l 1,21,-1
 0 256 l 1,22,-1
 0 384 l 1,23,-1
 128 384 l 1,20,-1
EndSplineSet
Validated: 5
EndChar

StartChar: ampersand
Encoding: 38 38 191
Width: 896
Flags: W
LayerCount: 2
Fore
SplineSet
512 128 m 1025,0,-1
384 384 m 1025,1,-1
0 128 m 1,2,-1
 0 512 l 1,3,-1
 128 512 l 1,4,-1
 128 640 l 1,5,-1
 256 640 l 1,6,-1
 256 768 l 1,7,-1
 128 768 l 1,8,-1
 128 1024 l 1,9,-1
 256 1024 l 1,10,-1
 256 1152 l 1,11,-1
 512 1152 l 1,12,-1
 512 1024 l 1,13,-1
 256 1024 l 1,14,-1
 256 768 l 1,15,-1
 512 768 l 1,16,-1
 509 643 l 1,17,-1
 384 640 l 1,18,-1
 384 512 l 1,19,-1
 512 512 l 1,20,-1
 512 256 l 1,21,-1
 384 256 l 1,22,-1
 384 512 l 1,23,-1
 128 512 l 1,24,-1
 128 128 l 1,25,-1
 0 128 l 1,2,-1
640 384 m 1,26,-1
 768 384 l 1,27,-1
 768 256 l 1,28,-1
 640 256 l 1,29,-1
 640 128 l 1,30,-1
 512 128 l 1,31,-1
 512 256 l 1,32,-1
 640 256 l 1,33,-1
 640 384 l 1,26,-1
512 1024 m 1,34,-1
 640 1024 l 1,35,-1
 640 768 l 1,36,-1
 512 768 l 1,37,-1
 512 1024 l 1,34,-1
128 128 m 1,38,-1
 256 128 l 1,39,-1
 512 126 l 1,40,-1
 512 -2 l 1,41,-1
 256 0 l 1,42,-1
 128 0 l 1,43,-1
 128 128 l 1,38,-1
640 128 m 1,44,-1
 768 128 l 1,45,-1
 768 0 l 1,46,-1
 640 0 l 1,47,-1
 640 128 l 1,44,-1
EndSplineSet
EndChar

StartChar: braceleft
Encoding: 123 123 192
Width: 640
Flags: W
LayerCount: 2
Fore
SplineSet
512 1408 m 1025,0,-1
256 1280 m 1025,1,-1
512 -256 m 1,2,-1
 256 -256 l 1,3,-1
 256 -128 l 1,4,-1
 128 -128 l 1,5,-1
 128 512 l 1,6,-1
 0 512 l 1,7,-1
 0 640 l 1,8,-1
 128 640 l 1,9,-1
 128 1280 l 1,10,-1
 256 1280 l 1,11,-1
 256 1408 l 1,12,-1
 512 1408 l 1,13,-1
 512 1280 l 1,14,-1
 256 1280 l 1,15,-1
 256 640 l 1,16,-1
 128 640 l 1,17,-1
 128 512 l 1,18,-1
 256 512 l 1,19,-1
 256 -128 l 1,20,-1
 512 -128 l 1,21,-1
 512 -256 l 1,2,-1
EndSplineSet
EndChar

StartChar: braceright
Encoding: 125 125 193
Width: 640
Flags: W
LayerCount: 2
Fore
SplineSet
0 -256 m 1025,0,-1
256 -128 m 1025,1,-1
0 1408 m 1,2,-1
 256 1408 l 1,3,-1
 256 1280 l 1,4,-1
 384 1280 l 1,5,-1
 384 640 l 1,6,-1
 512 640 l 1,7,-1
 512 512 l 1,8,-1
 384 512 l 1,9,-1
 384 -128 l 1,10,-1
 256 -128 l 1,11,-1
 256 -256 l 1,12,-1
 0 -256 l 1,13,-1
 0 -128 l 1,14,-1
 256 -128 l 1,15,-1
 256 512 l 1,16,-1
 384 512 l 1,17,-1
 384 640 l 1,18,-1
 256 640 l 1,19,-1
 256 1280 l 1,20,-1
 0 1280 l 1,21,-1
 0 1408 l 1,2,-1
EndSplineSet
EndChar

StartChar: asciitilde
Encoding: 126 126 194
Width: 768
Flags: W
LayerCount: 2
Fore
SplineSet
0 640 m 1,0,-1
 0 768 l 1,1,-1
 128 768 l 1,2,-1
 128 640 l 1,3,-1
 0 640 l 1,0,-1
384 640 m 1,4,-1
 384 768 l 1,5,-1
 640 768 l 1,6,-1
 640 640 l 1,7,-1
 384 640 l 1,4,-1
128 768 m 1,8,-1
 128 896 l 1,9,-1
 384 896 l 1,10,-1
 384 768 l 1,11,-1
 128 768 l 1,8,-1
640 768 m 1,12,-1
 640 896 l 1,13,-1
 768 896 l 1,14,-1
 768 768 l 1,15,-1
 640 768 l 1,12,-1
EndSplineSet
EndChar
